<svg width="95" height="19" viewBox="0 0 95 19" fill="none" xmlns="http://www.w3.org/2000/svg">
<path d="M6.97984 14.9798C5.67318 14.9798 4.48651 14.6732 3.41984 14.0598C2.35318 13.4332 1.51318 12.5798 0.899844 11.4998C0.299844 10.4065 -0.000156209 9.18651 -0.000156209 7.83984C-0.000156209 6.49318 0.299844 5.27984 0.899844 4.19984C1.51318 3.10651 2.35318 2.25318 3.41984 1.63984C4.48651 1.01318 5.67318 0.699843 6.97984 0.699843C7.97984 0.699843 8.89984 0.879843 9.73984 1.23984C10.5932 1.58651 11.3198 2.09984 11.9198 2.77984L10.9598 3.73984C9.93318 2.63318 8.63318 2.07984 7.05984 2.07984C6.00651 2.07984 5.05318 2.33318 4.19984 2.83984C3.34651 3.33318 2.67984 4.01984 2.19984 4.89984C1.71984 5.77984 1.47984 6.75984 1.47984 7.83984C1.47984 8.91984 1.71984 9.89984 2.19984 10.7798C2.67984 11.6465 3.34651 12.3332 4.19984 12.8398C5.05318 13.3332 6.00651 13.5798 7.05984 13.5798C8.61984 13.5798 9.91984 13.0198 10.9598 11.8998L11.9198 12.8598C11.3198 13.5532 10.5932 14.0798 9.73984 14.4398C8.89984 14.7998 7.97984 14.9798 6.97984 14.9798ZM17.1961 4.21984C18.5161 4.21984 19.5228 4.56651 20.2161 5.25984C20.9228 5.93984 21.2761 6.95984 21.2761 8.31984V14.8398H19.9161V13.0398C19.6094 13.6398 19.1561 14.1065 18.5561 14.4398C17.9694 14.7732 17.2694 14.9398 16.4561 14.9398C15.3228 14.9398 14.4294 14.6598 13.7761 14.0998C13.1228 13.5398 12.7961 12.7998 12.7961 11.8798C12.7961 10.9865 13.1094 10.2665 13.7361 9.71984C14.3628 9.17318 15.3428 8.89984 16.6761 8.89984H19.8361C19.8361 8.49984 19.8094 8.15984 19.7561 7.87984C19.6361 6.27984 18.7294 5.47984 17.0361 5.47984C16.3961 5.47984 15.7828 5.59318 15.1961 5.81984C14.6094 6.04651 14.1161 6.35318 13.7161 6.73984L13.0961 5.67984C13.6161 5.21318 14.2361 4.85318 14.9561 4.59984C15.6761 4.34651 16.4228 4.21984 17.1961 4.21984ZM16.7161 13.7998C18.2628 13.7998 19.3028 13.0932 19.8361 11.6798V9.91984H16.7761C15.0694 9.91984 14.2161 10.5532 14.2161 11.8198C14.2161 12.4332 14.4361 12.9198 14.8761 13.2798C15.3161 13.6265 15.9294 13.7998 16.7161 13.7998ZM27.2042 14.9398C26.3909 14.9398 25.6109 14.8198 24.8642 14.5798C24.1176 14.3265 23.5309 14.0065 23.1042 13.6198L23.6842 12.4798C24.0976 12.8398 24.6176 13.1332 25.2442 13.3598C25.8842 13.5865 26.5576 13.6998 27.2642 13.6998C28.1976 13.6998 28.8776 13.5465 29.3042 13.2398C29.7442 12.9332 29.9642 12.5132 29.9642 11.9798C29.9642 11.5932 29.8442 11.2932 29.6042 11.0798C29.3642 10.8532 29.0576 10.6865 28.6842 10.5798C28.3242 10.4598 27.8376 10.3465 27.2242 10.2398C26.4242 10.0798 25.7709 9.91984 25.2642 9.75984C24.7709 9.58651 24.3442 9.29984 23.9842 8.89984C23.6376 8.48651 23.4642 7.92651 23.4642 7.21984C23.4642 6.33984 23.8109 5.61984 24.5042 5.05984C25.1976 4.49984 26.1776 4.21984 27.4442 4.21984C28.0976 4.21984 28.7442 4.31318 29.3842 4.49984C30.0376 4.67318 30.5709 4.91984 30.9842 5.23984L30.4242 6.35984C30.0109 6.05318 29.5376 5.82651 29.0042 5.67984C28.4842 5.51984 27.9642 5.43984 27.4442 5.43984C26.5776 5.43984 25.9309 5.59984 25.5042 5.91984C25.0776 6.23984 24.8642 6.65984 24.8642 7.17984C24.8642 7.57984 24.9842 7.89984 25.2242 8.13984C25.4776 8.36651 25.7842 8.53984 26.1442 8.65984C26.5176 8.76651 27.0242 8.87984 27.6642 8.99984C28.4642 9.15984 29.1042 9.32651 29.5842 9.49984C30.0642 9.67318 30.4776 9.95318 30.8242 10.3398C31.1709 10.7265 31.3442 11.2665 31.3442 11.9598C31.3442 12.8665 30.9842 13.5932 30.2642 14.1398C29.5442 14.6732 28.5242 14.9398 27.2042 14.9398ZM36.1163 14.9398C35.303 14.9398 34.523 14.8198 33.7763 14.5798C33.0297 14.3265 32.443 14.0065 32.0163 13.6198L32.5963 12.4798C33.0097 12.8398 33.5297 13.1332 34.1563 13.3598C34.7963 13.5865 35.4697 13.6998 36.1763 13.6998C37.1097 13.6998 37.7897 13.5465 38.2163 13.2398C38.6563 12.9332 38.8763 12.5132 38.8763 11.9798C38.8763 11.5932 38.7563 11.2932 38.5163 11.0798C38.2763 10.8532 37.9697 10.6865 37.5963 10.5798C37.2363 10.4598 36.7497 10.3465 36.1363 10.2398C35.3363 10.0798 34.683 9.91984 34.1763 9.75984C33.683 9.58651 33.2563 9.29984 32.8963 8.89984C32.5497 8.48651 32.3763 7.92651 32.3763 7.21984C32.3763 6.33984 32.723 5.61984 33.4163 5.05984C34.1097 4.49984 35.0897 4.21984 36.3563 4.21984C37.0097 4.21984 37.6563 4.31318 38.2963 4.49984C38.9497 4.67318 39.483 4.91984 39.8963 5.23984L39.3363 6.35984C38.923 6.05318 38.4497 5.82651 37.9163 5.67984C37.3963 5.51984 36.8763 5.43984 36.3563 5.43984C35.4897 5.43984 34.843 5.59984 34.4163 5.91984C33.9897 6.23984 33.7763 6.65984 33.7763 7.17984C33.7763 7.57984 33.8963 7.89984 34.1363 8.13984C34.3897 8.36651 34.6963 8.53984 35.0563 8.65984C35.4297 8.76651 35.9363 8.87984 36.5763 8.99984C37.3763 9.15984 38.0163 9.32651 38.4963 9.49984C38.9763 9.67318 39.3897 9.95318 39.7363 10.3398C40.083 10.7265 40.2563 11.2665 40.2563 11.9598C40.2563 12.8665 39.8963 13.5932 39.1763 14.1398C38.4563 14.6732 37.4363 14.9398 36.1163 14.9398ZM43.0084 2.05984C42.7151 2.05984 42.4618 1.95984 42.2484 1.75984C42.0484 1.55984 41.9484 1.31318 41.9484 1.01984C41.9484 0.72651 42.0484 0.48651 42.2484 0.299843C42.4484 0.0998431 42.7018 -0.00015676 43.0084 -0.00015676C43.3018 -0.00015676 43.5484 0.0998431 43.7484 0.299843C43.9484 0.48651 44.0484 0.719843 44.0484 0.999844C44.0484 1.30651 43.9484 1.55984 43.7484 1.75984C43.5484 1.95984 43.3018 2.05984 43.0084 2.05984ZM43.7284 4.31984V14.8398H42.2884V4.31984H43.7284ZM51.1745 14.9398C50.2012 14.9398 49.3212 14.7132 48.5345 14.2598C47.7612 13.7932 47.1479 13.1532 46.6945 12.3398C46.2545 11.5265 46.0345 10.5998 46.0345 9.55984C46.0345 8.53318 46.2545 7.61318 46.6945 6.79984C47.1479 5.98651 47.7612 5.35318 48.5345 4.89984C49.3212 4.44651 50.2012 4.21984 51.1745 4.21984C52.1345 4.21984 53.0012 4.44651 53.7745 4.89984C54.5612 5.35318 55.1745 5.98651 55.6145 6.79984C56.0545 7.61318 56.2745 8.53318 56.2745 9.55984C56.2745 10.5998 56.0545 11.5265 55.6145 12.3398C55.1745 13.1532 54.5612 13.7932 53.7745 14.2598C53.0012 14.7132 52.1345 14.9398 51.1745 14.9398ZM51.1745 13.6198C51.8679 13.6198 52.4879 13.4532 53.0345 13.1198C53.5945 12.7865 54.0345 12.3132 54.3545 11.6998C54.6745 11.0732 54.8345 10.3598 54.8345 9.55984C54.8345 8.77318 54.6745 8.07318 54.3545 7.45984C54.0345 6.84651 53.5945 6.37318 53.0345 6.03984C52.4879 5.69318 51.8679 5.51984 51.1745 5.51984C50.4679 5.51984 49.8345 5.69318 49.2745 6.03984C48.7279 6.37318 48.2945 6.84651 47.9745 7.45984C47.6545 8.07318 47.4945 8.77318 47.4945 9.55984C47.4945 10.3598 47.6479 11.0732 47.9545 11.6998C48.2745 12.3132 48.7145 12.7865 49.2745 13.1198C49.8345 13.4532 50.4679 13.6198 51.1745 13.6198ZM63.8282 4.21984C64.7482 4.21984 65.5815 4.44651 66.3282 4.89984C67.0749 5.35318 67.6615 5.98651 68.0882 6.79984C68.5282 7.61318 68.7482 8.53984 68.7482 9.57984C68.7482 10.6198 68.5282 11.5465 68.0882 12.3598C67.6615 13.1732 67.0749 13.8065 66.3282 14.2598C65.5815 14.7132 64.7482 14.9398 63.8282 14.9398C63.0015 14.9398 62.2482 14.7398 61.5682 14.3398C60.8882 13.9398 60.3615 13.3798 59.9882 12.6598V18.6998H58.5482V4.31984H59.9282V6.57984C60.3149 5.83318 60.8482 5.25318 61.5282 4.83984C62.2082 4.42651 62.9749 4.21984 63.8282 4.21984ZM63.6482 13.6198C64.3415 13.6198 64.9682 13.4532 65.5282 13.1198C66.0882 12.7865 66.5215 12.3132 66.8282 11.6998C67.1482 11.0865 67.3082 10.3798 67.3082 9.57984C67.3082 8.77984 67.1482 8.07318 66.8282 7.45984C66.5215 6.84651 66.0882 6.37318 65.5282 6.03984C64.9682 5.69318 64.3415 5.51984 63.6482 5.51984C62.9549 5.51984 62.3282 5.69318 61.7682 6.03984C61.2082 6.37318 60.7682 6.84651 60.4482 7.45984C60.1415 8.07318 59.9882 8.77984 59.9882 9.57984C59.9882 10.3798 60.1415 11.0865 60.4482 11.6998C60.7682 12.3132 61.2082 12.7865 61.7682 13.1198C62.3282 13.4532 62.9549 13.6198 63.6482 13.6198ZM79.8263 9.95984H71.4862C71.5529 11.0665 71.9396 11.9598 72.6463 12.6398C73.3663 13.3065 74.2729 13.6398 75.3663 13.6398C75.9929 13.6398 76.5663 13.5265 77.0863 13.2998C77.6196 13.0732 78.0596 12.7332 78.4062 12.2798L79.2263 13.1998C78.7596 13.7732 78.1929 14.2065 77.5262 14.4998C76.8596 14.7932 76.1329 14.9398 75.3463 14.9398C74.3196 14.9398 73.3996 14.7132 72.5863 14.2598C71.7863 13.7932 71.1596 13.1532 70.7063 12.3398C70.2663 11.5265 70.0463 10.5998 70.0463 9.55984C70.0463 8.53318 70.2596 7.61984 70.6863 6.81984C71.1129 6.00651 71.6996 5.37318 72.4463 4.91984C73.2063 4.45318 74.0463 4.21984 74.9662 4.21984C75.8863 4.21984 76.7129 4.44651 77.4463 4.89984C78.1929 5.33984 78.7796 5.95984 79.2062 6.75984C79.6329 7.55984 79.8463 8.47984 79.8463 9.51984L79.8263 9.95984ZM74.9863 5.43984C74.0263 5.43984 73.2196 5.76651 72.5663 6.41984C71.9263 7.05984 71.5662 7.89984 71.4862 8.93984H78.4863C78.3929 7.91318 78.0196 7.07318 77.3663 6.41984C76.7263 5.76651 75.9329 5.43984 74.9863 5.43984ZM82.8405 2.05984C82.5471 2.05984 82.2938 1.95984 82.0805 1.75984C81.8805 1.55984 81.7805 1.31318 81.7805 1.01984C81.7805 0.72651 81.8805 0.48651 82.0805 0.299843C82.2805 0.0998431 82.5338 -0.00015676 82.8405 -0.00015676C83.1338 -0.00015676 83.3805 0.0998431 83.5805 0.299843C83.7805 0.48651 83.8805 0.719843 83.8805 0.999844C83.8805 1.30651 83.7805 1.55984 83.5805 1.75984C83.3805 1.95984 83.1338 2.05984 82.8405 2.05984ZM83.5605 4.31984V14.8398H82.1205V4.31984H83.5605ZM90.4266 4.21984C91.7466 4.21984 92.7532 4.56651 93.4466 5.25984C94.1532 5.93984 94.5066 6.95984 94.5066 8.31984V14.8398H93.1466V13.0398C92.8399 13.6398 92.3866 14.1065 91.7866 14.4398C91.1999 14.7732 90.4999 14.9398 89.6866 14.9398C88.5532 14.9398 87.6599 14.6598 87.0066 14.0998C86.3532 13.5398 86.0266 12.7998 86.0266 11.8798C86.0266 10.9865 86.3399 10.2665 86.9666 9.71984C87.5932 9.17318 88.5732 8.89984 89.9066 8.89984H93.0666C93.0666 8.49984 93.0399 8.15984 92.9866 7.87984C92.8666 6.27984 91.9599 5.47984 90.2666 5.47984C89.6266 5.47984 89.0132 5.59318 88.4266 5.81984C87.8399 6.04651 87.3466 6.35318 86.9466 6.73984L86.3266 5.67984C86.8466 5.21318 87.4666 4.85318 88.1866 4.59984C88.9066 4.34651 89.6532 4.21984 90.4266 4.21984ZM89.9466 13.7998C91.4932 13.7998 92.5332 13.0932 93.0666 11.6798V9.91984H90.0066C88.2999 9.91984 87.4466 10.5532 87.4466 11.8198C87.4466 12.4332 87.6666 12.9198 88.1066 13.2798C88.5466 13.6265 89.1599 13.7998 89.9466 13.7998Z" fill="#989898"/>
</svg>
