<svg width="1920" height="476" viewBox="0 0 1920 476" fill="none" xmlns="http://www.w3.org/2000/svg">
<rect width="1920" height="480" fill="url(#paint0_linear_161_1624)"/>
<path d="M759.064 197.307L758.877 204.507H756.957L756.797 197.307H759.064ZM763.864 197.307L763.677 204.507H761.784L761.597 197.307H763.864ZM776.107 207.573C774.365 207.573 772.836 207.351 771.52 206.907C770.222 206.462 769.209 205.831 768.48 205.013C767.769 204.178 767.414 203.2 767.414 202.08C767.414 200.96 767.769 199.991 768.48 199.173C769.209 198.338 770.222 197.698 771.52 197.253C772.836 196.809 774.365 196.587 776.107 196.587C777.849 196.587 779.369 196.809 780.667 197.253C781.982 197.698 782.996 198.338 783.707 199.173C784.436 199.991 784.8 200.96 784.8 202.08C784.8 203.2 784.436 204.178 783.707 205.013C782.996 205.831 781.982 206.462 780.667 206.907C779.369 207.351 777.849 207.573 776.107 207.573ZM776.107 198.853C774.258 198.853 772.765 199.138 771.627 199.707C770.507 200.276 769.947 201.067 769.947 202.08C769.947 203.093 770.507 203.884 771.627 204.453C772.765 205.004 774.258 205.28 776.107 205.28C777.956 205.28 779.44 205.004 780.56 204.453C781.698 203.884 782.267 203.093 782.267 202.08C782.267 201.067 781.698 200.276 780.56 199.707C779.44 199.138 777.956 198.853 776.107 198.853ZM777.334 211.76V217.387H774.88V211.76H766.374V209.413H785.84V211.76H777.334ZM803.331 216.907V196.427H805.757V216.907H803.331ZM790.984 207.413V213.413H796.584C797.491 213.413 798.406 213.324 799.331 213.147C800.255 212.969 801.02 212.729 801.624 212.427V214.72C801.037 215.022 800.273 215.262 799.331 215.44C798.406 215.618 797.464 215.707 796.504 215.707H788.584V205.147H797.197V199.44H788.557V197.147H799.571V207.413H790.984ZM826.901 202.213V204.373H809.995V196.4H812.421V202.213H826.901ZM808.608 208.773V206.613H828.075V208.773H808.608ZM827.088 214.507V216.667H809.941V210.56H812.395V214.507H827.088ZM854.465 215.947H834.999V213.573H843.505V208.8H836.279V197.147H853.185V208.8H845.932V213.573H854.465V215.947ZM850.785 206.453V199.493H838.679V206.453H850.785ZM857.449 206.933V196.907H874.356V199.227H859.902V204.613H874.596V206.933H857.449ZM867.076 211.653V217.387H864.622V211.653H856.116V209.28H875.582V211.653H867.076ZM900.906 216.907H898.506V206.4H893.786V204.027H898.506V196.427H900.906V216.907ZM890.613 199.467C890.56 201.778 890.373 203.867 890.053 205.733L896.346 214.08L894.426 215.52L889.28 208.587C888.604 210.72 887.706 212.4 886.586 213.627C885.484 214.836 884.204 215.529 882.746 215.707V213.173C883.849 212.96 884.8 212.249 885.6 211.04C886.4 209.831 887.022 208.231 887.466 206.24C887.911 204.249 888.151 201.991 888.186 199.467H883.2V197.147H895.52V199.467H890.613ZM921.33 207.067V216.907H918.93V196.427H921.33V204.64H924.024V207.067H921.33ZM915.41 197.147V215.707H904.53V197.147H915.41ZM912.984 213.36V199.493H906.93V213.36H912.984ZM942.447 207.067V216.907H940.047V196.427H942.447V204.64H945.141V207.067H942.447ZM933.381 213.413C934.305 213.413 935.23 213.324 936.154 213.147C937.079 212.969 937.834 212.729 938.421 212.427V214.72C937.852 215.022 937.087 215.262 936.127 215.44C935.185 215.618 934.225 215.707 933.247 215.707H925.647V197.147H936.901V199.44H928.074V213.413H933.381ZM961.778 216.907V196.427H964.151V216.907H961.778ZM952.551 196.827C953.707 196.827 954.738 197.102 955.645 197.653C956.569 198.187 957.289 198.951 957.805 199.947C958.32 200.924 958.578 202.036 958.578 203.28C958.578 204.542 958.32 205.671 957.805 206.667C957.289 207.644 956.569 208.409 955.645 208.96C954.738 209.493 953.707 209.76 952.551 209.76C951.396 209.76 950.356 209.493 949.431 208.96C948.507 208.409 947.787 207.644 947.271 206.667C946.756 205.671 946.498 204.542 946.498 203.28C946.498 202.036 946.756 200.924 947.271 199.947C947.787 198.951 948.507 198.187 949.431 197.653C950.356 197.102 951.396 196.827 952.551 196.827ZM952.551 199.093C951.449 199.093 950.551 199.493 949.858 200.293C949.182 201.076 948.845 202.071 948.845 203.28C948.845 204.489 949.182 205.493 949.858 206.293C950.551 207.076 951.449 207.467 952.551 207.467C953.653 207.467 954.542 207.076 955.218 206.293C955.911 205.493 956.258 204.489 956.258 203.28C956.258 202.071 955.911 201.076 955.218 200.293C954.542 199.493 953.653 199.093 952.551 199.093ZM960.178 214.747C959.52 215.049 958.631 215.289 957.511 215.467C956.391 215.627 955.147 215.707 953.778 215.707H945.858V213.333H953.911C955.245 213.333 956.462 213.253 957.565 213.093C958.667 212.933 959.538 212.702 960.178 212.4V214.747ZM988.089 207.707V196.427H990.515V207.707H988.089ZM973.129 206.187V196.773H975.502V199.307H982.409V196.773H984.755V206.187H973.129ZM982.409 201.333H975.502V204.133H982.409V201.333ZM981.822 214C980.915 214.853 979.733 215.511 978.275 215.973C976.817 216.436 975.271 216.667 973.635 216.667V214.56C975.289 214.56 976.817 214.267 978.222 213.68C979.626 213.093 980.542 212.302 980.969 211.307H973.795V209.28H981.022V207.2H983.475V209.28H990.755V211.307H983.582C983.493 211.698 983.369 212.027 983.209 212.293L991.209 214.88L990.542 216.933L981.822 214ZM1003.1 196.32C1005.68 196.32 1007.75 196.622 1009.31 197.227C1010.88 197.813 1011.66 198.747 1011.66 200.027C1011.66 201.324 1010.88 202.276 1009.31 202.88C1007.75 203.467 1005.68 203.76 1003.1 203.76C1000.52 203.76 998.441 203.467 996.859 202.88C995.295 202.276 994.512 201.324 994.512 200.027C994.512 198.747 995.295 197.813 996.859 197.227C998.441 196.622 1000.52 196.32 1003.1 196.32ZM1003.1 198.213C1001.3 198.213 999.846 198.364 998.726 198.667C997.606 198.951 997.046 199.404 997.046 200.027C997.046 200.649 997.597 201.111 998.699 201.413C999.819 201.698 1001.29 201.84 1003.1 201.84C1004.91 201.84 1006.37 201.698 1007.47 201.413C1008.59 201.111 1009.15 200.649 1009.15 200.027C1009.15 199.404 1008.59 198.951 1007.47 198.667C1006.35 198.364 1004.89 198.213 1003.1 198.213ZM993.366 206.96V205.013H1012.83V206.96H993.366ZM997.072 213.333V214.907H1011.85V216.667H994.699V211.84H1009.15V210.293H994.646V208.56H1011.53V213.333H997.072ZM1037.46 207.067V216.907H1035.06V196.427H1037.46V204.64H1040.16V207.067H1037.46ZM1031.09 197.147V202.133C1031.09 204.853 1030.66 207.236 1029.81 209.28C1028.96 211.307 1027.73 212.88 1026.13 214C1024.53 215.102 1022.64 215.653 1020.45 215.653V213.253C1022.17 213.253 1023.65 212.809 1024.88 211.92C1026.12 211.013 1027.06 209.733 1027.7 208.08C1028.34 206.409 1028.66 204.444 1028.66 202.187V199.44H1020.45V197.147H1031.09ZM1056.71 211.627V196.427H1059.14V211.627H1056.71ZM1047.91 204C1047.22 205.298 1046.31 206.347 1045.19 207.147C1044.07 207.929 1042.8 208.4 1041.38 208.56V206.24C1042.96 206.009 1044.24 205.253 1045.22 203.973C1046.2 202.676 1046.75 201.049 1046.87 199.093H1041.62V196.907H1054.23V199.093H1049.3C1049.28 200.089 1049.13 201.031 1048.85 201.92L1054.85 206.533L1053.51 208.4L1047.91 204ZM1059.62 216.667H1042.53V210.08H1044.95V214.373H1059.62V216.667ZM1080.2 204.693V202.533H1083.29V200.133H1080.2V197.973H1083.29V196.427H1085.66V206.72H1083.29V204.693H1080.2ZM1068.06 205.973V196.773H1070.38V199.2H1076.86V196.773H1079.21V205.973H1068.06ZM1076.86 201.173H1070.38V203.947H1076.86V201.173ZM1086.09 216.667H1069.05V211.387H1083.29V209.627H1069.02V207.813H1085.66V213.067H1071.45V214.853H1086.09V216.667ZM1106.65 207.067H1104.22V196.427H1106.65V207.067ZM1100.89 201.707C1100.89 202.72 1100.64 203.618 1100.14 204.4C1099.64 205.164 1098.93 205.76 1098.01 206.187C1097.08 206.613 1096 206.827 1094.75 206.827C1093.53 206.827 1092.45 206.613 1091.53 206.187C1090.6 205.76 1089.89 205.164 1089.39 204.4C1088.9 203.618 1088.65 202.72 1088.65 201.707C1088.65 200.711 1088.9 199.831 1089.39 199.067C1089.89 198.284 1090.6 197.68 1091.53 197.253C1092.45 196.827 1093.53 196.613 1094.75 196.613C1095.98 196.613 1097.06 196.827 1097.98 197.253C1098.92 197.68 1099.64 198.284 1100.14 199.067C1100.64 199.831 1100.89 200.711 1100.89 201.707ZM1091.05 201.707C1091.05 202.649 1091.39 203.396 1092.06 203.947C1092.74 204.48 1093.63 204.747 1094.75 204.747C1095.89 204.747 1096.8 204.48 1097.47 203.947C1098.15 203.396 1098.49 202.649 1098.49 201.707C1098.49 200.764 1098.15 200.027 1097.47 199.493C1096.8 198.942 1095.89 198.667 1094.75 198.667C1093.65 198.667 1092.75 198.942 1092.06 199.493C1091.39 200.027 1091.05 200.764 1091.05 201.707ZM1106.65 207.947V216.667H1090.25V207.947H1092.62V210.107H1104.27V207.947H1106.65ZM1104.27 212.133H1092.62V214.613H1104.27V212.133ZM1125.34 216.907V196.427H1127.77V216.907H1125.34ZM1118.59 213.387C1119.52 213.387 1120.43 213.298 1121.34 213.12C1122.26 212.924 1123.03 212.676 1123.63 212.373V214.693C1123.05 215.013 1122.29 215.262 1121.37 215.44C1120.46 215.618 1119.53 215.707 1118.59 215.707H1110.59V197.013H1113.07V213.387H1118.59ZM1148.32 207.067V216.907H1145.92V196.427H1148.32V204.64H1151.02V207.067H1148.32ZM1139.26 213.413C1140.18 213.413 1141.1 213.324 1142.03 213.147C1142.95 212.969 1143.71 212.729 1144.3 212.427V214.72C1143.73 215.022 1142.96 215.262 1142 215.44C1141.06 215.618 1140.1 215.707 1139.12 215.707H1131.52V197.147H1142.78V199.44H1133.95V213.413H1139.26ZM1153.92 216.16C1153.44 216.16 1153.02 215.991 1152.67 215.653C1152.33 215.316 1152.16 214.898 1152.16 214.4C1152.16 213.884 1152.33 213.467 1152.67 213.147C1153 212.809 1153.42 212.64 1153.92 212.64C1154.42 212.64 1154.84 212.809 1155.17 213.147C1155.51 213.467 1155.68 213.884 1155.68 214.4C1155.68 214.898 1155.51 215.316 1155.17 215.653C1154.84 215.991 1154.42 216.16 1153.92 216.16ZM1159.4 197.307L1159.21 204.507H1157.29L1157.13 197.307H1159.4ZM1164.2 197.307L1164.01 204.507H1162.12L1161.93 197.307H1164.2ZM571.943 258.533C571.339 259.564 570.494 260.409 569.41 261.067C568.343 261.724 567.099 262.178 565.677 262.427V261.093C567.33 260.773 568.663 260.151 569.677 259.227C570.69 258.302 571.285 257.102 571.463 255.627H565.863V254.32H571.57V252.053H573.01V254.32H578.583V255.627H572.957C572.885 256.231 572.752 256.836 572.557 257.44L578.797 261.013L578.183 262.133L571.943 258.533ZM581.81 262.747V252.427H583.25V262.747H581.81ZM583.863 272.507H567.197V267.733H581.81V265.307H567.143V264.08H583.25V268.88H568.61V271.307H583.863V272.507ZM587.3 255.2V253.947H595.38V251.6H596.847V253.947H605.007V255.2H587.3ZM588.18 259.467C588.18 258.489 588.892 257.751 590.314 257.253C591.754 256.738 593.7 256.48 596.154 256.48C598.607 256.48 600.545 256.738 601.967 257.253C603.407 257.751 604.127 258.489 604.127 259.467C604.127 260.444 603.407 261.191 601.967 261.707C600.545 262.204 598.607 262.453 596.154 262.453C593.7 262.453 591.754 262.204 590.314 261.707C588.892 261.191 588.18 260.444 588.18 259.467ZM602.66 259.467C602.66 258.88 602.056 258.436 600.847 258.133C599.638 257.813 598.074 257.653 596.154 257.653C594.234 257.653 592.66 257.813 591.434 258.133C590.225 258.436 589.62 258.88 589.62 259.467C589.62 260.053 590.225 260.507 591.434 260.827C592.643 261.129 594.216 261.28 596.154 261.28C598.092 261.28 599.656 261.129 600.847 260.827C602.056 260.507 602.66 260.053 602.66 259.467ZM605.807 265.547H586.5V264.267H605.807V265.547ZM604.34 267.84V272.8H602.9V269.12H587.754V267.84H604.34ZM633.158 258H630.198V262.507H628.758V252.427H630.198V256.56H633.158V258ZM624.491 254.853C624.491 257.342 623.54 259.156 621.638 260.293C619.735 261.413 617.024 261.973 613.504 261.973V260.667C616.58 260.649 618.944 260.196 620.598 259.307C622.251 258.4 623.078 256.96 623.078 254.987V254.373H613.504V253.067H624.491V254.853ZM630.411 271.253V272.507H614.384V263.84H630.198V265.067H615.824V267.547H629.931V268.72H615.824V271.253H630.411ZM643.662 252.4C645.208 252.4 646.622 252.569 647.902 252.907C649.199 253.227 650.23 253.716 650.995 254.373C651.759 255.013 652.142 255.804 652.142 256.747C652.142 257.689 651.759 258.498 650.995 259.173C650.23 259.831 649.199 260.329 647.902 260.667C646.622 260.987 645.208 261.147 643.662 261.147C642.115 261.147 640.693 260.987 639.395 260.667C638.115 260.329 637.093 259.831 636.328 259.173C635.564 258.498 635.182 257.689 635.182 256.747C635.182 255.804 635.564 255.013 636.328 254.373C637.093 253.716 638.115 253.227 639.395 252.907C640.693 252.569 642.115 252.4 643.662 252.4ZM643.662 253.68C642.435 253.68 641.288 253.804 640.222 254.053C639.155 254.284 638.293 254.631 637.635 255.093C636.995 255.556 636.675 256.107 636.675 256.747C636.675 257.707 637.35 258.462 638.702 259.013C640.07 259.547 641.724 259.813 643.662 259.813C645.599 259.813 647.244 259.547 648.595 259.013C649.946 258.462 650.622 257.707 650.622 256.747C650.622 256.107 650.302 255.556 649.662 255.093C649.022 254.631 648.168 254.284 647.102 254.053C646.035 253.804 644.888 253.68 643.662 253.68ZM634.008 264.72V263.387H653.315V264.72H634.008ZM652.275 271.173V272.533H635.475V266.827H636.942V271.173H652.275ZM678.426 272.907H676.986V262.747H672.639C672.621 264.738 672.363 266.418 671.866 267.787C671.386 269.138 670.719 270.151 669.866 270.827C669.012 271.502 668.034 271.84 666.932 271.84C665.812 271.84 664.826 271.493 663.972 270.8C663.137 270.107 662.479 269.058 661.999 267.653C661.519 266.249 661.279 264.507 661.279 262.427C661.279 260.347 661.519 258.604 661.999 257.2C662.479 255.796 663.137 254.747 663.972 254.053C664.826 253.36 665.812 253.013 666.932 253.013C668.55 253.013 669.866 253.716 670.879 255.12C671.91 256.524 672.488 258.587 672.612 261.307H676.986V252.427H678.426V272.907ZM666.932 270.427C668.212 270.427 669.234 269.76 669.999 268.427C670.781 267.076 671.172 265.076 671.172 262.427C671.172 259.778 670.781 257.787 669.999 256.453C669.234 255.102 668.212 254.427 666.932 254.427C665.67 254.427 664.648 255.102 663.866 256.453C663.101 257.804 662.719 259.796 662.719 262.427C662.719 265.058 663.101 267.049 663.866 268.4C664.648 269.751 665.67 270.427 666.932 270.427ZM683.036 259.573V252.8H699.356V254.107H684.476V258.267H699.569V259.573H683.036ZM691.889 265.84H699.356V272.533H682.983V265.84H690.449V263.2H681.516V261.893H700.823V263.2H691.889V265.84ZM684.423 267.12V271.253H697.943V267.12H684.423ZM717.267 256.267C716.253 257.564 714.964 258.596 713.4 259.36C711.836 260.124 710.262 260.533 708.68 260.587V259.227C709.978 259.173 711.276 258.844 712.573 258.24C713.889 257.618 715.018 256.764 715.96 255.68C716.92 254.596 717.524 253.36 717.773 251.973L719.187 252.213C719.009 253.209 718.636 254.196 718.067 255.173L726.467 259.52L725.853 260.693L717.267 256.267ZM727.213 264.32H707.907V262.987H716.84V259.493H718.28V262.987H727.213V264.32ZM725.747 266.827V272.8H724.307V268.133H709.16V266.827H725.747ZM747.424 272.907H746.011V252.427H747.424V272.907ZM742.811 252.56V272.56H741.397V262.773H738.224C738.188 265.831 737.797 268.107 737.051 269.6C736.322 271.093 735.237 271.84 733.797 271.84C730.882 271.84 729.424 268.702 729.424 262.427C729.424 256.151 730.882 253.013 733.797 253.013C736.571 253.013 738.046 255.787 738.224 261.333H741.397V252.56H742.811ZM733.797 270.453C734.811 270.453 735.566 269.796 736.064 268.48C736.579 267.147 736.837 265.129 736.837 262.427C736.837 259.724 736.579 257.716 736.064 256.4C735.566 255.067 734.811 254.4 733.797 254.4C731.806 254.4 730.811 257.076 730.811 262.427C730.811 267.778 731.806 270.453 733.797 270.453ZM768.168 272.907H766.728V261.653H761.261V260.24H766.728V252.427H768.168V272.907ZM757.901 253.013C757.865 255.929 757.67 258.533 757.314 260.827L763.634 270.747L762.488 271.627L756.914 262.693C756.31 265.342 755.457 267.431 754.354 268.96C753.252 270.489 751.937 271.351 750.408 271.547V270.053C751.741 269.804 752.852 268.889 753.741 267.307C754.648 265.707 755.314 263.662 755.741 261.173C756.185 258.684 756.417 255.956 756.434 252.987L757.901 253.013ZM776.665 256.48V255.12H782.612V252.187H784.078V255.12H790.078V256.48H776.665ZM794.425 272.907H793.012V252.427H794.425V272.907ZM777.812 262.453C777.812 261.156 778.309 260.107 779.305 259.307C780.301 258.489 781.661 258.08 783.385 258.08C784.523 258.08 785.509 258.267 786.345 258.64C787.198 259.013 787.847 259.529 788.292 260.187C788.736 260.844 788.958 261.6 788.958 262.453C788.958 263.751 788.461 264.8 787.465 265.6C786.469 266.4 785.109 266.8 783.385 266.8C781.661 266.8 780.301 266.4 779.305 265.6C778.309 264.8 777.812 263.751 777.812 262.453ZM787.545 262.453C787.545 261.582 787.189 260.853 786.478 260.267C785.767 259.68 784.736 259.387 783.385 259.387C782.034 259.387 781.003 259.68 780.292 260.267C779.581 260.853 779.225 261.582 779.225 262.453C779.225 263.324 779.581 264.053 780.292 264.64C781.003 265.227 782.034 265.52 783.385 265.52C784.736 265.52 785.767 265.227 786.478 264.64C787.189 264.053 787.545 263.324 787.545 262.453ZM784.052 270.187C787.429 270.187 789.785 269.867 791.118 269.227V270.667C790.496 270.951 789.563 271.173 788.318 271.333C787.092 271.476 785.678 271.547 784.078 271.547H776.532V270.187H784.052ZM814.076 272.907V252.427H815.516V272.907H814.076ZM798.902 271.547V253.307H809.676V271.547H798.902ZM808.236 254.72H800.342V270.133H808.236V254.72ZM831.833 255.973V257.36H819.219V255.973H824.793V252.373H826.259V255.973H831.833ZM836.073 262.56V272.907H834.633V252.427H836.073V261.147H839.033V262.56H836.073ZM825.513 259.387C826.508 259.387 827.406 259.644 828.206 260.16C829.024 260.676 829.664 261.404 830.126 262.347C830.588 263.289 830.819 264.373 830.819 265.6C830.819 266.827 830.588 267.911 830.126 268.853C829.664 269.778 829.024 270.498 828.206 271.013C827.406 271.529 826.508 271.787 825.513 271.787C824.517 271.787 823.619 271.529 822.819 271.013C822.019 270.498 821.388 269.778 820.926 268.853C820.464 267.911 820.233 266.827 820.233 265.6C820.233 264.373 820.464 263.289 820.926 262.347C821.388 261.404 822.019 260.676 822.819 260.16C823.619 259.644 824.517 259.387 825.513 259.387ZM825.513 270.427C826.224 270.427 826.873 270.231 827.459 269.84C828.046 269.431 828.508 268.862 828.846 268.133C829.202 267.404 829.379 266.56 829.379 265.6C829.379 264.64 829.202 263.796 828.846 263.067C828.508 262.32 828.046 261.751 827.459 261.36C826.873 260.951 826.224 260.747 825.513 260.747C824.802 260.747 824.153 260.951 823.566 261.36C822.979 261.751 822.508 262.32 822.153 263.067C821.815 263.796 821.646 264.64 821.646 265.6C821.646 266.56 821.815 267.404 822.153 268.133C822.508 268.862 822.979 269.431 823.566 269.84C824.153 270.231 824.802 270.427 825.513 270.427ZM858.283 272.907H856.87V252.427H858.283V272.907ZM853.51 252.56V272.56H852.097V262.48H848.017C847.554 265.218 846.657 267.404 845.323 269.04C844.008 270.658 842.381 271.467 840.443 271.467V270.053C841.741 270.036 842.879 269.538 843.857 268.56C844.834 267.582 845.581 266.231 846.097 264.507C846.63 262.782 846.897 260.809 846.897 258.587V254.693H840.443V253.307H848.31V258.507C848.31 259.52 848.265 260.373 848.177 261.067H852.097V252.56H853.51ZM886.541 259.2H883.581V267.653H882.141V252.427H883.581V257.76H886.541V259.2ZM867.101 264.16V252.853H868.514V256.907H876.781V252.853H878.194V264.16H867.101ZM876.781 258.24H868.514V262.8H876.781V258.24ZM884.247 271.12V272.507H867.741V266.24H869.181V271.12H884.247ZM904.831 258.827V264.667H903.391V252.427H904.831V257.387H907.658V258.827H904.831ZM890.938 259.973C890.6 261.093 890.12 261.991 889.498 262.667C888.875 263.324 888.075 263.787 887.098 264.053V262.667C888.307 262.222 889.124 261.333 889.551 260C889.995 258.649 890.235 256.782 890.271 254.4H887.684V253.067H893.898V254.4H891.631C891.595 256.018 891.498 257.342 891.338 258.373L894.031 262.453C895.062 261.902 895.791 260.969 896.218 259.653C896.644 258.338 896.875 256.587 896.911 254.4H894.858V253.067H901.124V254.4H898.271C898.235 256.107 898.129 257.458 897.951 258.453L901.444 262.907L900.458 263.813L897.524 260C897.169 261.12 896.671 262.018 896.031 262.693C895.391 263.351 894.573 263.804 893.578 264.053L890.938 259.973ZM904.831 266V272.8H903.364V267.36H888.644V266H904.831ZM924.935 272.907V252.427H926.402V272.907H924.935ZM915.255 253.013C916.393 253.013 917.388 253.36 918.242 254.053C919.113 254.747 919.788 255.796 920.268 257.2C920.766 258.604 921.015 260.347 921.015 262.427C921.015 264.507 920.766 266.249 920.268 267.653C919.788 269.058 919.113 270.107 918.242 270.8C917.388 271.493 916.393 271.84 915.255 271.84C913.513 271.84 912.117 271.049 911.068 269.467C910.019 267.867 909.495 265.52 909.495 262.427C909.495 259.333 910.019 256.996 911.068 255.413C912.117 253.813 913.513 253.013 915.255 253.013ZM915.255 254.427C913.957 254.427 912.908 255.102 912.108 256.453C911.308 257.804 910.908 259.796 910.908 262.427C910.908 265.058 911.308 267.049 912.108 268.4C912.908 269.751 913.957 270.427 915.255 270.427C916.535 270.427 917.566 269.751 918.348 268.4C919.148 267.049 919.548 265.058 919.548 262.427C919.548 259.796 919.148 257.804 918.348 256.453C917.566 255.102 916.535 254.427 915.255 254.427ZM947.652 258.827V260.187H931.145V252.48H932.585V258.827H947.652ZM929.625 264.347V263.013H948.932V264.347H929.625ZM947.892 271.173V272.533H931.092V266.56H932.559V271.173H947.892ZM974.043 263.76H972.603V257.973H968.229V256.64H972.603V252.427H974.043V263.76ZM962.763 258.72C962.14 259.947 961.287 260.942 960.203 261.707C959.118 262.471 957.856 262.969 956.416 263.2V261.813C958.194 261.493 959.598 260.702 960.629 259.44C961.678 258.16 962.265 256.489 962.389 254.427H956.656V253.093H969.109V254.427H963.829C963.776 255.493 963.598 256.498 963.296 257.44L969.723 261.867L968.949 263.04L962.763 258.72ZM974.043 265.093V272.507H957.909V265.093H974.043ZM972.603 271.173V266.427H959.349V271.173H972.603ZM980.093 254.053V257.787H995.187V259.04H978.653V252.8H994.973V254.053H980.093ZM977.133 262.56V261.28H996.44V262.56H977.133ZM979.96 269.147V271.333H995.4V272.533H978.573V268.053H993.613V265.947H978.52V264.773H995.027V269.147H979.96ZM1000.04 272.133C999.699 272.133 999.415 272.018 999.184 271.787C998.953 271.556 998.837 271.271 998.837 270.933C998.837 270.596 998.953 270.311 999.184 270.08C999.415 269.849 999.699 269.733 1000.04 269.733C1000.37 269.733 1000.66 269.849 1000.89 270.08C1001.12 270.311 1001.24 270.596 1001.24 270.933C1001.24 271.271 1001.12 271.556 1000.89 271.787C1000.66 272.018 1000.37 272.133 1000.04 272.133ZM1009.71 255.227V253.973H1017.79V251.6H1019.26V253.973H1027.42V255.227H1009.71ZM1028.22 266.213H1008.91V264.933H1017.85V262.907C1015.59 262.853 1013.81 262.569 1012.51 262.053C1011.22 261.52 1010.57 260.764 1010.57 259.787C1010.57 258.756 1011.29 257.973 1012.73 257.44C1014.17 256.889 1016.11 256.613 1018.57 256.613C1021.02 256.613 1022.96 256.889 1024.38 257.44C1025.82 257.973 1026.54 258.756 1026.54 259.787C1026.54 260.764 1025.89 261.52 1024.59 262.053C1023.3 262.569 1021.53 262.853 1019.29 262.907V264.933H1028.22V266.213ZM1012.03 259.787C1012.03 260.409 1012.65 260.898 1013.87 261.253C1015.1 261.591 1016.67 261.76 1018.57 261.76C1020.47 261.76 1022.03 261.591 1023.26 261.253C1024.49 260.898 1025.1 260.409 1025.1 259.787C1025.1 259.147 1024.49 258.658 1023.26 258.32C1022.05 257.964 1020.49 257.787 1018.57 257.787C1016.65 257.787 1015.07 257.964 1013.85 258.32C1012.64 258.658 1012.03 259.147 1012.03 259.787ZM1027.18 271.227V272.533H1010.38V267.867H1011.85V271.227H1027.18ZM1047.34 262.56V272.907H1045.9V252.427H1047.34V261.147H1050.3V262.56H1047.34ZM1037.61 254.693C1037.57 257.431 1037.36 259.849 1036.97 261.947L1043.58 270.453L1042.43 271.333L1036.57 263.68C1035.96 265.973 1035.12 267.796 1034.06 269.147C1033.01 270.48 1031.77 271.28 1030.33 271.547V270.053C1031.53 269.769 1032.57 268.933 1033.45 267.547C1034.32 266.16 1034.97 264.364 1035.42 262.16C1035.88 259.938 1036.13 257.449 1036.17 254.693H1030.73V253.307H1042.94V254.693H1037.61ZM1069.18 272.907H1067.74V261.653H1062.27V260.24H1067.74V252.427H1069.18V272.907ZM1058.91 253.013C1058.87 255.929 1058.68 258.533 1058.32 260.827L1064.64 270.747L1063.5 271.627L1057.92 262.693C1057.32 265.342 1056.46 267.431 1055.36 268.96C1054.26 270.489 1052.94 271.351 1051.42 271.547V270.053C1052.75 269.804 1053.86 268.889 1054.75 267.307C1055.66 265.707 1056.32 263.662 1056.75 261.173C1057.19 258.684 1057.42 255.956 1057.44 252.987L1058.91 253.013ZM1090.29 258.827V260.187H1073.79V252.48H1075.23V258.827H1090.29ZM1072.27 264.347V263.013H1091.57V264.347H1072.27ZM1090.53 271.173V272.533H1073.73V266.56H1075.2V271.173H1090.53ZM1115.08 267.467V254.693H1099.94V253.28H1116.55V267.467H1115.08ZM1098.66 271.787V270.373H1117.96V271.787H1098.66ZM1137.8 272.907H1136.36V261.893H1131.11V260.48H1136.36V252.427H1137.8V272.907ZM1127.35 254.693C1127.33 257.307 1127.12 259.68 1126.73 261.813L1133.45 270.453L1132.31 271.333L1126.33 263.547C1125.73 265.858 1124.89 267.698 1123.83 269.067C1122.76 270.436 1121.51 271.262 1120.07 271.547V270.053C1121.28 269.769 1122.32 268.933 1123.19 267.547C1124.06 266.16 1124.72 264.364 1125.16 262.16C1125.62 259.938 1125.87 257.449 1125.91 254.693H1120.47V253.307H1132.76V254.693H1127.35ZM1163.47 258.587V264.667H1162.03V252.427H1163.47V257.173H1166.43V258.587H1163.47ZM1152.75 259.2C1152.13 260.516 1151.28 261.573 1150.22 262.373C1149.15 263.173 1147.9 263.689 1146.46 263.92V262.507C1148.27 262.187 1149.69 261.333 1150.72 259.947C1151.77 258.542 1152.33 256.702 1152.4 254.427H1146.7V253.093H1159.12V254.427H1153.84C1153.79 255.796 1153.61 256.951 1153.31 257.893L1159.6 262.587L1158.83 263.76L1152.75 259.2ZM1163.47 266V272.8H1162V267.36H1147.42V266H1163.47ZM1176.93 252.4C1178.48 252.4 1179.9 252.569 1181.18 252.907C1182.47 253.227 1183.5 253.716 1184.27 254.373C1185.03 255.013 1185.42 255.804 1185.42 256.747C1185.42 257.689 1185.03 258.498 1184.27 259.173C1183.5 259.831 1182.47 260.329 1181.18 260.667C1179.9 260.987 1178.48 261.147 1176.93 261.147C1175.39 261.147 1173.97 260.987 1172.67 260.667C1171.39 260.329 1170.37 259.831 1169.6 259.173C1168.84 258.498 1168.45 257.689 1168.45 256.747C1168.45 255.804 1168.84 255.013 1169.6 254.373C1170.37 253.716 1171.39 253.227 1172.67 252.907C1173.97 252.569 1175.39 252.4 1176.93 252.4ZM1176.93 253.68C1175.71 253.68 1174.56 253.804 1173.5 254.053C1172.43 254.284 1171.57 254.631 1170.91 255.093C1170.27 255.556 1169.95 256.107 1169.95 256.747C1169.95 257.707 1170.62 258.462 1171.98 259.013C1173.34 259.547 1175 259.813 1176.93 259.813C1178.87 259.813 1180.52 259.547 1181.87 259.013C1183.22 258.462 1183.9 257.707 1183.9 256.747C1183.9 256.107 1183.58 255.556 1182.93 255.093C1182.3 254.631 1181.44 254.284 1180.38 254.053C1179.31 253.804 1178.16 253.68 1176.93 253.68ZM1167.28 264.72V263.387H1186.59V264.72H1167.28ZM1185.55 271.173V272.533H1168.75V266.827H1170.21V271.173H1185.55ZM1211.7 263.76H1210.26V257.973H1205.89V256.64H1210.26V252.427H1211.7V263.76ZM1200.42 258.72C1199.8 259.947 1198.94 260.942 1197.86 261.707C1196.77 262.471 1195.51 262.969 1194.07 263.2V261.813C1195.85 261.493 1197.25 260.702 1198.29 259.44C1199.33 258.16 1199.92 256.489 1200.05 254.427H1194.31V253.093H1206.77V254.427H1201.49C1201.43 255.493 1201.25 256.498 1200.95 257.44L1207.38 261.867L1206.61 263.04L1200.42 258.72ZM1211.7 265.093V272.507H1195.57V265.093H1211.7ZM1210.26 271.173V266.427H1197.01V271.173H1210.26ZM1233.19 272.907H1231.78V252.427H1233.19V272.907ZM1228.58 252.56V272.56H1227.16V262.773H1223.99C1223.95 265.831 1223.56 268.107 1222.82 269.6C1222.09 271.093 1221 271.84 1219.56 271.84C1216.65 271.84 1215.19 268.702 1215.19 262.427C1215.19 256.151 1216.65 253.013 1219.56 253.013C1222.34 253.013 1223.81 255.787 1223.99 261.333H1227.16V252.56H1228.58ZM1219.56 270.453C1220.58 270.453 1221.33 269.796 1221.83 268.48C1222.35 267.147 1222.6 265.129 1222.6 262.427C1222.6 259.724 1222.35 257.716 1221.83 256.4C1221.33 255.067 1220.58 254.4 1219.56 254.4C1217.57 254.4 1216.58 257.076 1216.58 262.427C1216.58 267.778 1217.57 270.453 1219.56 270.453ZM1242.7 259.573V252.613H1244.14V254.827H1257.55V252.613H1258.99V259.573H1242.7ZM1257.55 256.053H1244.14V258.347H1257.55V256.053ZM1251.55 265.04H1259.07V269.307H1244.01V271.387H1259.45V272.533H1242.62V268.213H1257.66V266.187H1242.57V265.04H1250.11V262.747H1241.18V261.52H1260.49V262.747H1251.55V265.04ZM1279.66 262.373V272.907H1278.22V252.427H1279.66V260.96H1282.56V262.373H1279.66ZM1263.07 254.72V253.333H1274V266.453H1272.56V254.72H1263.07ZM1269.28 270.133C1272.64 270.133 1274.99 269.831 1276.32 269.227V270.667C1274.87 271.253 1272.53 271.547 1269.31 271.547H1262.3V270.133H1266.19V260.8H1267.63V270.133H1269.28ZM1296.48 255.973V257.36H1283.87V255.973H1289.44V252.373H1290.91V255.973H1296.48ZM1300.72 262.56V272.907H1299.28V252.427H1300.72V261.147H1303.68V262.56H1300.72ZM1290.16 259.387C1291.16 259.387 1292.05 259.644 1292.85 260.16C1293.67 260.676 1294.31 261.404 1294.77 262.347C1295.24 263.289 1295.47 264.373 1295.47 265.6C1295.47 266.827 1295.24 267.911 1294.77 268.853C1294.31 269.778 1293.67 270.498 1292.85 271.013C1292.05 271.529 1291.16 271.787 1290.16 271.787C1289.17 271.787 1288.27 271.529 1287.47 271.013C1286.67 270.498 1286.04 269.778 1285.57 268.853C1285.11 267.911 1284.88 266.827 1284.88 265.6C1284.88 264.373 1285.11 263.289 1285.57 262.347C1286.04 261.404 1286.67 260.676 1287.47 260.16C1288.27 259.644 1289.17 259.387 1290.16 259.387ZM1290.16 270.427C1290.87 270.427 1291.52 270.231 1292.11 269.84C1292.69 269.431 1293.16 268.862 1293.49 268.133C1293.85 267.404 1294.03 266.56 1294.03 265.6C1294.03 264.64 1293.85 263.796 1293.49 263.067C1293.16 262.32 1292.69 261.751 1292.11 261.36C1291.52 260.951 1290.87 260.747 1290.16 260.747C1289.45 260.747 1288.8 260.951 1288.21 261.36C1287.63 261.751 1287.16 262.32 1286.8 263.067C1286.46 263.796 1286.29 264.64 1286.29 265.6C1286.29 266.56 1286.46 267.404 1286.8 268.133C1287.16 268.862 1287.63 269.431 1288.21 269.84C1288.8 270.231 1289.45 270.427 1290.16 270.427ZM1322.4 272.907H1320.96V252.427H1322.4V272.907ZM1312.43 254.693C1312.39 257.449 1312.17 259.858 1311.76 261.92L1318.48 270.453L1317.33 271.333L1311.36 263.627C1310.74 265.92 1309.88 267.751 1308.8 269.12C1307.73 270.471 1306.48 271.28 1305.04 271.547V270.053C1306.27 269.769 1307.31 268.933 1308.18 267.547C1309.07 266.16 1309.75 264.356 1310.21 262.133C1310.69 259.911 1310.95 257.431 1310.99 254.693H1305.44V253.307H1317.87V254.693H1312.43ZM1345.92 259.147H1342.96V267.653H1341.52V252.427H1342.96V257.707H1345.92V259.147ZM1326.48 263.813V253.067H1337.57V263.813H1326.48ZM1327.92 254.4V262.453H1336.16V254.4H1327.92ZM1343.62 271.12V272.507H1327.12V266.133H1328.56V271.12H1343.62ZM1348.55 269.733C1348.91 269.733 1349.19 269.849 1349.41 270.08C1349.64 270.311 1349.75 270.596 1349.75 270.933C1349.75 271.2 1349.67 271.618 1349.51 272.187L1348.45 275.867H1347.35L1348.23 272.08C1347.97 272.009 1347.75 271.876 1347.59 271.68C1347.43 271.467 1347.35 271.218 1347.35 270.933C1347.35 270.578 1347.47 270.293 1347.7 270.08C1347.93 269.849 1348.21 269.733 1348.55 269.733ZM657.367 300.907H655.927V289.653H650.46V288.24H655.927V280.427H657.367V300.907ZM647.1 281.013C647.065 283.929 646.869 286.533 646.514 288.827L652.834 298.747L651.687 299.627L646.114 290.693C645.509 293.342 644.656 295.431 643.554 296.96C642.451 298.489 641.136 299.351 639.607 299.547V298.053C640.94 297.804 642.051 296.889 642.94 295.307C643.847 293.707 644.514 291.662 644.94 289.173C645.385 286.684 645.616 283.956 645.634 280.987L647.1 281.013ZM679.764 299.787H660.457V298.4H669.311V293.707H661.897V286.827H676.991V282.667H661.897V281.307H678.431V288.16H663.311V292.32H678.724V293.707H670.777V298.4H679.764V299.787ZM684.535 285.013V287.067H699.708V288.187H683.121V283.947H698.028V281.92H683.121V280.8H699.415V285.013H684.535ZM681.575 291.36V290.133H700.881V291.36H681.575ZM684.401 297.387V299.413H699.841V300.533H683.015V296.347H698.055V294.427H682.961V293.28H699.468V297.387H684.401ZM724.392 294.48V280.427H725.832V294.48H724.392ZM714.312 291.92C713.121 291.92 712.072 291.68 711.165 291.2C710.259 290.702 709.556 290.036 709.059 289.2C708.579 288.347 708.339 287.387 708.339 286.32C708.339 285.253 708.579 284.302 709.059 283.467C709.556 282.613 710.259 281.947 711.165 281.467C712.072 280.969 713.121 280.72 714.312 280.72C715.521 280.72 716.579 280.969 717.485 281.467C718.41 281.947 719.112 282.613 719.592 283.467C720.09 284.302 720.339 285.253 720.339 286.32C720.339 287.387 720.09 288.347 719.592 289.2C719.112 290.036 718.41 290.702 717.485 291.2C716.579 291.68 715.521 291.92 714.312 291.92ZM714.312 282.027C712.979 282.027 711.885 282.418 711.032 283.2C710.196 283.982 709.779 285.022 709.779 286.32C709.779 287.618 710.196 288.658 711.032 289.44C711.885 290.222 712.979 290.613 714.312 290.613C715.663 290.613 716.756 290.222 717.592 289.44C718.445 288.658 718.872 287.618 718.872 286.32C718.872 285.022 718.445 283.982 717.592 283.2C716.756 282.418 715.663 282.027 714.312 282.027ZM717.752 296.427C716.845 297.671 715.672 298.658 714.232 299.387C712.81 300.116 711.325 300.489 709.779 300.507V299.067C711.005 299.049 712.187 298.782 713.325 298.267C714.463 297.733 715.441 296.987 716.259 296.027C717.076 295.067 717.619 293.947 717.885 292.667L719.325 292.933C719.165 293.787 718.899 294.569 718.525 295.28L726.739 299.493L726.072 300.773L717.752 296.427ZM747.109 286.827V288.187H730.602V280.48H732.042V286.827H747.109ZM729.082 292.347V291.013H748.389V292.347H729.082ZM747.349 299.173V300.533H730.549V294.56H732.016V299.173H747.349ZM764.833 284.4C763.802 285.751 762.495 286.836 760.913 287.653C759.349 288.471 757.793 288.898 756.246 288.933V287.573C757.526 287.52 758.815 287.164 760.113 286.507C761.429 285.831 762.558 284.924 763.5 283.787C764.46 282.631 765.073 281.36 765.34 279.973L766.753 280.213C766.575 281.262 766.193 282.276 765.606 283.253L774.06 287.92L773.446 289.093L764.833 284.4ZM774.833 292.507H765.846V296.48H764.406V292.507H755.526V291.173H774.833V292.507ZM773.74 299.2V300.533H756.94V294.827H758.406V299.2H773.74ZM796.857 287.147H793.897V295.653H792.457V280.427H793.897V285.707H796.857V287.147ZM788.19 283.573C788.19 286.4 787.204 288.56 785.23 290.053C783.275 291.529 780.599 292.267 777.204 292.267V290.88C780.19 290.88 782.528 290.267 784.217 289.04C785.906 287.796 786.75 286.009 786.75 283.68V282.427H777.204V281.067H788.19V283.573ZM794.564 299.12V300.507H778.057V294.4H779.497V299.12H794.564ZM812.634 291.413C810.928 291.413 809.434 291.209 808.154 290.8C806.874 290.373 805.879 289.76 805.168 288.96C804.474 288.142 804.128 287.182 804.128 286.08C804.128 284.978 804.474 284.027 805.168 283.227C805.879 282.409 806.874 281.796 808.154 281.387C809.434 280.96 810.928 280.747 812.634 280.747C814.341 280.747 815.834 280.96 817.114 281.387C818.394 281.796 819.381 282.409 820.074 283.227C820.785 284.027 821.141 284.978 821.141 286.08C821.141 287.182 820.785 288.142 820.074 288.96C819.381 289.76 818.394 290.373 817.114 290.8C815.834 291.209 814.341 291.413 812.634 291.413ZM812.634 282.133C810.519 282.133 808.821 282.48 807.541 283.173C806.261 283.867 805.621 284.836 805.621 286.08C805.621 287.307 806.261 288.276 807.541 288.987C808.821 289.68 810.519 290.027 812.634 290.027C814.75 290.027 816.448 289.68 817.728 288.987C819.008 288.276 819.648 287.307 819.648 286.08C819.648 284.836 819.008 283.867 817.728 283.173C816.448 282.48 814.75 282.133 812.634 282.133ZM813.354 295.067V301.387H811.888V295.067H802.981V293.653H822.288V295.067H813.354ZM840.525 300.907V280.427H841.965V300.907H840.525ZM826.791 290.907V298.16H833.298C834.223 298.16 835.147 298.071 836.071 297.893C836.996 297.716 837.751 297.476 838.338 297.173V298.56C837.751 298.88 836.996 299.129 836.071 299.307C835.147 299.467 834.214 299.547 833.271 299.547H825.325V289.547H834.711V282.693H825.298V281.307H836.125V290.907H826.791ZM863.242 286.827V288.187H846.735V280.48H848.175V286.827H863.242ZM845.215 292.347V291.013H864.522V292.347H845.215ZM863.482 299.173V300.533H846.682V294.56H848.149V299.173H863.482ZM884.673 283.973V285.36H872.059V283.973H877.633V280.373H879.099V283.973H884.673ZM888.913 290.56V300.907H887.473V280.427H888.913V289.147H891.873V290.56H888.913ZM878.353 287.387C879.348 287.387 880.246 287.644 881.046 288.16C881.864 288.676 882.504 289.404 882.966 290.347C883.428 291.289 883.659 292.373 883.659 293.6C883.659 294.827 883.428 295.911 882.966 296.853C882.504 297.778 881.864 298.498 881.046 299.013C880.246 299.529 879.348 299.787 878.353 299.787C877.357 299.787 876.459 299.529 875.659 299.013C874.859 298.498 874.228 297.778 873.766 296.853C873.304 295.911 873.073 294.827 873.073 293.6C873.073 292.373 873.304 291.289 873.766 290.347C874.228 289.404 874.859 288.676 875.659 288.16C876.459 287.644 877.357 287.387 878.353 287.387ZM878.353 298.427C879.064 298.427 879.713 298.231 880.299 297.84C880.886 297.431 881.348 296.862 881.686 296.133C882.041 295.404 882.219 294.56 882.219 293.6C882.219 292.64 882.041 291.796 881.686 291.067C881.348 290.32 880.886 289.751 880.299 289.36C879.713 288.951 879.064 288.747 878.353 288.747C877.641 288.747 876.993 288.951 876.406 289.36C875.819 289.751 875.348 290.32 874.993 291.067C874.655 291.796 874.486 292.64 874.486 293.6C874.486 294.56 874.655 295.404 874.993 296.133C875.348 296.862 875.819 297.431 876.406 297.84C876.993 298.231 877.641 298.427 878.353 298.427ZM910.03 290.56V300.907H908.59V280.427H910.03V289.147H912.99V290.56H910.03ZM901.47 298.133C902.412 298.133 903.336 298.044 904.243 297.867C905.168 297.689 905.923 297.449 906.51 297.147V298.56C905.941 298.88 905.194 299.129 904.27 299.307C903.345 299.467 902.403 299.547 901.443 299.547H893.79V281.173H895.23V298.133H901.47ZM930.347 300.907V280.427H931.76V300.907H930.347ZM920.48 281.013C921.618 281.013 922.631 281.289 923.52 281.84C924.427 282.373 925.129 283.12 925.627 284.08C926.142 285.04 926.4 286.133 926.4 287.36C926.4 288.569 926.142 289.653 925.627 290.613C925.129 291.573 924.427 292.329 923.52 292.88C922.631 293.413 921.618 293.68 920.48 293.68C919.342 293.68 918.32 293.413 917.414 292.88C916.525 292.329 915.822 291.573 915.307 290.613C914.809 289.653 914.56 288.569 914.56 287.36C914.56 286.133 914.809 285.04 915.307 284.08C915.822 283.12 916.525 282.373 917.414 281.84C918.32 281.289 919.342 281.013 920.48 281.013ZM920.48 282.373C919.591 282.373 918.809 282.596 918.134 283.04C917.458 283.467 916.925 284.062 916.534 284.827C916.16 285.573 915.974 286.418 915.974 287.36C915.974 288.284 916.16 289.129 916.534 289.893C916.925 290.64 917.458 291.227 918.134 291.653C918.809 292.08 919.591 292.293 920.48 292.293C921.369 292.293 922.151 292.08 922.827 291.653C923.52 291.227 924.054 290.64 924.427 289.893C924.8 289.129 924.987 288.284 924.987 287.36C924.987 286.418 924.8 285.573 924.427 284.827C924.054 284.062 923.52 283.467 922.827 283.04C922.151 282.596 921.369 282.373 920.48 282.373ZM928.427 298.507C927.751 298.844 926.791 299.102 925.547 299.28C924.302 299.458 922.862 299.547 921.227 299.547H913.84V298.133H921.36C922.942 298.133 924.347 298.044 925.574 297.867C926.8 297.689 927.751 297.431 928.427 297.093V298.507ZM958.258 300.907H956.818V290.56H951.058C950.418 293.351 949.244 295.538 947.538 297.12C945.831 298.684 943.706 299.467 941.164 299.467V298.027C943.013 298.027 944.604 297.538 945.938 296.56C947.271 295.564 948.293 294.169 949.004 292.373C949.715 290.56 950.071 288.436 950.071 286V282.693H941.164V281.307H951.511V285.92C951.511 287.058 951.431 288.133 951.271 289.147H956.818V280.427H958.258V300.907ZM979.748 300.907H978.335V290.453H974.361V300.56H972.975V280.56H974.361V289.067H978.335V280.427H979.748V300.907ZM966.761 298.187C967.579 298.187 968.379 298.116 969.161 297.973C969.961 297.813 970.673 297.609 971.295 297.36V298.72C970.708 298.969 969.988 299.173 969.135 299.333C968.299 299.476 967.437 299.547 966.548 299.547H962.095V281.307H970.468V282.667H963.481V298.187H966.761ZM982.465 283.973V282.667H988.305V280.053H989.772V282.667H995.639V283.973H982.465ZM1002.73 287.893H999.772V295.813H998.332V280.427H999.772V286.453H1002.73V287.893ZM989.052 293.787C987.399 293.787 986.039 293.413 984.972 292.667C983.923 291.902 983.399 290.871 983.399 289.573C983.399 288.293 983.923 287.28 984.972 286.533C986.021 285.787 987.381 285.413 989.052 285.413C990.705 285.413 992.056 285.787 993.105 286.533C994.172 287.28 994.705 288.293 994.705 289.573C994.705 290.871 994.172 291.902 993.105 292.667C992.056 293.413 990.705 293.787 989.052 293.787ZM989.052 286.667C987.754 286.667 986.714 286.942 985.932 287.493C985.167 288.027 984.785 288.72 984.785 289.573C984.785 290.444 985.167 291.156 985.932 291.707C986.714 292.258 987.754 292.533 989.052 292.533C990.35 292.533 991.381 292.258 992.145 291.707C992.91 291.156 993.292 290.444 993.292 289.573C993.292 288.702 992.91 288 992.145 287.467C991.381 286.933 990.35 286.667 989.052 286.667ZM1000.44 299.147V300.507H983.932V295.253H985.372V299.147H1000.44ZM1018.51 291.413C1016.8 291.413 1015.31 291.209 1014.03 290.8C1012.75 290.373 1011.75 289.76 1011.04 288.96C1010.35 288.142 1010 287.182 1010 286.08C1010 284.978 1010.35 284.027 1011.04 283.227C1011.75 282.409 1012.75 281.796 1014.03 281.387C1015.31 280.96 1016.8 280.747 1018.51 280.747C1020.22 280.747 1021.71 280.96 1022.99 281.387C1024.27 281.796 1025.26 282.409 1025.95 283.227C1026.66 284.027 1027.02 284.978 1027.02 286.08C1027.02 287.182 1026.66 288.142 1025.95 288.96C1025.26 289.76 1024.27 290.373 1022.99 290.8C1021.71 291.209 1020.22 291.413 1018.51 291.413ZM1018.51 282.133C1016.39 282.133 1014.7 282.48 1013.42 283.173C1012.14 283.867 1011.5 284.836 1011.5 286.08C1011.5 287.307 1012.14 288.276 1013.42 288.987C1014.7 289.68 1016.39 290.027 1018.51 290.027C1020.62 290.027 1022.32 289.68 1023.6 288.987C1024.88 288.276 1025.52 287.307 1025.52 286.08C1025.52 284.836 1024.88 283.867 1023.6 283.173C1022.32 282.48 1020.62 282.133 1018.51 282.133ZM1019.23 295.067V301.387H1017.76V295.067H1008.86V293.653H1028.16V295.067H1019.23ZM1039.07 286.373C1038.18 287.707 1036.99 288.773 1035.49 289.573C1034.02 290.373 1032.38 290.871 1030.59 291.067V289.653C1032.81 289.404 1034.69 288.649 1036.24 287.387C1037.79 286.107 1038.73 284.471 1039.07 282.48H1031.12V281.093H1048.13V282.48H1040.59C1040.46 283.458 1040.2 284.364 1039.79 285.2L1048.67 289.68L1048 290.96L1039.07 286.373ZM1040.32 295.067V301.387H1038.85V295.067H1029.97V293.653H1049.28V295.067H1040.32ZM1068.4 290.56V300.907H1066.96V280.427H1068.4V289.147H1071.36V290.56H1068.4ZM1062.26 281.307V285.92C1062.26 288.622 1061.85 290.996 1061.01 293.04C1060.19 295.084 1059 296.667 1057.44 297.787C1055.89 298.907 1054.04 299.467 1051.89 299.467V298.027C1053.74 298.027 1055.33 297.538 1056.66 296.56C1058.01 295.564 1059.05 294.169 1059.76 292.373C1060.47 290.56 1060.82 288.436 1060.82 286V282.693H1051.89V281.307H1062.26ZM1095.37 300.907H1093.96V280.427H1095.37V300.907ZM1085 298.133C1088.36 298.133 1090.72 297.831 1092.07 297.227V298.667C1090.57 299.253 1088.23 299.547 1085.03 299.547H1077.48V298.133H1083.48V292.16H1078.76V281.333H1089.93V282.72H1080.2V290.773H1090.17V292.16H1084.89V298.133H1085ZM1099.88 282.693V281.28H1116.49V294.8H1115.02V282.693H1099.88ZM1117.9 299.787H1098.6V298.373H1106.3V288.613H1107.77V298.373H1117.9V299.787ZM1141.42 300.907V280.427H1142.88V300.907H1141.42ZM1131.74 281.013C1132.87 281.013 1133.87 281.36 1134.72 282.053C1135.59 282.747 1136.27 283.796 1136.75 285.2C1137.25 286.604 1137.5 288.347 1137.5 290.427C1137.5 292.507 1137.25 294.249 1136.75 295.653C1136.27 297.058 1135.59 298.107 1134.72 298.8C1133.87 299.493 1132.87 299.84 1131.74 299.84C1129.99 299.84 1128.6 299.049 1127.55 297.467C1126.5 295.867 1125.98 293.52 1125.98 290.427C1125.98 287.333 1126.5 284.996 1127.55 283.413C1128.6 281.813 1129.99 281.013 1131.74 281.013ZM1131.74 282.427C1130.44 282.427 1129.39 283.102 1128.59 284.453C1127.79 285.804 1127.39 287.796 1127.39 290.427C1127.39 293.058 1127.79 295.049 1128.59 296.4C1129.39 297.751 1130.44 298.427 1131.74 298.427C1133.02 298.427 1134.05 297.751 1134.83 296.4C1135.63 295.049 1136.03 293.058 1136.03 290.427C1136.03 287.796 1135.63 285.804 1134.83 284.453C1134.05 283.102 1133.02 282.427 1131.74 282.427ZM1163.41 292.8H1166.37V294.187H1163.41V300.907H1161.97V280.427H1163.41V285.867H1166.37V287.253H1163.41V292.8ZM1152.53 281.013C1154.27 281.013 1155.65 281.813 1156.67 283.413C1157.7 284.996 1158.21 287.333 1158.21 290.427C1158.21 293.52 1157.7 295.867 1156.67 297.467C1155.65 299.049 1154.27 299.84 1152.53 299.84C1151.41 299.84 1150.43 299.493 1149.57 298.8C1148.72 298.107 1148.05 297.058 1147.57 295.653C1147.09 294.249 1146.85 292.507 1146.85 290.427C1146.85 288.347 1147.09 286.604 1147.57 285.2C1148.05 283.796 1148.72 282.747 1149.57 282.053C1150.43 281.36 1151.41 281.013 1152.53 281.013ZM1152.53 298.427C1153.81 298.427 1154.83 297.751 1155.6 296.4C1156.38 295.049 1156.77 293.058 1156.77 290.427C1156.77 287.796 1156.38 285.804 1155.6 284.453C1154.83 283.102 1153.81 282.427 1152.53 282.427C1151.25 282.427 1150.22 283.102 1149.44 284.453C1148.67 285.804 1148.29 287.796 1148.29 290.427C1148.29 293.058 1148.67 295.049 1149.44 296.4C1150.22 297.751 1151.25 298.427 1152.53 298.427ZM1183.65 300.907V280.427H1185.09V300.907H1183.65ZM1178.82 285.92C1178.82 288.622 1178.4 290.996 1177.54 293.04C1176.69 295.084 1175.46 296.667 1173.86 297.787C1172.26 298.907 1170.39 299.467 1168.24 299.467V298.027C1170.09 298.027 1171.69 297.538 1173.06 296.56C1174.45 295.582 1175.51 294.187 1176.24 292.373C1176.98 290.56 1177.36 288.436 1177.36 286V282.693H1168.24V281.307H1178.82V285.92ZM1205.65 290.56V300.907H1204.21V280.427H1205.65V289.147H1208.61V290.56H1205.65ZM1199.51 281.307V285.92C1199.51 288.622 1199.1 290.996 1198.26 293.04C1197.44 295.084 1196.25 296.667 1194.69 297.787C1193.14 298.907 1191.29 299.467 1189.14 299.467V298.027C1190.99 298.027 1192.58 297.538 1193.91 296.56C1195.26 295.564 1196.3 294.169 1197.01 292.373C1197.72 290.56 1198.07 288.436 1198.07 286V282.693H1189.14V281.307H1199.51ZM1232.62 292.4H1231.21V280.427H1232.62V292.4ZM1229.32 291.04C1228.7 291.307 1227.76 291.511 1226.52 291.653C1225.27 291.796 1223.82 291.867 1222.17 291.867H1214.73V290.587H1220.78V287.787H1216.01V280.933H1227.18V282.213H1217.42V286.507H1227.4V287.787H1222.22V290.587C1225.69 290.587 1228.06 290.302 1229.32 289.733V291.04ZM1232.62 293.227V300.507H1216.57V293.227H1218.01V295.6H1231.21V293.227H1232.62ZM1231.21 296.827H1218.01V299.28H1231.21V296.827ZM1252.25 300.933V280.427H1253.71V300.907L1252.25 300.933ZM1245.05 298.133C1245.97 298.133 1246.89 298.044 1247.79 297.867C1248.72 297.671 1249.48 297.422 1250.09 297.12V298.533C1249.5 298.853 1248.75 299.102 1247.82 299.28C1246.91 299.458 1245.99 299.547 1245.05 299.547H1237.1V281.173H1238.57V298.133H1245.05ZM1274.27 290.56V300.907H1272.83V280.427H1274.27V289.147H1277.23V290.56H1274.27ZM1265.71 298.16C1266.62 298.16 1267.53 298.071 1268.46 297.893C1269.4 297.698 1270.17 297.449 1270.75 297.147V298.56C1270.17 298.862 1269.4 299.102 1268.46 299.28C1267.53 299.458 1266.6 299.547 1265.66 299.547H1258.03V281.307H1269.23V282.693H1259.47V298.16H1265.71ZM1279.87 300.133C1279.53 300.133 1279.25 300.018 1279.02 299.787C1278.78 299.556 1278.67 299.271 1278.67 298.933C1278.67 298.596 1278.78 298.311 1279.02 298.08C1279.25 297.849 1279.53 297.733 1279.87 297.733C1280.21 297.733 1280.49 297.849 1280.72 298.08C1280.95 298.311 1281.07 298.596 1281.07 298.933C1281.07 299.271 1280.95 299.556 1280.72 299.787C1280.49 300.018 1280.21 300.133 1279.87 300.133ZM508.045 356.907H506.632V346.453H502.658V356.56H501.272V336.56H502.658V345.067H506.632V336.427H508.045V356.907ZM495.058 354.187C495.876 354.187 496.676 354.116 497.458 353.973C498.258 353.813 498.969 353.609 499.592 353.36V354.72C499.005 354.969 498.285 355.173 497.432 355.333C496.596 355.476 495.734 355.547 494.845 355.547H490.392V337.307H498.765V338.667H491.778V354.187H495.058ZM510.762 339.973V338.667H516.602V336.053H518.069V338.667H523.935V339.973H510.762ZM531.029 343.893H528.069V351.813H526.629V336.427H528.069V342.453H531.029V343.893ZM517.349 349.787C515.695 349.787 514.335 349.413 513.269 348.667C512.22 347.902 511.695 346.871 511.695 345.573C511.695 344.293 512.22 343.28 513.269 342.533C514.318 341.787 515.678 341.413 517.349 341.413C519.002 341.413 520.353 341.787 521.402 342.533C522.469 343.28 523.002 344.293 523.002 345.573C523.002 346.871 522.469 347.902 521.402 348.667C520.353 349.413 519.002 349.787 517.349 349.787ZM517.349 342.667C516.051 342.667 515.011 342.942 514.229 343.493C513.464 344.027 513.082 344.72 513.082 345.573C513.082 346.444 513.464 347.156 514.229 347.707C515.011 348.258 516.051 348.533 517.349 348.533C518.647 348.533 519.678 348.258 520.442 347.707C521.207 347.156 521.589 346.444 521.589 345.573C521.589 344.702 521.207 344 520.442 343.467C519.678 342.933 518.647 342.667 517.349 342.667ZM528.735 355.147V356.507H512.229V351.253H513.669V355.147H528.735ZM538.493 344.347C537.888 345.644 537.053 346.693 535.986 347.493C534.919 348.293 533.684 348.809 532.279 349.04V347.653C533.986 347.333 535.346 346.533 536.359 345.253C537.39 343.956 537.968 342.24 538.093 340.107H532.466V338.747H538.093V336.053H539.533V338.747H544.999V340.107H539.533C539.479 341.227 539.319 342.196 539.053 343.013L545.239 347.76L544.439 348.933L538.493 344.347ZM548.466 336.427H549.906V351.733H548.466V343.973H544.146V342.587H548.466V336.427ZM550.413 356.507H533.773V351.04H535.213V355.12H550.413V356.507ZM558.677 341.227C558.659 342.951 558.561 344.578 558.383 346.107L563.21 354.613L562.063 355.36L558.037 348.16C557.219 352.533 555.583 354.996 553.13 355.547V354.107C554.499 353.716 555.521 352.391 556.197 350.133C556.872 347.876 557.228 344.907 557.263 341.227H553.317V339.84H557.263V336.4H558.677V339.84H562.597V341.227H558.677ZM571.397 356.907H569.983V336.427H571.397V356.907ZM566.277 336.56V356.56H564.89V346.4H561.85V344.987H564.89V336.56H566.277ZM574.22 339.68V338.427H579.98V336.053H581.447V338.427H586.754V339.68H574.22ZM592.14 348.08H590.727V345.867H587.234V344.56H590.727V341.707H587.234V340.4H590.727V336.427H592.14V348.08ZM586.247 344.613C586.247 345.698 585.723 346.56 584.674 347.2C583.643 347.84 582.336 348.16 580.754 348.16C579.154 348.16 577.829 347.84 576.78 347.2C575.731 346.56 575.207 345.698 575.207 344.613C575.207 343.529 575.731 342.667 576.78 342.027C577.829 341.387 579.154 341.067 580.754 341.067C582.336 341.067 583.643 341.387 584.674 342.027C585.723 342.667 586.247 343.529 586.247 344.613ZM576.647 344.613C576.647 345.271 577.02 345.831 577.767 346.293C578.514 346.738 579.509 346.96 580.754 346.96C581.98 346.96 582.967 346.738 583.714 346.293C584.46 345.831 584.834 345.271 584.834 344.613C584.834 343.938 584.46 343.378 583.714 342.933C582.967 342.489 581.98 342.267 580.754 342.267C579.509 342.267 578.514 342.489 577.767 342.933C577.02 343.378 576.647 343.938 576.647 344.613ZM592.06 349.067V356.507H576.007V349.067H577.394V351.413H590.647V349.067H592.06ZM590.647 352.613H577.394V355.253H590.647V352.613ZM595.364 340.48V339.12H601.311V336.187H602.778V339.12H608.778V340.48H595.364ZM613.124 356.907H611.711V336.427H613.124V356.907ZM602.804 354.187C604.458 354.187 605.862 354.116 607.018 353.973C608.173 353.813 609.106 353.564 609.818 353.227V354.667C609.195 354.951 608.262 355.173 607.018 355.333C605.791 355.476 604.378 355.547 602.778 355.547H595.231V354.187H601.364V350.453C599.835 350.347 598.644 349.92 597.791 349.173C596.938 348.427 596.511 347.467 596.511 346.293C596.511 345.013 597 343.991 597.978 343.227C598.973 342.444 600.342 342.053 602.084 342.053C603.809 342.053 605.169 342.444 606.164 343.227C607.16 343.991 607.658 345.013 607.658 346.293C607.658 347.467 607.231 348.427 606.378 349.173C605.542 349.92 604.351 350.347 602.804 350.453V354.187ZM597.924 346.293C597.924 347.129 598.28 347.822 598.991 348.373C599.702 348.924 600.733 349.2 602.084 349.2C603.435 349.2 604.466 348.924 605.178 348.373C605.889 347.822 606.244 347.129 606.244 346.293C606.244 345.44 605.889 344.738 605.178 344.187C604.466 343.636 603.435 343.36 602.084 343.36C600.733 343.36 599.702 343.636 598.991 344.187C598.28 344.738 597.924 345.44 597.924 346.293ZM633.655 346.56V356.907H632.215V336.427H633.655V345.147H636.615V346.56H633.655ZM627.521 337.307V341.92C627.521 344.622 627.104 346.996 626.268 349.04C625.45 351.084 624.259 352.667 622.695 353.787C621.148 354.907 619.299 355.467 617.148 355.467V354.027C618.997 354.027 620.588 353.538 621.921 352.56C623.273 351.564 624.304 350.169 625.015 348.373C625.726 346.56 626.081 344.436 626.081 342V338.693H617.148V337.307H627.521ZM651.832 342.373C650.943 343.707 649.752 344.773 648.259 345.573C646.783 346.373 645.148 346.871 643.352 347.067V345.653C645.574 345.404 647.459 344.649 649.005 343.387C650.552 342.107 651.494 340.471 651.832 338.48H643.885V337.093H660.899V338.48H653.352C653.228 339.458 652.961 340.364 652.552 341.2L661.432 345.68L660.765 346.96L651.832 342.373ZM653.085 351.067V357.387H651.619V351.067H642.739V349.653H662.045V351.067H653.085ZM670.443 344.747C669.856 345.956 669.038 346.951 667.989 347.733C666.94 348.516 665.696 349.031 664.256 349.28V347.867C666.016 347.547 667.385 346.72 668.363 345.387C669.358 344.053 669.909 342.453 670.016 340.587H664.656V339.2H670.016V336.16H671.483V339.2H676.789V340.587H671.483C671.429 341.653 671.26 342.622 670.976 343.493L677.349 348.053L676.576 349.253L670.443 344.747ZM681.749 356.907H680.336V336.427H681.749V356.907ZM671.376 354.16C674.754 354.16 677.109 353.849 678.443 353.227V354.667C676.949 355.253 674.603 355.547 671.403 355.547H663.856V354.16H669.776V349.067H671.216V354.16H671.376ZM698.04 339.973V341.36H685.426V339.973H691V336.373H692.466V339.973H698.04ZM702.28 346.56V356.907H700.84V336.427H702.28V345.147H705.24V346.56H702.28ZM691.72 343.387C692.715 343.387 693.613 343.644 694.413 344.16C695.231 344.676 695.871 345.404 696.333 346.347C696.795 347.289 697.026 348.373 697.026 349.6C697.026 350.827 696.795 351.911 696.333 352.853C695.871 353.778 695.231 354.498 694.413 355.013C693.613 355.529 692.715 355.787 691.72 355.787C690.724 355.787 689.826 355.529 689.026 355.013C688.226 354.498 687.595 353.778 687.133 352.853C686.671 351.911 686.44 350.827 686.44 349.6C686.44 348.373 686.671 347.289 687.133 346.347C687.595 345.404 688.226 344.676 689.026 344.16C689.826 343.644 690.724 343.387 691.72 343.387ZM691.72 354.427C692.431 354.427 693.08 354.231 693.666 353.84C694.253 353.431 694.715 352.862 695.053 352.133C695.409 351.404 695.586 350.56 695.586 349.6C695.586 348.64 695.409 347.796 695.053 347.067C694.715 346.32 694.253 345.751 693.666 345.36C693.08 344.951 692.431 344.747 691.72 344.747C691.009 344.747 690.36 344.951 689.773 345.36C689.186 345.751 688.715 346.32 688.36 347.067C688.022 347.796 687.853 348.64 687.853 349.6C687.853 350.56 688.022 351.404 688.36 352.133C688.715 352.862 689.186 353.431 689.773 353.84C690.36 354.231 691.009 354.427 691.72 354.427ZM724.117 342.827V344.187H707.61V336.48H709.05V342.827H724.117ZM706.09 348.347V347.013H725.397V348.347H706.09ZM724.357 355.173V356.533H707.557V350.56H709.024V355.173H724.357ZM748.908 356.907V336.427H750.374V356.907H748.908ZM739.228 337.013C740.365 337.013 741.361 337.36 742.214 338.053C743.085 338.747 743.761 339.796 744.241 341.2C744.739 342.604 744.988 344.347 744.988 346.427C744.988 348.507 744.739 350.249 744.241 351.653C743.761 353.058 743.085 354.107 742.214 354.8C741.361 355.493 740.365 355.84 739.228 355.84C737.485 355.84 736.09 355.049 735.041 353.467C733.992 351.867 733.468 349.52 733.468 346.427C733.468 343.333 733.992 340.996 735.041 339.413C736.09 337.813 737.485 337.013 739.228 337.013ZM739.228 338.427C737.93 338.427 736.881 339.102 736.081 340.453C735.281 341.804 734.881 343.796 734.881 346.427C734.881 349.058 735.281 351.049 736.081 352.4C736.881 353.751 737.93 354.427 739.228 354.427C740.508 354.427 741.539 353.751 742.321 352.4C743.121 351.049 743.521 349.058 743.521 346.427C743.521 343.796 743.121 341.804 742.321 340.453C741.539 339.102 740.508 338.427 739.228 338.427ZM754.558 348.16V336.853H755.945V340.853H764.238V336.853H765.651V341.76H770.185V336.427H771.625V351.653H770.185V343.173H765.651V348.16H754.558ZM764.238 342.187H755.945V346.8H764.238V342.187ZM772.131 356.507H755.491V350.24H756.931V355.12H772.131V356.507ZM782.495 346.667L792.389 350.613V351.947L780.975 347.333V345.973L792.389 341.333V342.693L782.495 346.667ZM808.026 344.293V342.96H811.813V339.733H808.026V338.4H811.813V336.427H813.226V346.747H811.813V344.293H808.026ZM796.16 345.787V336.853H797.546V339.76H805.573V336.853H806.986V345.787H796.16ZM805.573 341.04H797.546V344.507H805.573V341.04ZM813.813 356.507H797.173V351.707H811.813V349.307H797.12V348.08H813.226V352.853H798.613V355.307H813.813V356.507ZM833.623 346.56V356.907H832.183V336.427H833.623V345.147H836.583V346.56H833.623ZM823.89 338.693C823.855 341.431 823.641 343.849 823.25 345.947L829.863 354.453L828.717 355.333L822.85 347.68C822.246 349.973 821.41 351.796 820.343 353.147C819.295 354.48 818.05 355.28 816.61 355.547V354.053C817.819 353.769 818.859 352.933 819.73 351.547C820.601 350.16 821.259 348.364 821.703 346.16C822.166 343.938 822.415 341.449 822.45 338.693H817.01V337.307H829.223V338.693H823.89ZM853.861 356.907V336.427H855.301V356.907H853.861ZM840.127 346.907V354.16H846.634C847.558 354.16 848.483 354.071 849.407 353.893C850.332 353.716 851.087 353.476 851.674 353.173V354.56C851.087 354.88 850.332 355.129 849.407 355.307C848.483 355.467 847.55 355.547 846.607 355.547H838.661V345.547H848.047V338.693H838.634V337.307H849.461V346.907H840.127ZM860.338 341.973C860 341.973 859.716 341.858 859.485 341.627C859.253 341.378 859.138 341.084 859.138 340.747C859.138 340.409 859.253 340.124 859.485 339.893C859.716 339.662 860 339.547 860.338 339.547C860.676 339.547 860.96 339.662 861.191 339.893C861.422 340.124 861.538 340.409 861.538 340.747C861.538 341.084 861.422 341.378 861.191 341.627C860.96 341.858 860.676 341.973 860.338 341.973ZM860.338 353.787C860 353.787 859.716 353.671 859.485 353.44C859.253 353.191 859.138 352.898 859.138 352.56C859.138 352.222 859.253 351.938 859.485 351.707C859.716 351.476 860 351.36 860.338 351.36C860.676 351.36 860.96 351.476 861.191 351.707C861.422 351.938 861.538 352.222 861.538 352.56C861.538 352.898 861.422 353.191 861.191 353.44C860.96 353.671 860.676 353.787 860.338 353.787ZM887.242 347.76H885.802V341.973H881.429V340.64H885.802V336.427H887.242V347.76ZM875.962 342.72C875.34 343.947 874.486 344.942 873.402 345.707C872.317 346.471 871.055 346.969 869.615 347.2V345.813C871.393 345.493 872.797 344.702 873.829 343.44C874.877 342.16 875.464 340.489 875.589 338.427H869.855V337.093H882.309V338.427H877.029C876.975 339.493 876.797 340.498 876.495 341.44L882.922 345.867L882.149 347.04L875.962 342.72ZM887.242 349.093V356.507H871.109V349.093H887.242ZM885.802 355.173V350.427H872.549V355.173H885.802ZM899.986 336.48C902.457 336.48 904.466 336.773 906.012 337.36C907.577 337.947 908.359 338.862 908.359 340.107C908.359 341.351 907.577 342.267 906.012 342.853C904.448 343.44 902.439 343.733 899.986 343.733C897.515 343.733 895.488 343.44 893.906 342.853C892.341 342.267 891.559 341.351 891.559 340.107C891.559 338.862 892.341 337.947 893.906 337.36C895.488 336.773 897.515 336.48 899.986 336.48ZM899.986 337.707C897.995 337.707 896.341 337.902 895.026 338.293C893.71 338.684 893.052 339.289 893.052 340.107C893.052 340.924 893.701 341.529 894.999 341.92C896.315 342.293 897.977 342.48 899.986 342.48C901.977 342.48 903.621 342.293 904.919 341.92C906.235 341.529 906.892 340.924 906.892 340.107C906.892 339.289 906.235 338.684 904.919 338.293C903.621 337.902 901.977 337.707 899.986 337.707ZM890.332 346.64V345.36H909.639V346.64H890.332ZM893.186 353.173V355.333H908.599V356.533H891.772V352.08H906.786V350H891.719V348.8H908.226V353.173H893.186ZM924.403 346V347.307H917.416V346H924.403ZM948.618 350.48V336.427H950.058V350.48H948.618ZM938.538 347.92C937.347 347.92 936.298 347.68 935.392 347.2C934.485 346.702 933.783 346.036 933.285 345.2C932.805 344.347 932.565 343.387 932.565 342.32C932.565 341.253 932.805 340.302 933.285 339.467C933.783 338.613 934.485 337.947 935.392 337.467C936.298 336.969 937.347 336.72 938.538 336.72C939.747 336.72 940.805 336.969 941.712 337.467C942.636 337.947 943.338 338.613 943.818 339.467C944.316 340.302 944.565 341.253 944.565 342.32C944.565 343.387 944.316 344.347 943.818 345.2C943.338 346.036 942.636 346.702 941.712 347.2C940.805 347.68 939.747 347.92 938.538 347.92ZM938.538 338.027C937.205 338.027 936.112 338.418 935.258 339.2C934.423 339.982 934.005 341.022 934.005 342.32C934.005 343.618 934.423 344.658 935.258 345.44C936.112 346.222 937.205 346.613 938.538 346.613C939.89 346.613 940.983 346.222 941.818 345.44C942.672 344.658 943.098 343.618 943.098 342.32C943.098 341.022 942.672 339.982 941.818 339.2C940.983 338.418 939.89 338.027 938.538 338.027ZM941.978 352.427C941.072 353.671 939.898 354.658 938.458 355.387C937.036 356.116 935.552 356.489 934.005 356.507V355.067C935.232 355.049 936.414 354.782 937.552 354.267C938.69 353.733 939.667 352.987 940.485 352.027C941.303 351.067 941.845 349.947 942.112 348.667L943.552 348.933C943.392 349.787 943.125 350.569 942.752 351.28L950.965 355.493L950.298 356.773L941.978 352.427ZM970.616 346.56V356.907H969.176V336.427H970.616V345.147H973.576V346.56H970.616ZM962.056 354.16C962.962 354.16 963.878 354.071 964.802 353.893C965.745 353.698 966.509 353.449 967.096 353.147V354.56C966.509 354.862 965.745 355.102 964.802 355.28C963.878 355.458 962.945 355.547 962.002 355.547H954.376V337.307H965.576V338.693H955.816V354.16H962.056ZM986.826 347.333L975.413 351.947V350.613L985.333 346.667L975.413 342.693V341.333L986.826 345.973V347.333ZM1011.5 336.427H1012.94V351.68H1011.5V342.88H1007.12V341.52H1011.5V336.427ZM1001.68 343.467C1001.08 344.907 1000.23 346.062 999.124 346.933C998.039 347.804 996.768 348.356 995.311 348.587V347.173C997.124 346.853 998.555 345.938 999.604 344.427C1000.65 342.898 1001.21 340.898 1001.28 338.427H995.551V337.093H1008V338.427H1002.72C1002.67 339.884 1002.49 341.12 1002.19 342.133L1008.43 347.28L1007.6 348.427L1001.68 343.467ZM1013.44 356.507H996.804V350.32H998.244V355.12H1013.44V356.507ZM1033.89 356.907H1032.45V336.427H1033.89V356.907ZM1024.37 337.013C1024.34 340.267 1024.06 343.129 1023.55 345.6L1030.13 354.613L1028.99 355.493L1023.12 347.36C1022.46 349.796 1021.57 351.724 1020.45 353.147C1019.33 354.569 1018.01 355.369 1016.48 355.547V354.08C1017.85 353.831 1019.01 352.907 1019.97 351.307C1020.93 349.707 1021.65 347.662 1022.13 345.173C1022.63 342.667 1022.89 339.938 1022.91 336.987L1024.37 337.013ZM1055.17 342.827V344.187H1038.66V336.48H1040.1V342.827H1055.17ZM1037.14 348.347V347.013H1056.45V348.347H1037.14ZM1055.41 355.173V356.533H1038.61V350.56H1040.08V355.173H1055.41ZM1080.84 342.533V347.92H1079.4V336.427H1080.84V341.093H1083.8V342.533H1080.84ZM1064.36 346.747V336.853H1065.78V340.267H1074.04V336.853H1075.46V346.747H1064.36ZM1074.04 341.547H1065.78V345.44H1074.04V341.547ZM1080.84 349.253V356.507H1065V349.253H1080.84ZM1079.38 355.173V350.56H1066.44V355.173H1079.38ZM1097.72 339.973V341.36H1085.11V339.973H1090.68V336.373H1092.15V339.973H1097.72ZM1101.96 346.56V356.907H1100.52V336.427H1101.96V345.147H1104.92V346.56H1101.96ZM1091.4 343.387C1092.39 343.387 1093.29 343.644 1094.09 344.16C1094.91 344.676 1095.55 345.404 1096.01 346.347C1096.47 347.289 1096.71 348.373 1096.71 349.6C1096.71 350.827 1096.47 351.911 1096.01 352.853C1095.55 353.778 1094.91 354.498 1094.09 355.013C1093.29 355.529 1092.39 355.787 1091.4 355.787C1090.4 355.787 1089.51 355.529 1088.71 355.013C1087.91 354.498 1087.27 353.778 1086.81 352.853C1086.35 351.911 1086.12 350.827 1086.12 349.6C1086.12 348.373 1086.35 347.289 1086.81 346.347C1087.27 345.404 1087.91 344.676 1088.71 344.16C1089.51 343.644 1090.4 343.387 1091.4 343.387ZM1091.4 354.427C1092.11 354.427 1092.76 354.231 1093.35 353.84C1093.93 353.431 1094.39 352.862 1094.73 352.133C1095.09 351.404 1095.27 350.56 1095.27 349.6C1095.27 348.64 1095.09 347.796 1094.73 347.067C1094.39 346.32 1093.93 345.751 1093.35 345.36C1092.76 344.951 1092.11 344.747 1091.4 344.747C1090.69 344.747 1090.04 344.951 1089.45 345.36C1088.87 345.751 1088.39 346.32 1088.04 347.067C1087.7 347.796 1087.53 348.64 1087.53 349.6C1087.53 350.56 1087.7 351.404 1088.04 352.133C1088.39 352.862 1088.87 353.431 1089.45 353.84C1090.04 354.231 1090.69 354.427 1091.4 354.427ZM1123.82 341.707V342.987H1107.29V336.48H1108.73V341.707H1123.82ZM1105.77 346.48V345.2H1125.08V346.48H1105.77ZM1108.6 353.093V355.333H1124.04V356.533H1107.21V352H1122.25V349.893H1107.16V348.72H1123.66V353.093H1108.6ZM1143.39 356.907V336.427H1144.81V356.907H1143.39ZM1133.53 337.013C1134.66 337.013 1135.68 337.289 1136.57 337.84C1137.47 338.373 1138.18 339.12 1138.67 340.08C1139.19 341.04 1139.45 342.133 1139.45 343.36C1139.45 344.569 1139.19 345.653 1138.67 346.613C1138.18 347.573 1137.47 348.329 1136.57 348.88C1135.68 349.413 1134.66 349.68 1133.53 349.68C1132.39 349.68 1131.37 349.413 1130.46 348.88C1129.57 348.329 1128.87 347.573 1128.35 346.613C1127.86 345.653 1127.61 344.569 1127.61 343.36C1127.61 342.133 1127.86 341.04 1128.35 340.08C1128.87 339.12 1129.57 338.373 1130.46 337.84C1131.37 337.289 1132.39 337.013 1133.53 337.013ZM1133.53 338.373C1132.64 338.373 1131.86 338.596 1131.18 339.04C1130.5 339.467 1129.97 340.062 1129.58 340.827C1129.21 341.573 1129.02 342.418 1129.02 343.36C1129.02 344.284 1129.21 345.129 1129.58 345.893C1129.97 346.64 1130.5 347.227 1131.18 347.653C1131.86 348.08 1132.64 348.293 1133.53 348.293C1134.42 348.293 1135.2 348.08 1135.87 347.653C1136.57 347.227 1137.1 346.64 1137.47 345.893C1137.85 345.129 1138.03 344.284 1138.03 343.36C1138.03 342.418 1137.85 341.573 1137.47 340.827C1137.1 340.062 1136.57 339.467 1135.87 339.04C1135.2 338.596 1134.42 338.373 1133.53 338.373ZM1141.47 354.507C1140.8 354.844 1139.84 355.102 1138.59 355.28C1137.35 355.458 1135.91 355.547 1134.27 355.547H1126.89V354.133H1134.41C1135.99 354.133 1137.39 354.044 1138.62 353.867C1139.85 353.689 1140.8 353.431 1141.47 353.093V354.507ZM1166.1 344.293V342.96H1169.89V339.733H1166.1V338.4H1169.89V336.427H1171.3V346.747H1169.89V344.293H1166.1ZM1154.24 345.787V336.853H1155.62V339.76H1163.65V336.853H1165.06V345.787H1154.24ZM1163.65 341.04H1155.62V344.507H1163.65V341.04ZM1171.89 356.507H1155.25V351.707H1169.89V349.307H1155.2V348.08H1171.3V352.853H1156.69V355.307H1171.89V356.507ZM1177.35 338.053V341.787H1192.45V343.04H1175.91V336.8H1192.23V338.053H1177.35ZM1174.39 346.56V345.28H1193.7V346.56H1174.39ZM1177.22 353.147V355.333H1192.66V356.533H1175.83V352.053H1190.87V349.947H1175.78V348.773H1192.29V353.147H1177.22ZM1211.94 356.907V336.427H1213.41V356.907H1211.94ZM1202.26 337.013C1203.4 337.013 1204.39 337.36 1205.25 338.053C1206.12 338.747 1206.79 339.796 1207.27 341.2C1207.77 342.604 1208.02 344.347 1208.02 346.427C1208.02 348.507 1207.77 350.249 1207.27 351.653C1206.79 353.058 1206.12 354.107 1205.25 354.8C1204.39 355.493 1203.4 355.84 1202.26 355.84C1200.52 355.84 1199.12 355.049 1198.07 353.467C1197.02 351.867 1196.5 349.52 1196.5 346.427C1196.5 343.333 1197.02 340.996 1198.07 339.413C1199.12 337.813 1200.52 337.013 1202.26 337.013ZM1202.26 338.427C1200.96 338.427 1199.91 339.102 1199.11 340.453C1198.31 341.804 1197.91 343.796 1197.91 346.427C1197.91 349.058 1198.31 351.049 1199.11 352.4C1199.91 353.751 1200.96 354.427 1202.26 354.427C1203.54 354.427 1204.57 353.751 1205.35 352.4C1206.15 351.049 1206.55 349.058 1206.55 346.427C1206.55 343.796 1206.15 341.804 1205.35 340.453C1204.57 339.102 1203.54 338.427 1202.26 338.427ZM1241.21 355.787H1221.9V354.373H1230.81V348.613H1223.32V337.307H1239.8V348.613H1232.25V354.373H1241.21V355.787ZM1238.36 347.2V338.72H1224.73V347.2H1238.36ZM1261.05 356.907H1259.63V350.8H1255.79L1255.9 349.387H1259.63V343.387H1255.9L1255.79 341.947H1259.63V336.427H1261.05V356.907ZM1249.53 337.013C1251.25 337.013 1252.62 337.813 1253.63 339.413C1254.65 340.996 1255.15 343.333 1255.15 346.427C1255.15 349.52 1254.65 351.867 1253.63 353.467C1252.62 355.049 1251.25 355.84 1249.53 355.84C1247.8 355.84 1246.43 355.049 1245.42 353.467C1244.41 351.867 1243.9 349.52 1243.9 346.427C1243.9 343.333 1244.41 340.996 1245.42 339.413C1246.43 337.813 1247.8 337.013 1249.53 337.013ZM1249.53 354.427C1250.79 354.427 1251.79 353.76 1252.54 352.427C1253.3 351.076 1253.69 349.076 1253.69 346.427C1253.69 343.778 1253.3 341.787 1252.54 340.453C1251.79 339.102 1250.79 338.427 1249.53 338.427C1248.26 338.427 1247.25 339.102 1246.49 340.453C1245.72 341.787 1245.34 343.778 1245.34 346.427C1245.34 349.076 1245.72 351.076 1246.49 352.427C1247.25 353.76 1248.26 354.427 1249.53 354.427ZM1282.24 344.293V342.96H1286.02V339.733H1282.24V338.4H1286.02V336.427H1287.44V346.747H1286.02V344.293H1282.24ZM1270.37 345.787V336.853H1271.76V339.76H1279.78V336.853H1281.2V345.787H1270.37ZM1279.78 341.04H1271.76V344.507H1279.78V341.04ZM1288.02 356.507H1271.38V351.707H1286.02V349.307H1271.33V348.08H1287.44V352.853H1272.82V355.307H1288.02V356.507ZM1307.83 346.56V356.907H1306.39V336.427H1307.83V345.147H1310.79V346.56H1307.83ZM1298.1 338.693C1298.07 341.431 1297.85 343.849 1297.46 345.947L1304.07 354.453L1302.93 355.333L1297.06 347.68C1296.46 349.973 1295.62 351.796 1294.55 353.147C1293.51 354.48 1292.26 355.28 1290.82 355.547V354.053C1292.03 353.769 1293.07 352.933 1293.94 351.547C1294.81 350.16 1295.47 348.364 1295.91 346.16C1296.38 343.938 1296.63 341.449 1296.66 338.693H1291.22V337.307H1303.43V338.693H1298.1ZM1328.07 356.907V336.427H1329.51V356.907H1328.07ZM1314.34 346.907V354.16H1320.84C1321.77 354.16 1322.69 354.071 1323.62 353.893C1324.54 353.716 1325.3 353.476 1325.88 353.173V354.56C1325.3 354.88 1324.54 355.129 1323.62 355.307C1322.69 355.467 1321.76 355.547 1320.82 355.547H1312.87V345.547H1322.26V338.693H1312.84V337.307H1323.67V346.907H1314.34ZM1335.72 341.013V343.067H1350.9V344.187H1334.31V339.947H1349.22V337.92H1334.31V336.8H1350.6V341.013H1335.72ZM1332.76 347.36V346.133H1352.07V347.36H1332.76ZM1335.59 353.387V355.413H1351.03V356.533H1334.2V352.347H1349.24V350.427H1334.15V349.28H1350.66V353.387H1335.59ZM1375.58 356.907V336.427H1377.05V356.907H1375.58ZM1365.9 337.013C1367.04 337.013 1368.03 337.36 1368.89 338.053C1369.76 338.747 1370.43 339.796 1370.91 341.2C1371.41 342.604 1371.66 344.347 1371.66 346.427C1371.66 348.507 1371.41 350.249 1370.91 351.653C1370.43 353.058 1369.76 354.107 1368.89 354.8C1368.03 355.493 1367.04 355.84 1365.9 355.84C1364.16 355.84 1362.76 355.049 1361.71 353.467C1360.66 351.867 1360.14 349.52 1360.14 346.427C1360.14 343.333 1360.66 340.996 1361.71 339.413C1362.76 337.813 1364.16 337.013 1365.9 337.013ZM1365.9 338.427C1364.6 338.427 1363.55 339.102 1362.75 340.453C1361.95 341.804 1361.55 343.796 1361.55 346.427C1361.55 349.058 1361.95 351.049 1362.75 352.4C1363.55 353.751 1364.6 354.427 1365.9 354.427C1367.18 354.427 1368.21 353.751 1368.99 352.4C1369.79 351.049 1370.19 349.058 1370.19 346.427C1370.19 343.796 1369.79 341.804 1368.99 340.453C1368.21 339.102 1367.18 338.427 1365.9 338.427ZM1381.76 338.56V337.227H1398.16V343.067H1383.2V346.32H1398.48V347.653H1381.76V341.787H1396.72V338.56H1381.76ZM1390.64 352.053V357.387H1389.2V352.053H1380.27V350.667H1399.58V352.053H1390.64ZM1402.91 344.16V336.8H1419.23V338.107H1404.35V342.88H1419.44V344.16H1402.91ZM1420.69 348.053H1401.39V346.747H1420.69V348.053ZM1412.32 349.813C1412.16 350.596 1411.88 351.333 1411.47 352.027L1419.92 355.44L1419.39 356.747L1410.67 353.12C1409.72 354.204 1408.51 355.04 1407.01 355.627C1405.52 356.213 1403.98 356.507 1402.4 356.507V355.12C1403.7 355.12 1404.95 354.898 1406.16 354.453C1407.37 354.009 1408.39 353.369 1409.23 352.533C1410.08 351.698 1410.63 350.72 1410.88 349.6L1412.32 349.813ZM1424.29 353.733C1424.65 353.733 1424.93 353.849 1425.14 354.08C1425.38 354.311 1425.49 354.596 1425.49 354.933C1425.49 355.2 1425.41 355.618 1425.25 356.187L1424.18 359.867H1423.09L1423.97 356.08C1423.7 356.009 1423.49 355.876 1423.33 355.68C1423.17 355.467 1423.09 355.218 1423.09 354.933C1423.09 354.578 1423.21 354.293 1423.44 354.08C1423.67 353.849 1423.95 353.733 1424.29 353.733ZM540.397 374.56V384.907H538.957V364.427H540.397V373.147H543.357V374.56H540.397ZM531.117 365.013C531.081 368.373 530.824 371.271 530.344 373.707L536.744 382.613L535.597 383.493L529.89 375.467C529.25 377.867 528.379 379.769 527.277 381.173C526.175 382.578 524.868 383.369 523.357 383.547V382.08C524.726 381.831 525.881 380.907 526.824 379.307C527.766 377.707 528.468 375.662 528.93 373.173C529.392 370.684 529.632 367.956 529.65 364.987L531.117 365.013ZM561.514 370.773V376.427H560.074V364.427H561.514V369.333H564.474V370.773H561.514ZM554.741 366.32H544.981V365.067H556.154V370.88H546.474V374.24H551.407C552.954 374.24 554.332 374.151 555.541 373.973C556.767 373.796 557.719 373.547 558.394 373.227V374.507C557.736 374.827 556.785 375.076 555.541 375.253C554.314 375.431 552.901 375.52 551.301 375.52H545.034V369.653H554.741V366.32ZM561.514 377.76V384.507H545.674V377.76H561.514ZM560.074 383.2V379.067H547.114V383.2H560.074ZM582.685 374.373V384.907H581.245V364.427H582.685V372.96H585.591V374.373H582.685ZM566.098 366.72V365.333H577.031V378.453H575.591V366.72H566.098ZM572.311 382.133C575.671 382.133 578.018 381.831 579.351 381.227V382.667C577.894 383.253 575.556 383.547 572.338 383.547H565.325V382.133H569.218V372.8H570.658V382.133H572.311ZM609.022 374.56V384.907H607.582V364.427H609.022V373.147H611.982V374.56H609.022ZM599.742 365.013C599.706 368.373 599.449 371.271 598.969 373.707L605.369 382.613L604.222 383.493L598.515 375.467C597.875 377.867 597.004 379.769 595.902 381.173C594.8 382.578 593.493 383.369 591.982 383.547V382.08C593.351 381.831 594.506 380.907 595.449 379.307C596.391 377.707 597.093 375.662 597.555 373.173C598.017 370.684 598.257 367.956 598.275 364.987L599.742 365.013ZM630.139 370.773V376.427H628.699V364.427H630.139V369.333H633.099V370.773H630.139ZM623.366 366.32H613.606V365.067H624.779V370.88H615.099V374.24H620.032C621.579 374.24 622.957 374.151 624.166 373.973C625.392 373.796 626.344 373.547 627.019 373.227V374.507C626.361 374.827 625.41 375.076 624.166 375.253C622.939 375.431 621.526 375.52 619.926 375.52H613.659V369.653H623.366V366.32ZM630.139 377.76V384.507H614.299V377.76H630.139ZM628.699 383.2V379.067H615.739V383.2H628.699ZM635.736 381.733C636.092 381.733 636.376 381.849 636.59 382.08C636.821 382.311 636.936 382.596 636.936 382.933C636.936 383.2 636.856 383.618 636.696 384.187L635.63 387.867H634.536L635.416 384.08C635.15 384.009 634.936 383.876 634.776 383.68C634.616 383.467 634.536 383.218 634.536 382.933C634.536 382.578 634.652 382.293 634.883 382.08C635.114 381.849 635.399 381.733 635.736 381.733ZM663.014 384.907H661.627V364.427H663.014V384.907ZM658.507 364.56V384.56H657.147V378.533H653.44C652.889 382.071 651.52 383.84 649.334 383.84C646.454 383.84 645.014 380.702 645.014 374.427C645.014 368.151 646.454 365.013 649.334 365.013C651.378 365.013 652.703 366.516 653.307 369.52H657.147V364.56H658.507ZM649.334 382.453C650.347 382.453 651.103 381.796 651.6 380.48C652.098 379.164 652.347 377.147 652.347 374.427C652.347 371.707 652.098 369.689 651.6 368.373C651.103 367.058 650.347 366.4 649.334 366.4C648.338 366.4 647.6 367.058 647.12 368.373C646.64 369.689 646.4 371.707 646.4 374.427C646.4 377.147 646.64 379.164 647.12 380.48C647.6 381.796 648.338 382.453 649.334 382.453ZM657.147 370.907H653.494C653.636 371.813 653.707 372.987 653.707 374.427C653.707 375.493 653.671 376.409 653.6 377.173H657.147V370.907ZM675.198 367.653C674.166 368.791 672.851 369.707 671.251 370.4C669.651 371.076 668.069 371.431 666.504 371.467V370.133C667.784 370.098 669.073 369.813 670.371 369.28C671.686 368.747 672.815 368.018 673.758 367.093C674.718 366.169 675.331 365.129 675.598 363.973L677.011 364.24C676.815 365.093 676.486 365.876 676.024 366.587L684.291 370.373L683.758 371.547L675.198 367.653ZM676.104 376.8H683.624V381.173H668.584V383.333H683.998V384.533H667.171V380.08H682.184V378H667.118V376.8H674.664V374.453H665.731V373.227H685.038V374.453H676.104V376.8ZM704.208 374.373V384.907H702.768V364.427H704.208V372.96H707.115V374.373H704.208ZM687.621 366.72V365.333H698.555V378.453H697.115V366.72H687.621ZM693.835 382.133C697.195 382.133 699.541 381.831 700.875 381.227V382.667C699.417 383.253 697.079 383.547 693.861 383.547H686.848V382.133H690.741V372.8H692.181V382.133H693.835ZM729.665 384.907V364.427H731.105V384.907H729.665ZM724.839 369.92C724.839 372.622 724.412 374.996 723.559 377.04C722.705 379.084 721.479 380.667 719.879 381.787C718.279 382.907 716.403 383.467 714.252 383.467V382.027C716.101 382.027 717.71 381.538 719.079 380.56C720.465 379.582 721.523 378.187 722.252 376.373C722.999 374.56 723.372 372.436 723.372 370V366.693H714.252V365.307H724.839V369.92ZM743.823 367.653C742.791 368.791 741.476 369.707 739.876 370.4C738.276 371.076 736.694 371.431 735.129 371.467V370.133C736.409 370.098 737.698 369.813 738.996 369.28C740.311 368.747 741.44 368.018 742.383 367.093C743.343 366.169 743.956 365.129 744.223 363.973L745.636 364.24C745.44 365.093 745.111 365.876 744.649 366.587L752.916 370.373L752.383 371.547L743.823 367.653ZM744.729 376.8H752.249V381.173H737.209V383.333H752.623V384.533H735.796V380.08H750.809V378H735.743V376.8H743.289V374.453H734.356V373.227H753.663V374.453H744.729V376.8ZM757.26 381.733C757.615 381.733 757.9 381.849 758.113 382.08C758.344 382.311 758.46 382.596 758.46 382.933C758.46 383.2 758.38 383.618 758.22 384.187L757.153 387.867H756.06L756.94 384.08C756.673 384.009 756.46 383.876 756.3 383.68C756.14 383.467 756.06 383.218 756.06 382.933C756.06 382.578 756.175 382.293 756.406 382.08C756.638 381.849 756.922 381.733 757.26 381.733ZM782.564 379.467V366.693H767.417V365.28H784.03V379.467H782.564ZM766.137 383.787V382.373H785.444V383.787H766.137ZM803.681 384.907V364.427H805.121V384.907H803.681ZM789.948 374.907V382.16H796.454C797.379 382.16 798.303 382.071 799.228 381.893C800.152 381.716 800.908 381.476 801.494 381.173V382.56C800.908 382.88 800.152 383.129 799.228 383.307C798.303 383.467 797.37 383.547 796.428 383.547H788.481V373.547H797.868V366.693H788.454V365.307H799.281V374.907H789.948ZM809.652 366.693V365.28H826.265V378.8H824.798V366.693H809.652ZM827.678 383.787H808.372V382.373H816.078V372.613H817.545V382.373H827.678V383.787ZM855.029 370.453H852.069V375.76H850.629V364.427H852.069V369.013H855.029V370.453ZM848.949 373.387C848.291 373.707 847.34 373.956 846.095 374.133C844.851 374.311 843.438 374.4 841.855 374.4H835.589V365.067H847.429V366.4H837.029V373.067H841.962C843.527 373.067 844.913 372.978 846.122 372.8C847.331 372.622 848.273 372.364 848.949 372.027V373.387ZM844.282 376.613C846.718 376.613 848.673 376.951 850.149 377.627C851.642 378.302 852.389 379.333 852.389 380.72C852.389 382.107 851.642 383.138 850.149 383.813C848.673 384.471 846.718 384.8 844.282 384.8C841.847 384.8 839.882 384.471 838.389 383.813C836.913 383.138 836.175 382.107 836.175 380.72C836.175 379.333 836.913 378.302 838.389 377.627C839.882 376.951 841.847 376.613 844.282 376.613ZM844.282 383.467C846.22 383.467 847.802 383.236 849.029 382.773C850.273 382.293 850.895 381.609 850.895 380.72C850.895 379.813 850.273 379.129 849.029 378.667C847.802 378.187 846.22 377.947 844.282 377.947C842.344 377.947 840.762 378.187 839.535 378.667C838.309 379.129 837.695 379.813 837.695 380.72C837.695 381.609 838.309 382.293 839.535 382.773C840.762 383.236 842.344 383.467 844.282 383.467ZM872.306 379.653V364.427H873.746V379.653H872.306ZM862.599 371.2C861.906 372.587 861.008 373.733 859.906 374.64C858.822 375.547 857.586 376.133 856.199 376.4V374.96C857.497 374.676 858.626 374.036 859.586 373.04C860.546 372.044 861.284 370.818 861.799 369.36C862.315 367.884 862.582 366.32 862.599 364.667L864.013 364.747C864.013 366.631 863.737 368.338 863.186 369.867L869.746 375.093L868.839 376.24L862.599 371.2ZM874.386 384.507H857.666V378.32H859.106V383.12H874.386V384.507ZM894.357 374.373V384.907H892.917V364.427H894.357V372.96H897.263V374.373H894.357ZM877.77 366.72V365.333H888.703V378.453H887.263V366.72H877.77ZM883.983 382.133C887.343 382.133 889.69 381.831 891.023 381.227V382.667C889.565 383.253 887.228 383.547 884.01 383.547H876.997V382.133H880.89V372.8H882.33V382.133H883.983ZM913.04 375.413C911.334 375.413 909.84 375.209 908.56 374.8C907.28 374.373 906.285 373.76 905.574 372.96C904.88 372.142 904.534 371.182 904.534 370.08C904.534 368.978 904.88 368.027 905.574 367.227C906.285 366.409 907.28 365.796 908.56 365.387C909.84 364.96 911.334 364.747 913.04 364.747C914.747 364.747 916.24 364.96 917.52 365.387C918.8 365.796 919.787 366.409 920.48 367.227C921.192 368.027 921.547 368.978 921.547 370.08C921.547 371.182 921.192 372.142 920.48 372.96C919.787 373.76 918.8 374.373 917.52 374.8C916.24 375.209 914.747 375.413 913.04 375.413ZM913.04 366.133C910.925 366.133 909.227 366.48 907.947 367.173C906.667 367.867 906.027 368.836 906.027 370.08C906.027 371.307 906.667 372.276 907.947 372.987C909.227 373.68 910.925 374.027 913.04 374.027C915.156 374.027 916.854 373.68 918.134 372.987C919.414 372.276 920.054 371.307 920.054 370.08C920.054 368.836 919.414 367.867 918.134 367.173C916.854 366.48 915.156 366.133 913.04 366.133ZM913.76 379.067V385.387H912.294V379.067H903.387V377.653H922.694V379.067H913.76ZM940.931 384.907V364.427H942.371V384.907H940.931ZM927.198 374.907V382.16H933.704C934.629 382.16 935.553 382.071 936.478 381.893C937.402 381.716 938.158 381.476 938.744 381.173V382.56C938.158 382.88 937.402 383.129 936.478 383.307C935.553 383.467 934.62 383.547 933.678 383.547H925.731V373.547H935.118V366.693H925.704V365.307H936.531V374.907H927.198ZM962.128 384.907V364.427H963.542V384.907H962.128ZM952.262 365.013C953.399 365.013 954.413 365.289 955.302 365.84C956.208 366.373 956.91 367.12 957.408 368.08C957.924 369.04 958.182 370.133 958.182 371.36C958.182 372.569 957.924 373.653 957.408 374.613C956.91 375.573 956.208 376.329 955.302 376.88C954.413 377.413 953.399 377.68 952.262 377.68C951.124 377.68 950.102 377.413 949.195 376.88C948.306 376.329 947.604 375.573 947.088 374.613C946.59 373.653 946.342 372.569 946.342 371.36C946.342 370.133 946.59 369.04 947.088 368.08C947.604 367.12 948.306 366.373 949.195 365.84C950.102 365.289 951.124 365.013 952.262 365.013ZM952.262 366.373C951.373 366.373 950.59 366.596 949.915 367.04C949.239 367.467 948.706 368.062 948.315 368.827C947.942 369.573 947.755 370.418 947.755 371.36C947.755 372.284 947.942 373.129 948.315 373.893C948.706 374.64 949.239 375.227 949.915 375.653C950.59 376.08 951.373 376.293 952.262 376.293C953.15 376.293 953.933 376.08 954.608 375.653C955.302 375.227 955.835 374.64 956.208 373.893C956.582 373.129 956.768 372.284 956.768 371.36C956.768 370.418 956.582 369.573 956.208 368.827C955.835 368.062 955.302 367.467 954.608 367.04C953.933 366.596 953.15 366.373 952.262 366.373ZM960.208 382.507C959.533 382.844 958.573 383.102 957.328 383.28C956.084 383.458 954.644 383.547 953.008 383.547H945.622V382.133H953.142C954.724 382.133 956.128 382.044 957.355 381.867C958.582 381.689 959.533 381.431 960.208 381.093V382.507ZM988.439 384.907V364.427H989.905V384.907H988.439ZM978.759 365.013C979.897 365.013 980.892 365.36 981.745 366.053C982.617 366.747 983.292 367.796 983.772 369.2C984.27 370.604 984.519 372.347 984.519 374.427C984.519 376.507 984.27 378.249 983.772 379.653C983.292 381.058 982.617 382.107 981.745 382.8C980.892 383.493 979.897 383.84 978.759 383.84C977.017 383.84 975.621 383.049 974.572 381.467C973.523 379.867 972.999 377.52 972.999 374.427C972.999 371.333 973.523 368.996 974.572 367.413C975.621 365.813 977.017 365.013 978.759 365.013ZM978.759 366.427C977.461 366.427 976.412 367.102 975.612 368.453C974.812 369.804 974.412 371.796 974.412 374.427C974.412 377.058 974.812 379.049 975.612 380.4C976.412 381.751 977.461 382.427 978.759 382.427C980.039 382.427 981.07 381.751 981.852 380.4C982.652 379.049 983.052 377.058 983.052 374.427C983.052 371.796 982.652 369.804 981.852 368.453C981.07 367.102 980.039 366.427 978.759 366.427ZM1010.44 376.8H1013.4V378.187H1010.44V384.907H1009V364.427H1010.44V369.867H1013.4V371.253H1010.44V376.8ZM999.556 365.013C1001.3 365.013 1002.68 365.813 1003.69 367.413C1004.72 368.996 1005.24 371.333 1005.24 374.427C1005.24 377.52 1004.72 379.867 1003.69 381.467C1002.68 383.049 1001.3 383.84 999.556 383.84C998.436 383.84 997.449 383.493 996.596 382.8C995.743 382.107 995.076 381.058 994.596 379.653C994.116 378.249 993.876 376.507 993.876 374.427C993.876 372.347 994.116 370.604 994.596 369.2C995.076 367.796 995.743 366.747 996.596 366.053C997.449 365.36 998.436 365.013 999.556 365.013ZM999.556 382.427C1000.84 382.427 1001.86 381.751 1002.62 380.4C1003.4 379.049 1003.8 377.058 1003.8 374.427C1003.8 371.796 1003.4 369.804 1002.62 368.453C1001.86 367.102 1000.84 366.427 999.556 366.427C998.276 366.427 997.245 367.102 996.463 368.453C995.698 369.804 995.316 371.796 995.316 374.427C995.316 377.058 995.698 379.049 996.463 380.4C997.245 381.751 998.276 382.427 999.556 382.427ZM1030.67 384.907V364.427H1032.11V384.907H1030.67ZM1025.85 369.92C1025.85 372.622 1025.42 374.996 1024.57 377.04C1023.71 379.084 1022.49 380.667 1020.89 381.787C1019.29 382.907 1017.41 383.467 1015.26 383.467V382.027C1017.11 382.027 1018.72 381.538 1020.09 380.56C1021.47 379.582 1022.53 378.187 1023.26 376.373C1024.01 374.56 1024.38 372.436 1024.38 370V366.693H1015.26V365.307H1025.85V369.92ZM1038.32 369.013V371.067H1053.5V372.187H1036.91V367.947H1051.82V365.92H1036.91V364.8H1053.2V369.013H1038.32ZM1035.36 375.36V374.133H1054.67V375.36H1035.36ZM1038.19 381.387V383.413H1053.63V384.533H1036.8V380.347H1051.84V378.427H1036.75V377.28H1053.26V381.387H1038.19ZM1078.37 368.56H1074.47L1074.37 367.2H1078.37V364.427H1079.78V379.68H1078.37V374.08H1074.34L1074.45 372.72H1078.37V368.56ZM1073.81 370.587C1073.81 371.689 1073.58 372.684 1073.11 373.573C1072.65 374.462 1071.98 375.164 1071.09 375.68C1070.2 376.196 1069.14 376.453 1067.91 376.453C1066.71 376.453 1065.66 376.196 1064.77 375.68C1063.88 375.164 1063.19 374.462 1062.71 373.573C1062.25 372.684 1062.02 371.689 1062.02 370.587C1062.02 369.484 1062.25 368.489 1062.71 367.6C1063.19 366.693 1063.88 365.991 1064.77 365.493C1065.66 364.978 1066.71 364.72 1067.91 364.72C1069.14 364.72 1070.2 364.978 1071.09 365.493C1071.98 365.991 1072.65 366.684 1073.11 367.573C1073.58 368.462 1073.81 369.467 1073.81 370.587ZM1063.43 370.587C1063.43 371.973 1063.84 373.084 1064.66 373.92C1065.48 374.738 1066.56 375.147 1067.91 375.147C1069.27 375.147 1070.34 374.738 1071.14 373.92C1071.96 373.084 1072.37 371.973 1072.37 370.587C1072.37 369.2 1071.96 368.098 1071.14 367.28C1070.34 366.444 1069.27 366.027 1067.91 366.027C1066.56 366.027 1065.48 366.444 1064.66 367.28C1063.84 368.098 1063.43 369.2 1063.43 370.587ZM1080.29 384.507H1063.89V378.053H1065.33V383.12H1080.29V384.507ZM1094.71 372.507V371.2H1099.48V368.133H1095.46V366.8H1099.48V364.427H1100.9V374.507H1099.48V372.507H1094.71ZM1094.47 366.853C1094.47 369.342 1093.54 371.156 1091.67 372.293C1089.8 373.413 1087.11 373.973 1083.59 373.973V372.667C1086.67 372.649 1089.01 372.196 1090.63 371.307C1092.25 370.4 1093.06 368.96 1093.06 366.987V366.373H1083.59V365.067H1094.47V366.853ZM1101.48 384.507H1084.84V379.6H1099.46V377.093H1084.79V375.84H1100.9V380.773H1086.34V383.253H1101.48V384.507ZM1117.06 367.973V369.36H1104.44V367.973H1110.02V364.373H1111.48V367.973H1117.06ZM1121.3 374.56V384.907H1119.86V364.427H1121.3V373.147H1124.26V374.56H1121.3ZM1110.74 371.387C1111.73 371.387 1112.63 371.644 1113.43 372.16C1114.25 372.676 1114.89 373.404 1115.35 374.347C1115.81 375.289 1116.04 376.373 1116.04 377.6C1116.04 378.827 1115.81 379.911 1115.35 380.853C1114.89 381.778 1114.25 382.498 1113.43 383.013C1112.63 383.529 1111.73 383.787 1110.74 383.787C1109.74 383.787 1108.84 383.529 1108.04 383.013C1107.24 382.498 1106.61 381.778 1106.15 380.853C1105.69 379.911 1105.46 378.827 1105.46 377.6C1105.46 376.373 1105.69 375.289 1106.15 374.347C1106.61 373.404 1107.24 372.676 1108.04 372.16C1108.84 371.644 1109.74 371.387 1110.74 371.387ZM1110.74 382.427C1111.45 382.427 1112.1 382.231 1112.68 381.84C1113.27 381.431 1113.73 380.862 1114.07 380.133C1114.42 379.404 1114.6 378.56 1114.6 377.6C1114.6 376.64 1114.42 375.796 1114.07 375.067C1113.73 374.32 1113.27 373.751 1112.68 373.36C1112.1 372.951 1111.45 372.747 1110.74 372.747C1110.02 372.747 1109.38 372.951 1108.79 373.36C1108.2 373.751 1107.73 374.32 1107.38 375.067C1107.04 375.796 1106.87 376.64 1106.87 377.6C1106.87 378.56 1107.04 379.404 1107.38 380.133C1107.73 380.862 1108.2 381.431 1108.79 381.84C1109.38 382.231 1110.02 382.427 1110.74 382.427ZM1143.13 370.827V372.187H1126.63V364.48H1128.07V370.827H1143.13ZM1125.11 376.347V375.013H1144.41V376.347H1125.11ZM1143.37 383.173V384.533H1126.57V378.56H1128.04V383.173H1143.37ZM1153.04 373.6V364.8H1169.5V365.973H1154.48V368.64H1169.15V369.733H1154.48V372.427H1169.63V373.6H1153.04ZM1170.8 377.227H1151.5V375.947H1170.8V377.227ZM1169.34 379.573V384.8H1167.9V380.853H1152.75V379.573H1169.34ZM1185.44 372.293V370.96H1189.23V367.733H1185.44V366.4H1189.23V364.427H1190.64V374.747H1189.23V372.293H1185.44ZM1173.57 373.787V364.853H1174.96V367.76H1182.99V364.853H1184.4V373.787H1173.57ZM1182.99 369.04H1174.96V372.507H1182.99V369.04ZM1191.23 384.507H1174.59V379.707H1189.23V377.307H1174.53V376.08H1190.64V380.853H1176.03V383.307H1191.23V384.507ZM1193.73 367.973V366.667H1199.57V364.053H1201.04V366.667H1206.9V367.973H1193.73ZM1214 371.893H1211.04V379.813H1209.6V364.427H1211.04V370.453H1214V371.893ZM1200.32 377.787C1198.66 377.787 1197.3 377.413 1196.24 376.667C1195.19 375.902 1194.66 374.871 1194.66 373.573C1194.66 372.293 1195.19 371.28 1196.24 370.533C1197.29 369.787 1198.65 369.413 1200.32 369.413C1201.97 369.413 1203.32 369.787 1204.37 370.533C1205.44 371.28 1205.97 372.293 1205.97 373.573C1205.97 374.871 1205.44 375.902 1204.37 376.667C1203.32 377.413 1201.97 377.787 1200.32 377.787ZM1200.32 370.667C1199.02 370.667 1197.98 370.942 1197.2 371.493C1196.43 372.027 1196.05 372.72 1196.05 373.573C1196.05 374.444 1196.43 375.156 1197.2 375.707C1197.98 376.258 1199.02 376.533 1200.32 376.533C1201.62 376.533 1202.65 376.258 1203.41 375.707C1204.18 375.156 1204.56 374.444 1204.56 373.573C1204.56 372.702 1204.18 372 1203.41 371.467C1202.65 370.933 1201.62 370.667 1200.32 370.667ZM1211.7 383.147V384.507H1195.2V379.253H1196.64V383.147H1211.7ZM1231.96 373.093V371.733H1236.71V368.293H1232.71V366.933H1236.71V364.427H1238.15V375.76H1236.71V373.093H1231.96ZM1231.72 367.013C1231.72 369.698 1230.78 371.689 1228.89 372.987C1227.01 374.284 1224.33 374.933 1220.84 374.933V373.573C1223.86 373.573 1226.19 373.049 1227.83 372C1229.46 370.951 1230.28 369.342 1230.28 367.173V366.4H1220.84V365.067H1231.72V367.013ZM1230.2 376.613C1232.64 376.613 1234.62 376.951 1236.15 377.627C1237.69 378.284 1238.47 379.316 1238.47 380.72C1238.47 382.107 1237.69 383.138 1236.15 383.813C1234.62 384.471 1232.64 384.8 1230.2 384.8C1227.77 384.8 1225.78 384.471 1224.25 383.813C1222.73 383.138 1221.96 382.107 1221.96 380.72C1221.96 379.316 1222.73 378.284 1224.25 377.627C1225.78 376.951 1227.77 376.613 1230.2 376.613ZM1230.2 383.467C1232.17 383.467 1233.79 383.236 1235.05 382.773C1236.33 382.311 1236.97 381.627 1236.97 380.72C1236.97 379.796 1236.33 379.102 1235.05 378.64C1233.79 378.178 1232.17 377.947 1230.2 377.947C1228.25 377.947 1226.63 378.178 1225.35 378.64C1224.07 379.102 1223.43 379.796 1223.43 380.72C1223.43 381.627 1224.07 382.311 1225.35 382.773C1226.63 383.236 1228.25 383.467 1230.2 383.467ZM1241.35 367.707V366.427H1247.21V364.053H1248.68V366.427H1254.55V367.707H1241.35ZM1259.27 376.64H1257.83V372.347H1254.25V371.013H1257.83V364.427H1259.27V376.64ZM1247.96 376.4C1246.32 376.4 1244.98 376.071 1243.93 375.413C1242.88 374.756 1242.36 373.858 1242.36 372.72C1242.36 371.6 1242.88 370.711 1243.93 370.053C1245 369.378 1246.34 369.04 1247.96 369.04C1249.54 369.04 1250.86 369.378 1251.91 370.053C1252.97 370.711 1253.51 371.6 1253.51 372.72C1253.51 373.858 1252.98 374.756 1251.93 375.413C1250.88 376.071 1249.56 376.4 1247.96 376.4ZM1247.96 370.267C1246.7 370.267 1245.68 370.507 1244.92 370.987C1244.17 371.449 1243.8 372.027 1243.8 372.72C1243.8 373.413 1244.17 374 1244.92 374.48C1245.68 374.942 1246.7 375.173 1247.96 375.173C1249.2 375.173 1250.21 374.942 1250.97 374.48C1251.74 374 1252.12 373.413 1252.12 372.72C1252.12 372.027 1251.74 371.449 1250.97 370.987C1250.21 370.507 1249.2 370.267 1247.96 370.267ZM1259.19 378V384.507H1243.13V378H1259.19ZM1257.75 383.227V379.28H1244.55V383.227H1257.75ZM1272.01 364.48C1274.48 364.48 1276.49 364.773 1278.04 365.36C1279.6 365.947 1280.38 366.862 1280.38 368.107C1280.38 369.351 1279.6 370.267 1278.04 370.853C1276.47 371.44 1274.46 371.733 1272.01 371.733C1269.54 371.733 1267.51 371.44 1265.93 370.853C1264.36 370.267 1263.58 369.351 1263.58 368.107C1263.58 366.862 1264.36 365.947 1265.93 365.36C1267.51 364.773 1269.54 364.48 1272.01 364.48ZM1272.01 365.707C1270.02 365.707 1268.36 365.902 1267.05 366.293C1265.73 366.684 1265.08 367.289 1265.08 368.107C1265.08 368.924 1265.72 369.529 1267.02 369.92C1268.34 370.293 1270 370.48 1272.01 370.48C1274 370.48 1275.64 370.293 1276.94 369.92C1278.26 369.529 1278.92 368.924 1278.92 368.107C1278.92 367.289 1278.26 366.684 1276.94 366.293C1275.64 365.902 1274 365.707 1272.01 365.707ZM1262.36 374.64V373.36H1281.66V374.64H1262.36ZM1265.21 381.173V383.333H1280.62V384.533H1263.8V380.08H1278.81V378H1263.74V376.8H1280.25V381.173H1265.21ZM1300.05 370.32V368.96H1305.33V364.427H1306.77V379.68H1305.33V370.32H1300.05ZM1295.07 371.493C1294.37 372.88 1293.5 374.018 1292.45 374.907C1291.4 375.796 1290.2 376.373 1288.85 376.64V375.2C1290.13 374.916 1291.24 374.267 1292.16 373.253C1293.08 372.24 1293.79 370.987 1294.27 369.493C1294.76 367.982 1295.02 366.373 1295.04 364.667L1296.45 364.747C1296.45 366.72 1296.18 368.498 1295.63 370.08L1301.97 375.467L1301.01 376.587L1295.07 371.493ZM1307.28 384.507H1290.64V378.32H1292.08V383.12H1307.28V384.507ZM1327.17 374.56V384.907H1325.73V364.427H1327.17V373.147H1330.13V374.56H1327.17ZM1317.89 365.013C1317.85 368.373 1317.6 371.271 1317.12 373.707L1323.52 382.613L1322.37 383.493L1316.66 375.467C1316.02 377.867 1315.15 379.769 1314.05 381.173C1312.95 382.578 1311.64 383.369 1310.13 383.547V382.08C1311.5 381.831 1312.65 380.907 1313.6 379.307C1314.54 377.707 1315.24 375.662 1315.7 373.173C1316.17 370.684 1316.41 367.956 1316.42 364.987L1317.89 365.013ZM1330.98 367.653V366.373H1336.82V364.053H1338.29V366.373H1344.15V367.653H1330.98ZM1348.29 370.533V376.133H1346.85V364.427H1348.29V369.12H1351.25V370.533H1348.29ZM1337.57 376.133C1336.48 376.133 1335.51 375.991 1334.66 375.707C1333.81 375.404 1333.14 374.987 1332.66 374.453C1332.18 373.902 1331.94 373.271 1331.94 372.56C1331.94 371.849 1332.18 371.227 1332.66 370.693C1333.14 370.142 1333.81 369.716 1334.66 369.413C1335.51 369.111 1336.48 368.96 1337.57 368.96C1338.63 368.96 1339.59 369.111 1340.45 369.413C1341.3 369.716 1341.97 370.142 1342.45 370.693C1342.93 371.227 1343.17 371.849 1343.17 372.56C1343.17 373.271 1342.93 373.902 1342.45 374.453C1341.97 374.987 1341.3 375.404 1340.45 375.707C1339.59 375.991 1338.63 376.133 1337.57 376.133ZM1337.57 370.187C1336.31 370.187 1335.28 370.418 1334.5 370.88C1333.74 371.324 1333.35 371.884 1333.35 372.56C1333.35 373.236 1333.74 373.804 1334.5 374.267C1335.28 374.711 1336.31 374.933 1337.57 374.933C1338.83 374.933 1339.84 374.711 1340.61 374.267C1341.39 373.804 1341.78 373.236 1341.78 372.56C1341.78 371.884 1341.39 371.324 1340.61 370.88C1339.84 370.418 1338.83 370.187 1337.57 370.187ZM1348.29 377.067V384.507H1332.45V377.067H1333.86V379.413H1346.87V377.067H1348.29ZM1346.87 380.613H1333.86V383.253H1346.87V380.613ZM1368.5 384.933V364.427H1369.96V384.907L1368.5 384.933ZM1361.3 382.133C1362.22 382.133 1363.14 382.044 1364.04 381.867C1364.97 381.671 1365.73 381.422 1366.34 381.12V382.533C1365.75 382.853 1365 383.102 1364.07 383.28C1363.16 383.458 1362.24 383.547 1361.3 383.547H1353.35V365.173H1354.82V382.133H1361.3ZM1390.52 374.56V384.907H1389.08V364.427H1390.52V373.147H1393.48V374.56H1390.52ZM1381.96 382.16C1382.87 382.16 1383.78 382.071 1384.71 381.893C1385.65 381.698 1386.42 381.449 1387 381.147V382.56C1386.42 382.862 1385.65 383.102 1384.71 383.28C1383.78 383.458 1382.85 383.547 1381.91 383.547H1374.28V365.307H1385.48V366.693H1375.72V382.16H1381.96ZM1396.12 384.133C1395.78 384.133 1395.5 384.018 1395.27 383.787C1395.03 383.556 1394.92 383.271 1394.92 382.933C1394.92 382.596 1395.03 382.311 1395.27 382.08C1395.5 381.849 1395.78 381.733 1396.12 381.733C1396.46 381.733 1396.74 381.849 1396.97 382.08C1397.2 382.311 1397.32 382.596 1397.32 382.933C1397.32 383.271 1397.2 383.556 1396.97 383.787C1396.74 384.018 1396.46 384.133 1396.12 384.133Z" fill="#DBDBDB"/>
<defs>
<linearGradient id="paint0_linear_161_1624" x1="960" y1="0" x2="960" y2="480" gradientUnits="userSpaceOnUse">
<stop stop-color="#01050D" stop-opacity="0.2"/>
<stop offset="0.0865385" stop-color="#01050C" stop-opacity="0.53"/>
<stop offset="0.399038" stop-color="#01040B" stop-opacity="0.8375"/>
<stop offset="1"/>
</linearGradient>
</defs>
</svg>
