<svg width="1694" height="930" viewBox="0 0 1694 930" fill="none" xmlns="http://www.w3.org/2000/svg">
<path opacity="0.8" d="M815.493 868.427H816.933V883.68H815.493V874.88H811.12V873.52H815.493V868.427ZM805.68 875.467C805.076 876.907 804.222 878.062 803.12 878.933C802.036 879.804 800.764 880.356 799.307 880.587V879.173C801.12 878.853 802.551 877.938 803.6 876.427C804.649 874.898 805.209 872.898 805.28 870.427H799.547V869.093H812V870.427H806.72C806.667 871.884 806.489 873.12 806.187 874.133L812.427 879.28L811.6 880.427L805.68 875.467ZM817.44 888.507H800.8V882.32H802.24V887.12H817.44V888.507ZM837.891 888.907H836.451V868.427H837.891V888.907ZM828.371 869.013C828.335 872.267 828.059 875.129 827.544 877.6L834.131 886.613L832.984 887.493L827.117 879.36C826.459 881.796 825.571 883.724 824.451 885.147C823.331 886.569 822.006 887.369 820.477 887.547V886.08C821.846 885.831 823.011 884.907 823.971 883.307C824.931 881.707 825.651 879.662 826.131 877.173C826.628 874.667 826.886 871.938 826.904 868.987L828.371 869.013ZM842.928 873.973C842.59 873.973 842.305 873.858 842.074 873.627C841.843 873.378 841.728 873.084 841.728 872.747C841.728 872.409 841.843 872.124 842.074 871.893C842.305 871.662 842.59 871.547 842.928 871.547C843.265 871.547 843.55 871.662 843.781 871.893C844.012 872.124 844.128 872.409 844.128 872.747C844.128 873.084 844.012 873.378 843.781 873.627C843.55 873.858 843.265 873.973 842.928 873.973ZM842.928 885.787C842.59 885.787 842.305 885.671 842.074 885.44C841.843 885.191 841.728 884.898 841.728 884.56C841.728 884.222 841.843 883.938 842.074 883.707C842.305 883.476 842.59 883.36 842.928 883.36C843.265 883.36 843.55 883.476 843.781 883.707C844.012 883.938 844.128 884.222 844.128 884.56C844.128 884.898 844.012 885.191 843.781 885.44C843.55 885.671 843.265 885.787 842.928 885.787ZM868.232 888.907V868.427H869.672V888.907H868.232ZM853.058 887.547V869.307H863.832V887.547H853.058ZM862.392 870.72H854.498V886.133H862.392V870.72ZM882.576 868.4C885.011 868.4 887.02 868.72 888.602 869.36C890.202 870 891.002 870.96 891.002 872.24C891.002 873.52 890.202 874.48 888.602 875.12C887.02 875.76 885.011 876.08 882.576 876.08C880.14 876.08 878.122 875.76 876.522 875.12C874.94 874.48 874.149 873.52 874.149 872.24C874.149 870.96 874.94 870 876.522 869.36C878.122 868.72 880.14 868.4 882.576 868.4ZM882.576 869.68C880.62 869.68 878.967 869.902 877.616 870.347C876.282 870.773 875.616 871.404 875.616 872.24C875.616 873.076 876.282 873.707 877.616 874.133C878.949 874.56 880.602 874.773 882.576 874.773C884.549 874.773 886.193 874.56 887.509 874.133C888.842 873.707 889.509 873.076 889.509 872.24C889.509 871.404 888.842 870.773 887.509 870.347C886.176 869.902 884.531 869.68 882.576 869.68ZM872.922 879.413V878.107H892.229V879.413H872.922ZM874.389 888.533V881.92H890.762V888.533H874.389ZM889.349 883.2H875.829V887.253H889.349V883.2ZM911.346 878.56V888.907H909.906V868.427H911.346V877.147H914.306V878.56H911.346ZM900.466 869.013C902.208 869.013 903.586 869.813 904.599 871.413C905.631 872.996 906.146 875.333 906.146 878.427C906.146 881.52 905.631 883.867 904.599 885.467C903.586 887.049 902.208 887.84 900.466 887.84C899.346 887.84 898.359 887.493 897.506 886.8C896.653 886.107 895.986 885.058 895.506 883.653C895.026 882.249 894.786 880.507 894.786 878.427C894.786 876.347 895.026 874.604 895.506 873.2C895.986 871.796 896.653 870.747 897.506 870.053C898.359 869.36 899.346 869.013 900.466 869.013ZM900.466 886.427C901.746 886.427 902.768 885.751 903.533 884.4C904.315 883.049 904.706 881.058 904.706 878.427C904.706 875.796 904.315 873.804 903.533 872.453C902.768 871.102 901.746 870.427 900.466 870.427C899.186 870.427 898.155 871.102 897.373 872.453C896.608 873.804 896.226 875.796 896.226 878.427C896.226 881.058 896.608 883.049 897.373 884.4C898.155 885.751 899.186 886.427 900.466 886.427ZM916.597 882.107V869.307H933.103V870.667H918.01V875.013H932.89V876.347H918.01V880.72H933.423V882.107H916.597ZM934.463 887.787H915.157V886.4H934.463V887.787ZM937.074 870.667V869.493H945.154V867.6H946.621V869.493H954.781V870.667H937.074ZM955.581 880.08H936.274V878.907H945.207V877.147C942.932 877.111 941.154 876.88 939.874 876.453C938.612 876.027 937.981 875.387 937.981 874.533C937.981 873.627 938.674 872.96 940.061 872.533C941.465 872.107 943.421 871.893 945.927 871.893C948.434 871.893 950.381 872.107 951.767 872.533C953.172 872.96 953.874 873.627 953.874 874.533C953.874 875.387 953.234 876.027 951.954 876.453C950.692 876.88 948.923 877.111 946.647 877.147V878.907H955.581V880.08ZM939.394 874.533C939.394 875.031 939.998 875.413 941.207 875.68C942.416 875.947 943.989 876.08 945.927 876.08C947.847 876.08 949.412 875.947 950.621 875.68C951.829 875.413 952.434 875.031 952.434 874.533C952.434 874.018 951.829 873.627 950.621 873.36C949.429 873.093 947.865 872.96 945.927 872.96C943.989 872.96 942.416 873.093 941.207 873.36C939.998 873.627 939.394 874.018 939.394 874.533ZM954.541 887.44V888.533H937.714V884.56H952.754V882.773H937.661V881.68H954.167V885.6H939.101V887.44H954.541Z" fill="#989898"/>
<path opacity="0.8" d="M1669.21 9.58667V15.6667H1667.77V3.42667H1669.21V8.17333H1672.17V9.58667H1669.21ZM1658.49 10.2C1657.87 11.5156 1657.03 12.5733 1655.96 13.3733C1654.89 14.1733 1653.64 14.6889 1652.2 14.92V13.5067C1654.01 13.1867 1655.44 12.3333 1656.47 10.9467C1657.52 9.54222 1658.08 7.70222 1658.15 5.42667H1652.44V4.09333H1664.87V5.42667H1659.59C1659.53 6.79555 1659.36 7.95111 1659.05 8.89333L1665.35 13.5867L1664.57 14.76L1658.49 10.2ZM1669.21 17V23.8H1667.75V18.36H1653.16V17H1669.21ZM1690.33 13.56V23.9067H1688.89V3.42667H1690.33V12.1467H1693.29V13.56H1690.33ZM1684.2 4.30667V8.92C1684.2 11.6222 1683.78 13.9956 1682.94 16.04C1682.13 18.0844 1680.93 19.6667 1679.37 20.7867C1677.82 21.9067 1675.97 22.4667 1673.82 22.4667V21.0267C1675.67 21.0267 1677.26 20.5378 1678.6 19.56C1679.95 18.5644 1680.98 17.1689 1681.69 15.3733C1682.4 13.56 1682.76 11.4356 1682.76 9V5.69333H1673.82V4.30667H1684.2Z" fill="#989898"/>
<path opacity="0.8" d="M1647.98 67.5733V56.4267H1649.42V67.5733H1647.98ZM1643.58 59.0133C1643.58 61.7156 1642.6 63.7156 1640.62 65.0133C1638.67 66.2933 1635.91 66.9333 1632.36 66.9333V65.5733C1635.43 65.5733 1637.83 65.0489 1639.56 64C1641.28 62.9511 1642.14 61.3422 1642.14 59.1733V58.4H1632.36V57.0667H1643.58V59.0133ZM1633.34 76.5067V68.9067H1649.42V76.5067H1633.34ZM1647.98 70.24H1634.78V75.1733H1647.98V70.24ZM1669.07 76.9333V56.4267H1670.54V76.9067L1669.07 76.9333ZM1661.87 74.1333C1662.8 74.1333 1663.71 74.0444 1664.62 73.8667C1665.54 73.6711 1666.31 73.4222 1666.91 73.12V74.5333C1666.33 74.8533 1665.57 75.1022 1664.65 75.28C1663.74 75.4578 1662.81 75.5467 1661.87 75.5467H1653.93V57.1733H1655.39V74.1333H1661.87ZM1683.44 56.4C1684.99 56.4 1686.4 56.5689 1687.68 56.9067C1688.98 57.2267 1690.01 57.7156 1690.78 58.3733C1691.54 59.0133 1691.92 59.8044 1691.92 60.7467C1691.92 61.6889 1691.54 62.4978 1690.78 63.1733C1690.01 63.8311 1688.98 64.3289 1687.68 64.6667C1686.4 64.9867 1684.99 65.1467 1683.44 65.1467C1681.9 65.1467 1680.47 64.9867 1679.18 64.6667C1677.9 64.3289 1676.87 63.8311 1676.11 63.1733C1675.35 62.4978 1674.96 61.6889 1674.96 60.7467C1674.96 59.8044 1675.35 59.0133 1676.11 58.3733C1676.87 57.7156 1677.9 57.2267 1679.18 56.9067C1680.47 56.5689 1681.9 56.4 1683.44 56.4ZM1683.44 57.68C1682.22 57.68 1681.07 57.8044 1680 58.0533C1678.94 58.2844 1678.07 58.6311 1677.42 59.0933C1676.78 59.5556 1676.46 60.1067 1676.46 60.7467C1676.46 61.7067 1677.13 62.4622 1678.48 63.0133C1679.85 63.5467 1681.51 63.8133 1683.44 63.8133C1685.38 63.8133 1687.03 63.5467 1688.38 63.0133C1689.73 62.4622 1690.4 61.7067 1690.4 60.7467C1690.4 60.1067 1690.08 59.5556 1689.44 59.0933C1688.8 58.6311 1687.95 58.2844 1686.88 58.0533C1685.82 57.8044 1684.67 57.68 1683.44 57.68ZM1673.79 68.72V67.3867H1693.1V68.72H1673.79ZM1692.06 75.1733V76.5333H1675.26V70.8267H1676.72V75.1733H1692.06Z" fill="#989898"/>
<path opacity="0.8" d="M1647.98 115.907V95.4267H1649.45V115.907H1647.98ZM1638.3 96.0133C1639.44 96.0133 1640.44 96.36 1641.29 97.0533C1642.16 97.7467 1642.84 98.7956 1643.32 100.2C1643.81 101.604 1644.06 103.347 1644.06 105.427C1644.06 107.507 1643.81 109.249 1643.32 110.653C1642.84 112.058 1642.16 113.107 1641.29 113.8C1640.44 114.493 1639.44 114.84 1638.3 114.84C1636.56 114.84 1635.16 114.049 1634.12 112.467C1633.07 110.867 1632.54 108.52 1632.54 105.427C1632.54 102.333 1633.07 99.9956 1634.12 98.4133C1635.16 96.8133 1636.56 96.0133 1638.3 96.0133ZM1638.3 97.4267C1637 97.4267 1635.96 98.1022 1635.16 99.4533C1634.36 100.804 1633.96 102.796 1633.96 105.427C1633.96 108.058 1634.36 110.049 1635.16 111.4C1635.96 112.751 1637 113.427 1638.3 113.427C1639.58 113.427 1640.61 112.751 1641.4 111.4C1642.2 110.049 1642.6 108.058 1642.6 105.427C1642.6 102.796 1642.2 100.804 1641.4 99.4533C1640.61 98.1022 1639.58 97.4267 1638.3 97.4267ZM1669.07 115.933V95.4267H1670.54V115.907L1669.07 115.933ZM1655.42 97.6933V113.16H1661.87C1662.78 113.16 1663.69 113.062 1664.62 112.867C1665.54 112.671 1666.31 112.422 1666.91 112.12V113.56C1666.33 113.862 1665.56 114.102 1664.62 114.28C1663.69 114.458 1662.77 114.547 1661.85 114.547H1653.95V96.3067H1665.34V97.6933H1655.42ZM1690.14 102.787V97.1333H1675.23V95.8H1691.6V102.787H1690.14ZM1673.79 105.587V104.253H1693.1V105.587H1673.79ZM1676.7 109.56V114.227H1691.9V115.533H1675.26V108.253H1691.68V109.56H1676.7Z" fill="#989898"/>
<path opacity="0.8" d="M1648.14 134.427H1649.58V145.947H1648.14V139.973H1643.77V138.64H1648.14V134.427ZM1638.3 140.72C1637.7 141.947 1636.84 142.942 1635.74 143.707C1634.66 144.471 1633.4 144.969 1631.96 145.2V143.813C1633.73 143.493 1635.14 142.702 1636.17 141.44C1637.22 140.16 1637.8 138.489 1637.93 136.427H1632.2V135.093H1644.65V136.427H1639.37C1639.32 137.493 1639.14 138.498 1638.84 139.44L1645.26 143.867L1644.49 145.04L1638.3 140.72ZM1641.56 146.8C1644.01 146.8 1645.98 147.129 1647.48 147.787C1648.99 148.444 1649.74 149.449 1649.74 150.8C1649.74 152.151 1649 153.156 1647.5 153.813C1646.01 154.471 1644.03 154.8 1641.56 154.8C1639.1 154.8 1637.13 154.471 1635.64 153.813C1634.16 153.156 1633.42 152.151 1633.42 150.8C1633.42 149.449 1634.17 148.444 1635.66 147.787C1637.16 147.129 1639.12 146.8 1641.56 146.8ZM1641.56 153.493C1643.53 153.493 1645.13 153.262 1646.36 152.8C1647.6 152.338 1648.22 151.671 1648.22 150.8C1648.22 149.929 1647.6 149.262 1646.36 148.8C1645.13 148.338 1643.53 148.107 1641.56 148.107C1639.6 148.107 1638 148.338 1636.76 148.8C1635.53 149.262 1634.92 149.929 1634.92 150.8C1634.92 151.671 1635.53 152.338 1636.76 152.8C1638 153.262 1639.6 153.493 1641.56 153.493ZM1669.1 154.907V134.427H1670.54V154.907H1669.1ZM1655.37 144.907V152.16H1661.87C1662.8 152.16 1663.72 152.071 1664.65 151.893C1665.57 151.716 1666.33 151.476 1666.91 151.173V152.56C1666.33 152.88 1665.57 153.129 1664.65 153.307C1663.72 153.467 1662.79 153.547 1661.85 153.547H1653.9V143.547H1663.29V136.693H1653.87V135.307H1664.7V144.907H1655.37ZM1683.44 134.48C1685.91 134.48 1687.92 134.773 1689.47 135.36C1691.03 135.947 1691.82 136.862 1691.82 138.107C1691.82 139.351 1691.03 140.267 1689.47 140.853C1687.91 141.44 1685.9 141.733 1683.44 141.733C1680.97 141.733 1678.95 141.44 1677.36 140.853C1675.8 140.267 1675.02 139.351 1675.02 138.107C1675.02 136.862 1675.8 135.947 1677.36 135.36C1678.95 134.773 1680.97 134.48 1683.44 134.48ZM1683.44 135.707C1681.45 135.707 1679.8 135.902 1678.48 136.293C1677.17 136.684 1676.51 137.289 1676.51 138.107C1676.51 138.924 1677.16 139.529 1678.46 139.92C1679.77 140.293 1681.43 140.48 1683.44 140.48C1685.43 140.48 1687.08 140.293 1688.38 139.92C1689.69 139.529 1690.35 138.924 1690.35 138.107C1690.35 137.289 1689.69 136.684 1688.38 136.293C1687.08 135.902 1685.43 135.707 1683.44 135.707ZM1673.79 144.64V143.36H1693.1V144.64H1673.79ZM1676.64 151.173V153.333H1692.06V154.533H1675.23V150.08H1690.24V148H1675.18V146.8H1691.68V151.173H1676.64Z" fill="#989898"/>
<path opacity="0.8" d="M1648.86 179.933V186.013H1647.42V173.427H1648.86V178.467H1651.82V179.933H1648.86ZM1632.38 184.707V173.853H1633.8V177.72H1642.06V173.853H1643.48V184.707H1632.38ZM1642.06 179H1633.8V183.4H1642.06V179ZM1648.86 187.347V193.8H1647.4V188.68H1632.81V187.347H1648.86ZM1670.54 193.907H1669.1V173.427H1670.54V193.907ZM1664.7 174.093V192.547H1653.93V174.093H1655.37V181.693H1663.29V174.093H1664.7ZM1663.29 183.08H1655.37V191.16H1663.29V183.08ZM1683.44 180.787C1680.99 180.787 1678.97 180.484 1677.39 179.88C1675.81 179.258 1675.02 178.324 1675.02 177.08C1675.02 175.853 1675.81 174.938 1677.39 174.333C1678.99 173.711 1681.01 173.4 1683.44 173.4C1685.88 173.4 1687.89 173.711 1689.47 174.333C1691.07 174.938 1691.87 175.853 1691.87 177.08C1691.87 178.324 1691.08 179.258 1689.5 179.88C1687.91 180.484 1685.9 180.787 1683.44 180.787ZM1683.44 174.653C1681.47 174.653 1679.82 174.858 1678.48 175.267C1677.15 175.676 1676.48 176.28 1676.48 177.08C1676.48 177.88 1677.15 178.484 1678.48 178.893C1679.82 179.302 1681.47 179.507 1683.44 179.507C1685.4 179.507 1687.04 179.302 1688.38 178.893C1689.71 178.484 1690.38 177.88 1690.38 177.08C1690.38 176.28 1689.71 175.676 1688.38 175.267C1687.04 174.858 1685.4 174.653 1683.44 174.653ZM1693.1 184.04H1673.79V182.76H1693.1V184.04ZM1691.63 185.88V193.533H1675.26V185.88H1676.7V188.307H1690.22V185.88H1691.63ZM1690.22 189.56H1676.7V192.253H1690.22V189.56Z" fill="#989898"/>
<path opacity="0.8" d="M1638.14 220.747C1637.56 221.956 1636.74 222.951 1635.69 223.733C1634.64 224.516 1633.4 225.031 1631.96 225.28V223.867C1633.72 223.547 1635.08 222.72 1636.06 221.387C1637.06 220.053 1637.61 218.453 1637.72 216.587H1632.36V215.2H1637.72V212.16H1639.18V215.2H1644.49V216.587H1639.18C1639.13 217.653 1638.96 218.622 1638.68 219.493L1645.05 224.053L1644.28 225.253L1638.14 220.747ZM1649.45 232.907H1648.04V212.427H1649.45V232.907ZM1639.08 230.16C1642.45 230.16 1644.81 229.849 1646.14 229.227V230.667C1644.65 231.253 1642.3 231.547 1639.1 231.547H1631.56V230.16H1637.48V225.067H1638.92V230.16H1639.08ZM1670.54 232.907H1669.1V212.427H1670.54V232.907ZM1661.02 213.013C1660.98 216.267 1660.71 219.129 1660.19 221.6L1666.78 230.613L1665.63 231.493L1659.77 223.36C1659.11 225.796 1658.22 227.724 1657.1 229.147C1655.98 230.569 1654.65 231.369 1653.13 231.547V230.08C1654.49 229.831 1655.66 228.907 1656.62 227.307C1657.58 225.707 1658.3 223.662 1658.78 221.173C1659.28 218.667 1659.53 215.938 1659.55 212.987L1661.02 213.013ZM1693.1 224.32H1673.79V222.987H1682.72V220.667C1680.47 220.613 1678.61 220.24 1677.15 219.547C1675.69 218.836 1674.96 217.831 1674.96 216.533C1674.96 215.164 1675.76 214.133 1677.36 213.44C1678.98 212.747 1681.01 212.4 1683.44 212.4C1685.88 212.4 1687.9 212.747 1689.5 213.44C1691.11 214.133 1691.92 215.164 1691.92 216.533C1691.92 217.831 1691.19 218.836 1689.74 219.547C1688.28 220.24 1686.42 220.613 1684.16 220.667V222.987H1693.1V224.32ZM1676.46 216.533C1676.46 217.458 1677.13 218.169 1678.48 218.667C1679.83 219.147 1681.49 219.387 1683.44 219.387C1685.4 219.387 1687.04 219.147 1688.38 218.667C1689.73 218.169 1690.4 217.458 1690.4 216.533C1690.4 215.627 1689.73 214.924 1688.38 214.427C1687.03 213.929 1685.38 213.68 1683.44 213.68C1681.49 213.68 1679.83 213.929 1678.48 214.427C1677.13 214.924 1676.46 215.627 1676.46 216.533ZM1684.72 225.893C1684.56 226.658 1684.29 227.378 1683.9 228.053L1692.32 231.44L1691.79 232.747L1683.1 229.147C1682.15 230.213 1680.94 231.04 1679.44 231.627C1677.95 232.213 1676.4 232.507 1674.8 232.507V231.12C1676.1 231.12 1677.35 230.907 1678.56 230.48C1679.77 230.036 1680.8 229.404 1681.66 228.587C1682.51 227.751 1683.05 226.773 1683.28 225.653L1684.72 225.893Z" fill="#989898"/>
<path opacity="0.8" d="M815.333 915.507V905.427H816.773V915.507H815.333ZM805.307 905.72C806.516 905.72 807.564 905.924 808.453 906.333C809.342 906.724 810.027 907.276 810.507 907.987C810.987 908.698 811.227 909.507 811.227 910.413C811.227 911.32 810.987 912.129 810.507 912.84C810.027 913.533 809.342 914.084 808.453 914.493C807.564 914.884 806.516 915.08 805.307 915.08C804.098 915.08 803.049 914.884 802.16 914.493C801.289 914.084 800.613 913.533 800.133 912.84C799.671 912.129 799.44 911.32 799.44 910.413C799.44 909.507 799.671 908.698 800.133 907.987C800.613 907.276 801.298 906.724 802.187 906.333C803.076 905.924 804.116 905.72 805.307 905.72ZM805.307 907C803.973 907 802.898 907.302 802.08 907.907C801.262 908.493 800.853 909.329 800.853 910.413C800.853 911.498 801.262 912.333 802.08 912.92C802.898 913.507 803.973 913.8 805.307 913.8C806.658 913.8 807.742 913.507 808.56 912.92C809.396 912.333 809.813 911.498 809.813 910.413C809.813 909.329 809.396 908.493 808.56 907.907C807.742 907.302 806.658 907 805.307 907ZM802.4 921.773V924.253H817.387V925.507H800.96V920.6H815.333V918.093H800.907V916.84H816.773V921.773H802.4ZM837.891 925.907H836.451V905.427H837.891V925.907ZM828.371 906.013C828.335 909.267 828.059 912.129 827.544 914.6L834.131 923.613L832.984 924.493L827.117 916.36C826.459 918.796 825.571 920.724 824.451 922.147C823.331 923.569 822.006 924.369 820.477 924.547V923.08C821.846 922.831 823.011 921.907 823.971 920.307C824.931 918.707 825.651 916.662 826.131 914.173C826.628 911.667 826.886 908.938 826.904 905.987L828.371 906.013ZM842.928 910.973C842.59 910.973 842.305 910.858 842.074 910.627C841.843 910.378 841.728 910.084 841.728 909.747C841.728 909.409 841.843 909.124 842.074 908.893C842.305 908.662 842.59 908.547 842.928 908.547C843.265 908.547 843.55 908.662 843.781 908.893C844.012 909.124 844.128 909.409 844.128 909.747C844.128 910.084 844.012 910.378 843.781 910.627C843.55 910.858 843.265 910.973 842.928 910.973ZM842.928 922.787C842.59 922.787 842.305 922.671 842.074 922.44C841.843 922.191 841.728 921.898 841.728 921.56C841.728 921.222 841.843 920.938 842.074 920.707C842.305 920.476 842.59 920.36 842.928 920.36C843.265 920.36 843.55 920.476 843.781 920.707C844.012 920.938 844.128 921.222 844.128 921.56C844.128 921.898 844.012 922.191 843.781 922.44C843.55 922.671 843.265 922.787 842.928 922.787ZM865.378 925H852.445V923.933L860.312 916.12C861.343 915.107 862.036 914.244 862.392 913.533C862.765 912.804 862.952 912.058 862.952 911.293C862.952 910.12 862.552 909.204 861.752 908.547C860.952 907.889 859.805 907.56 858.312 907.56C856.001 907.56 854.232 908.28 853.005 909.72L851.938 908.867C852.632 907.996 853.53 907.338 854.632 906.893C855.734 906.431 856.996 906.2 858.418 906.2C860.267 906.2 861.734 906.644 862.818 907.533C863.903 908.422 864.445 909.64 864.445 911.187C864.445 912.147 864.232 913.062 863.805 913.933C863.396 914.804 862.605 915.809 861.432 916.947L854.712 923.64H865.378V925ZM874.906 925.133C873.484 925.133 872.213 924.751 871.093 923.987C869.973 923.204 869.102 922.102 868.48 920.68C867.857 919.24 867.546 917.569 867.546 915.667C867.546 913.747 867.857 912.076 868.48 910.653C869.102 909.231 869.973 908.138 871.093 907.373C872.213 906.591 873.484 906.2 874.906 906.2C876.346 906.2 877.617 906.591 878.72 907.373C879.84 908.138 880.711 909.231 881.333 910.653C881.955 912.076 882.266 913.747 882.266 915.667C882.266 917.569 881.955 919.24 881.333 920.68C880.711 922.102 879.84 923.204 878.72 923.987C877.617 924.751 876.346 925.133 874.906 925.133ZM874.906 923.747C876.08 923.747 877.102 923.427 877.973 922.787C878.862 922.147 879.546 921.222 880.026 920.013C880.524 918.787 880.773 917.338 880.773 915.667C880.773 913.996 880.524 912.547 880.026 911.32C879.546 910.093 878.862 909.16 877.973 908.52C877.102 907.88 876.08 907.56 874.906 907.56C873.751 907.56 872.728 907.88 871.84 908.52C870.968 909.16 870.293 910.093 869.813 911.32C869.333 912.547 869.093 913.996 869.093 915.667C869.093 917.338 869.333 918.787 869.813 920.013C870.293 921.222 870.968 922.147 871.84 922.787C872.728 923.427 873.751 923.747 874.906 923.747ZM897.394 925H884.461V923.933L892.327 916.12C893.359 915.107 894.052 914.244 894.407 913.533C894.781 912.804 894.967 912.058 894.967 911.293C894.967 910.12 894.567 909.204 893.767 908.547C892.967 907.889 891.821 907.56 890.327 907.56C888.016 907.56 886.247 908.28 885.021 909.72L883.954 908.867C884.647 907.996 885.545 907.338 886.647 906.893C887.75 906.431 889.012 906.2 890.434 906.2C892.283 906.2 893.75 906.644 894.834 907.533C895.919 908.422 896.461 909.64 896.461 911.187C896.461 912.147 896.247 913.062 895.821 913.933C895.412 914.804 894.621 915.809 893.447 916.947L886.727 923.64H897.394V925ZM905.562 914.093C910.735 914.093 913.322 915.924 913.322 919.587C913.322 920.653 913.073 921.604 912.575 922.44C912.077 923.276 911.331 923.933 910.335 924.413C909.357 924.893 908.157 925.133 906.735 925.133C905.366 925.133 904.086 924.902 902.895 924.44C901.704 923.978 900.78 923.364 900.122 922.6L900.869 921.48C901.437 922.156 902.237 922.707 903.269 923.133C904.317 923.542 905.464 923.747 906.709 923.747C908.362 923.747 909.624 923.373 910.495 922.627C911.366 921.88 911.802 920.876 911.802 919.613C911.802 918.244 911.304 917.213 910.309 916.52C909.313 915.809 907.624 915.453 905.242 915.453H901.402L902.362 906.333H912.335V907.667H903.642L902.922 914.093H905.562ZM917.623 925.133C917.285 925.133 917.001 925.018 916.77 924.787C916.539 924.556 916.423 924.271 916.423 923.933C916.423 923.596 916.539 923.311 916.77 923.08C917.001 922.849 917.285 922.733 917.623 922.733C917.961 922.733 918.245 922.849 918.476 923.08C918.707 923.311 918.823 923.596 918.823 923.933C918.823 924.271 918.707 924.556 918.476 924.787C918.245 925.018 917.961 925.133 917.623 925.133ZM929.867 925H928.374V907.667H923.84V906.333H929.867V925ZM950.808 925H937.875V923.933L945.741 916.12C946.773 915.107 947.466 914.244 947.821 913.533C948.195 912.804 948.381 912.058 948.381 911.293C948.381 910.12 947.981 909.204 947.181 908.547C946.381 907.889 945.235 907.56 943.741 907.56C941.43 907.56 939.661 908.28 938.435 909.72L937.368 908.867C938.061 907.996 938.959 907.338 940.061 906.893C941.164 906.431 942.426 906.2 943.848 906.2C945.697 906.2 947.164 906.644 948.248 907.533C949.333 908.422 949.875 909.64 949.875 911.187C949.875 912.147 949.661 913.062 949.235 913.933C948.826 914.804 948.035 915.809 946.861 916.947L940.141 923.64H950.808V925ZM955.029 925.133C954.691 925.133 954.407 925.018 954.176 924.787C953.945 924.556 953.829 924.271 953.829 923.933C953.829 923.596 953.945 923.311 954.176 923.08C954.407 922.849 954.691 922.733 955.029 922.733C955.367 922.733 955.651 922.849 955.883 923.08C956.114 923.311 956.229 923.596 956.229 923.933C956.229 924.271 956.114 924.556 955.883 924.787C955.651 925.018 955.367 925.133 955.029 925.133ZM967.273 925H965.78V907.667H961.247V906.333H967.273V925ZM981.734 925.133C980.312 925.133 979.041 924.751 977.921 923.987C976.801 923.204 975.93 922.102 975.308 920.68C974.685 919.24 974.374 917.569 974.374 915.667C974.374 913.747 974.685 912.076 975.308 910.653C975.93 909.231 976.801 908.138 977.921 907.373C979.041 906.591 980.312 906.2 981.734 906.2C983.174 906.2 984.445 906.591 985.548 907.373C986.668 908.138 987.539 909.231 988.161 910.653C988.783 912.076 989.094 913.747 989.094 915.667C989.094 917.569 988.783 919.24 988.161 920.68C987.539 922.102 986.668 923.204 985.548 923.987C984.445 924.751 983.174 925.133 981.734 925.133ZM981.734 923.747C982.908 923.747 983.93 923.427 984.801 922.787C985.69 922.147 986.374 921.222 986.854 920.013C987.352 918.787 987.601 917.338 987.601 915.667C987.601 913.996 987.352 912.547 986.854 911.32C986.374 910.093 985.69 909.16 984.801 908.52C983.93 907.88 982.908 907.56 981.734 907.56C980.579 907.56 979.557 907.88 978.668 908.52C977.797 909.16 977.121 910.093 976.641 911.32C976.161 912.547 975.921 913.996 975.921 915.667C975.921 917.338 976.161 918.787 976.641 920.013C977.121 921.222 977.797 922.147 978.668 922.787C979.557 923.427 980.579 923.747 981.734 923.747ZM992.436 925.133C992.098 925.133 991.813 925.018 991.582 924.787C991.351 924.556 991.236 924.271 991.236 923.933C991.236 923.596 991.351 923.311 991.582 923.08C991.813 922.849 992.098 922.733 992.436 922.733C992.773 922.733 993.058 922.849 993.289 923.08C993.52 923.311 993.636 923.596 993.636 923.933C993.636 924.271 993.52 924.556 993.289 924.787C993.058 925.018 992.773 925.133 992.436 925.133ZM1010.65 910.733C1009.6 912.369 1008.27 913.684 1006.67 914.68C1005.09 915.658 1003.46 916.156 1001.77 916.173V914.733C1003.19 914.733 1004.57 914.316 1005.9 913.48C1007.25 912.627 1008.4 911.48 1009.34 910.04C1010.3 908.6 1010.93 907.036 1011.23 905.347L1012.75 905.64C1012.49 906.938 1012.02 908.236 1011.37 909.533L1019.93 914.893L1019.23 916.12L1010.65 910.733ZM1011.69 920.067V926.387H1010.22V920.067H1001.31V918.653H1020.62V920.067H1011.69ZM1041.74 924.787H1022.43V923.4H1027.23V917.213C1026.02 916.698 1025.09 916.004 1024.43 915.133C1023.79 914.244 1023.47 913.204 1023.47 912.013C1023.47 910.787 1023.83 909.72 1024.54 908.813C1025.25 907.907 1026.25 907.204 1027.55 906.707C1028.85 906.209 1030.36 905.96 1032.08 905.96C1033.81 905.96 1035.32 906.209 1036.62 906.707C1037.91 907.204 1038.92 907.907 1039.63 908.813C1040.34 909.72 1040.7 910.787 1040.7 912.013C1040.7 913.204 1040.37 914.244 1039.71 915.133C1039.07 916.004 1038.15 916.698 1036.96 917.213V923.4H1041.74V924.787ZM1032.08 907.347C1030.66 907.347 1029.42 907.542 1028.35 907.933C1027.28 908.307 1026.46 908.849 1025.87 909.56C1025.28 910.271 1024.99 911.089 1024.99 912.013C1024.99 912.956 1025.28 913.782 1025.87 914.493C1026.46 915.204 1027.28 915.756 1028.35 916.147C1029.42 916.52 1030.66 916.707 1032.08 916.707C1033.51 916.707 1034.75 916.52 1035.82 916.147C1036.88 915.756 1037.71 915.204 1038.3 914.493C1038.88 913.782 1039.18 912.956 1039.18 912.013C1039.18 911.089 1038.88 910.271 1038.3 909.56C1037.71 908.849 1036.88 908.307 1035.82 907.933C1034.75 907.542 1033.51 907.347 1032.08 907.347ZM1035.52 923.4V917.693C1034.51 917.96 1033.36 918.093 1032.08 918.093C1030.82 918.093 1029.68 917.96 1028.67 917.693V923.4H1035.52ZM1059.97 915.507V905.427H1061.41V915.507H1059.97ZM1049.95 905.72C1051.16 905.72 1052.21 905.924 1053.09 906.333C1053.98 906.724 1054.67 907.276 1055.15 907.987C1055.63 908.698 1055.87 909.507 1055.87 910.413C1055.87 911.32 1055.63 912.129 1055.15 912.84C1054.67 913.533 1053.98 914.084 1053.09 914.493C1052.21 914.884 1051.16 915.08 1049.95 915.08C1048.74 915.08 1047.69 914.884 1046.8 914.493C1045.93 914.084 1045.25 913.533 1044.77 912.84C1044.31 912.129 1044.08 911.32 1044.08 910.413C1044.08 909.507 1044.31 908.698 1044.77 907.987C1045.25 907.276 1045.94 906.724 1046.83 906.333C1047.72 905.924 1048.76 905.72 1049.95 905.72ZM1049.95 907C1048.61 907 1047.54 907.302 1046.72 907.907C1045.9 908.493 1045.49 909.329 1045.49 910.413C1045.49 911.498 1045.9 912.333 1046.72 912.92C1047.54 913.507 1048.61 913.8 1049.95 913.8C1051.3 913.8 1052.38 913.507 1053.2 912.92C1054.04 912.333 1054.45 911.498 1054.45 910.413C1054.45 909.329 1054.04 908.493 1053.2 907.907C1052.38 907.302 1051.3 907 1049.95 907ZM1047.04 921.773V924.253H1062.03V925.507H1045.6V920.6H1059.97V918.093H1045.55V916.84H1061.41V921.773H1047.04Z" fill="#989898"/>
<path opacity="0.8" d="M10 9.37333C9.11111 10.7067 7.92 11.7733 6.42667 12.5733C4.95111 13.3733 3.31556 13.8711 1.52 14.0667V12.6533C3.74222 12.4044 5.62667 11.6489 7.17333 10.3867C8.72 9.10667 9.66222 7.47111 10 5.48H2.05333V4.09333H19.0667V5.48H11.52C11.3956 6.45778 11.1289 7.36444 10.72 8.2L19.6 12.68L18.9333 13.96L10 9.37333ZM11.2533 18.0667V24.3867H9.78667V18.0667H0.906667V16.6533H20.2133V18.0667H11.2533ZM28.6105 11.7467C28.0239 12.9556 27.2061 13.9511 26.1572 14.7333C25.1083 15.5156 23.8639 16.0311 22.4239 16.28V14.8667C24.1839 14.5467 25.5527 13.72 26.5305 12.3867C27.5261 11.0533 28.0772 9.45333 28.1839 7.58667H22.8239V6.2H28.1839V3.16H29.6505V6.2H34.9572V7.58667H29.6505C29.5972 8.65333 29.4283 9.62222 29.1439 10.4933L35.5172 15.0533L34.7439 16.2533L28.6105 11.7467ZM39.9172 23.9067H38.5039V3.42667H39.9172V23.9067ZM29.5439 21.16C32.9216 21.16 35.2772 20.8489 36.6105 20.2267V21.6667C35.1172 22.2533 32.7705 22.5467 29.5705 22.5467H22.0239V21.16H27.9439V16.0667H29.3839V21.16H29.5439ZM44.9277 8.97333C44.5899 8.97333 44.3055 8.85778 44.0744 8.62667C43.8433 8.37778 43.7277 8.08444 43.7277 7.74667C43.7277 7.40889 43.8433 7.12444 44.0744 6.89333C44.3055 6.66222 44.5899 6.54667 44.9277 6.54667C45.2655 6.54667 45.5499 6.66222 45.781 6.89333C46.0122 7.12444 46.1277 7.40889 46.1277 7.74667C46.1277 8.08444 46.0122 8.37778 45.781 8.62667C45.5499 8.85778 45.2655 8.97333 44.9277 8.97333ZM44.9277 20.7867C44.5899 20.7867 44.3055 20.6711 44.0744 20.44C43.8433 20.1911 43.7277 19.8978 43.7277 19.56C43.7277 19.2222 43.8433 18.9378 44.0744 18.7067C44.3055 18.4756 44.5899 18.36 44.9277 18.36C45.2655 18.36 45.5499 18.4756 45.781 18.7067C46.0122 18.9378 46.1277 19.2222 46.1277 19.56C46.1277 19.8978 46.0122 20.1911 45.781 20.44C45.5499 20.6711 45.2655 20.7867 44.9277 20.7867ZM72.2051 23.9067H70.7918V13.4533H66.8184V23.56H65.4318V3.56H66.8184V12.0667H70.7918V3.42667H72.2051V23.9067ZM59.2184 21.1867C60.0362 21.1867 60.8362 21.1156 61.6184 20.9733C62.4184 20.8133 63.1295 20.6089 63.7518 20.36V21.72C63.1651 21.9689 62.4451 22.1733 61.5918 22.3333C60.7562 22.4756 59.894 22.5467 59.0051 22.5467H54.5518V4.30667H62.9251V5.66667H55.9384V21.1867H59.2184ZM74.9223 6.97333V5.66667H80.7623V3.05333H82.229V5.66667H88.0956V6.97333H74.9223ZM95.189 10.8933H92.229V18.8133H90.789V3.42667H92.229V9.45333H95.189V10.8933ZM81.509 16.7867C79.8556 16.7867 78.4956 16.4133 77.429 15.6667C76.3801 14.9022 75.8556 13.8711 75.8556 12.5733C75.8556 11.2933 76.3801 10.28 77.429 9.53333C78.4778 8.78667 79.8378 8.41333 81.509 8.41333C83.1623 8.41333 84.5134 8.78667 85.5623 9.53333C86.629 10.28 87.1623 11.2933 87.1623 12.5733C87.1623 13.8711 86.629 14.9022 85.5623 15.6667C84.5134 16.4133 83.1623 16.7867 81.509 16.7867ZM81.509 9.66667C80.2112 9.66667 79.1712 9.94222 78.389 10.4933C77.6245 11.0267 77.2423 11.72 77.2423 12.5733C77.2423 13.4444 77.6245 14.1556 78.389 14.7067C79.1712 15.2578 80.2112 15.5333 81.509 15.5333C82.8067 15.5333 83.8378 15.2578 84.6023 14.7067C85.3667 14.1556 85.749 13.4444 85.749 12.5733C85.749 11.7022 85.3667 11 84.6023 10.4667C83.8378 9.93333 82.8067 9.66667 81.509 9.66667ZM92.8956 22.1467V23.5067H76.389V18.2533H77.829V22.1467H92.8956ZM102.653 11.3467C102.048 12.6444 101.213 13.6933 100.146 14.4933C99.0795 15.2933 97.8439 15.8089 96.4395 16.04V14.6533C98.1461 14.3333 99.5061 13.5333 100.519 12.2533C101.551 10.9556 102.128 9.24 102.253 7.10667H96.6261V5.74667H102.253V3.05333H103.693V5.74667H109.159V7.10667H103.693C103.639 8.22667 103.479 9.19556 103.213 10.0133L109.399 14.76L108.599 15.9333L102.653 11.3467ZM112.626 3.42667H114.066V18.7333H112.626V10.9733H108.306V9.58667H112.626V3.42667ZM114.573 23.5067H97.9328V18.04H99.3728V22.12H114.573V23.5067ZM122.837 8.22667C122.819 9.95111 122.721 11.5778 122.543 13.1067L127.37 21.6133L126.223 22.36L122.197 15.16C121.379 19.5333 119.743 21.9956 117.29 22.5467V21.1067C118.659 20.7156 119.681 19.3911 120.357 17.1333C121.032 14.8756 121.388 11.9067 121.423 8.22667H117.477V6.84H121.423V3.4H122.837V6.84H126.757V8.22667H122.837ZM135.557 23.9067H134.143V3.42667H135.557V23.9067ZM130.437 3.56V23.56H129.05V13.4H126.01V11.9867H129.05V3.56H130.437ZM138.381 6.68V5.42667H144.141V3.05333H145.607V5.42667H150.914V6.68H138.381ZM156.301 15.08H154.887V12.8667H151.394V11.56H154.887V8.70667H151.394V7.4H154.887V3.42667H156.301V15.08ZM150.407 11.6133C150.407 12.6978 149.883 13.56 148.834 14.2C147.803 14.84 146.496 15.16 144.914 15.16C143.314 15.16 141.989 14.84 140.941 14.2C139.892 13.56 139.367 12.6978 139.367 11.6133C139.367 10.5289 139.892 9.66667 140.941 9.02667C141.989 8.38667 143.314 8.06667 144.914 8.06667C146.496 8.06667 147.803 8.38667 148.834 9.02667C149.883 9.66667 150.407 10.5289 150.407 11.6133ZM140.807 11.6133C140.807 12.2711 141.181 12.8311 141.927 13.2933C142.674 13.7378 143.669 13.96 144.914 13.96C146.141 13.96 147.127 13.7378 147.874 13.2933C148.621 12.8311 148.994 12.2711 148.994 11.6133C148.994 10.9378 148.621 10.3778 147.874 9.93333C147.127 9.48889 146.141 9.26667 144.914 9.26667C143.669 9.26667 142.674 9.48889 141.927 9.93333C141.181 10.3778 140.807 10.9378 140.807 11.6133ZM156.221 16.0667V23.5067H140.167V16.0667H141.554V18.4133H154.807V16.0667H156.221ZM154.807 19.6133H141.554V22.2533H154.807V19.6133ZM159.524 7.48V6.12H165.471V3.18667H166.938V6.12H172.938V7.48H159.524ZM177.284 23.9067H175.871V3.42667H177.284V23.9067ZM166.964 21.1867C168.618 21.1867 170.022 21.1156 171.178 20.9733C172.333 20.8133 173.267 20.5644 173.978 20.2267V21.6667C173.355 21.9511 172.422 22.1733 171.178 22.3333C169.951 22.4756 168.538 22.5467 166.938 22.5467H159.391V21.1867H165.524V17.4533C163.995 17.3467 162.804 16.92 161.951 16.1733C161.098 15.4267 160.671 14.4667 160.671 13.2933C160.671 12.0133 161.16 10.9911 162.138 10.2267C163.133 9.44444 164.502 9.05333 166.244 9.05333C167.969 9.05333 169.329 9.44444 170.324 10.2267C171.32 10.9911 171.818 12.0133 171.818 13.2933C171.818 14.4667 171.391 15.4267 170.538 16.1733C169.702 16.92 168.511 17.3467 166.964 17.4533V21.1867ZM162.084 13.2933C162.084 14.1289 162.44 14.8222 163.151 15.3733C163.862 15.9244 164.893 16.2 166.244 16.2C167.595 16.2 168.627 15.9244 169.338 15.3733C170.049 14.8222 170.404 14.1289 170.404 13.2933C170.404 12.44 170.049 11.7378 169.338 11.1867C168.627 10.6356 167.595 10.36 166.244 10.36C164.893 10.36 163.862 10.6356 163.151 11.1867C162.44 11.7378 162.084 12.44 162.084 13.2933Z" fill="#989898"/>
<path d="M118.022 910.342V908.787H122.44V905.022H118.022V903.467H122.44V901.164H124.089V913.204H122.44V910.342H118.022ZM104.178 912.084V901.662H105.796V905.053H115.16V901.662H116.809V912.084H104.178ZM115.16 906.547H105.796V910.591H115.16V906.547ZM124.773 924.591H105.36V918.991H122.44V916.191H105.298V914.76H124.089V920.329H107.04V923.191H124.773V924.591ZM138.957 901.227C141.84 901.227 144.183 901.569 145.988 902.253C147.813 902.938 148.726 904.006 148.726 905.458C148.726 906.91 147.813 907.978 145.988 908.662C144.163 909.347 141.819 909.689 138.957 909.689C136.074 909.689 133.709 909.347 131.863 908.662C130.038 907.978 129.126 906.91 129.126 905.458C129.126 904.006 130.038 902.938 131.863 902.253C133.709 901.569 136.074 901.227 138.957 901.227ZM138.957 902.658C136.634 902.658 134.705 902.886 133.17 903.342C131.635 903.799 130.868 904.504 130.868 905.458C130.868 906.412 131.625 907.117 133.139 907.573C134.674 908.009 136.613 908.227 138.957 908.227C141.28 908.227 143.198 908.009 144.712 907.573C146.247 907.117 147.014 906.412 147.014 905.458C147.014 904.504 146.247 903.799 144.712 903.342C143.198 902.886 141.28 902.658 138.957 902.658ZM127.694 913.08V911.587H150.219V913.08H127.694ZM131.023 920.702V923.222H149.006V924.622H129.374V919.427H146.89V917H129.312V915.6H148.57V920.702H131.023ZM160.257 908.818V901.227H161.937V907.324H179.546V908.818H160.257ZM170.586 915.507H179.359V920.609H161.781V923.222H179.795V924.622H160.164V919.333H177.71V916.876H160.101V915.507H168.906V912.707H158.484V911.244H181.008V912.707H170.586V915.507ZM204.151 925.058H202.44V913.08H197.556V911.4H202.44V901.164H204.151V925.058ZM193.138 921.853C194.217 921.853 195.295 921.75 196.374 921.542C197.452 921.335 198.334 921.055 199.018 920.702V922.32C198.334 922.693 197.452 922.984 196.374 923.191C195.295 923.378 194.196 923.471 193.076 923.471H184.458V911.867H194.103V903.809H184.427V902.191H195.783V913.484H186.169V921.853H193.138ZM228.788 925.058H227.108V911.929H220.73V910.28H227.108V901.164H228.788V925.058ZM216.81 901.849C216.769 905.25 216.541 908.289 216.126 910.964L223.499 922.538L222.161 923.564L215.659 913.142C214.954 916.233 213.958 918.67 212.673 920.453C211.387 922.237 209.852 923.243 208.068 923.471V921.729C209.624 921.439 210.92 920.37 211.957 918.524C213.015 916.658 213.793 914.273 214.29 911.369C214.809 908.465 215.078 905.281 215.099 901.818L216.81 901.849ZM253.511 910.342V908.787H257.928V905.022H253.511V903.467H257.928V901.164H259.577V913.204H257.928V910.342H253.511ZM239.666 912.084V901.662H241.284V905.053H250.648V901.662H252.297V912.084H239.666ZM250.648 906.547H241.284V910.591H250.648V906.547ZM260.262 924.591H240.848V918.991H257.928V916.191H240.786V914.76H259.577V920.329H242.528V923.191H260.262V924.591ZM283.374 912.987V925.058H281.694V901.164H283.374V911.338H286.827V912.987H283.374ZM272.018 903.809C271.977 907.003 271.728 909.824 271.272 912.271L278.987 922.196L277.649 923.222L270.805 914.293C270.1 916.969 269.125 919.095 267.881 920.671C266.657 922.227 265.205 923.16 263.525 923.471V921.729C264.935 921.397 266.149 920.422 267.165 918.804C268.181 917.187 268.949 915.092 269.467 912.52C270.006 909.927 270.297 907.024 270.338 903.809H263.992V902.191H278.241V903.809H272.018ZM306.984 925.058V901.164H308.664V925.058H306.984ZM290.962 913.391V921.853H298.553C299.631 921.853 300.71 921.75 301.788 921.542C302.867 921.335 303.748 921.055 304.433 920.702V922.32C303.748 922.693 302.867 922.984 301.788 923.191C300.71 923.378 299.621 923.471 298.522 923.471H289.251V911.804H300.202V903.809H289.219V902.191H301.851V913.391H290.962ZM315.91 906.516V908.911H333.612V910.218H314.261V905.271H331.652V902.907H314.261V901.6H333.27V906.516H315.91ZM312.456 913.92V912.489H334.981V913.92H312.456ZM315.754 920.951V923.316H333.767V924.622H314.136V919.738H331.683V917.498H314.074V916.16H333.332V920.951H315.754ZM350.712 909.347C349.986 910.695 349.011 911.804 347.788 912.676C346.585 913.547 345.185 914.117 343.588 914.387V912.8C345.475 912.447 346.999 911.597 348.161 910.249C349.343 908.88 350.048 907.179 350.276 905.147H343.805V903.591H350.339V900.729H352.019V903.591H358.428V905.147H352.019C351.936 906.101 351.739 907.013 351.428 907.884L358.739 912.738L357.868 914.107L350.712 909.347ZM366.89 908.6H363.436V915.009H361.756V901.164H363.436V906.92H366.89V908.6ZM355.628 918.058C355.482 918.68 355.223 919.292 354.85 919.893L364.339 923.44L363.779 924.933L353.823 921.107C352.786 922.206 351.438 923.067 349.779 923.689C348.14 924.29 346.419 924.591 344.614 924.591V923.036C346.025 923.036 347.362 922.839 348.628 922.444C349.893 922.03 350.982 921.449 351.894 920.702C352.807 919.935 353.439 919.053 353.792 918.058H344.925V916.564H363.872V918.058H355.628ZM388.073 912.987V925.058H386.393V901.164H388.073V911.338H391.526V912.987H388.073ZM375.38 901.849C377.412 901.849 379.02 902.782 380.202 904.649C381.405 906.495 382.006 909.222 382.006 912.831C382.006 916.44 381.405 919.178 380.202 921.044C379.02 922.89 377.412 923.813 375.38 923.813C374.073 923.813 372.922 923.409 371.926 922.6C370.931 921.791 370.153 920.567 369.593 918.929C369.033 917.29 368.753 915.258 368.753 912.831C368.753 910.404 369.033 908.372 369.593 906.733C370.153 905.095 370.931 903.871 371.926 903.062C372.922 902.253 374.073 901.849 375.38 901.849ZM375.38 922.164C376.873 922.164 378.066 921.376 378.958 919.8C379.87 918.224 380.326 915.901 380.326 912.831C380.326 909.761 379.87 907.439 378.958 905.862C378.066 904.286 376.873 903.498 375.38 903.498C373.886 903.498 372.683 904.286 371.771 905.862C370.879 907.439 370.433 909.761 370.433 912.831C370.433 915.901 370.879 918.224 371.771 919.8C372.683 921.376 373.886 922.164 375.38 922.164ZM415.043 923.751H392.519V922.102H402.91V915.818H394.168V901.942H395.816V906.858H411.714V901.942H413.394V915.818H404.59V922.102H415.043V923.751ZM411.714 914.2V908.476H395.816V914.2H411.714ZM438.622 925.058H436.973V901.164H438.622V925.058ZM433.022 901.32V924.653H431.373V911.431H427.235V909.782H431.373V901.32H433.022ZM424.342 901.849C424.342 905.769 424.176 909.098 423.844 911.836L429.475 922.258L428.107 923.129L423.378 914.356C422.901 916.969 422.175 919.022 421.2 920.516C420.246 921.988 419.001 922.973 417.467 923.471V921.698C419.416 920.93 420.764 918.898 421.511 915.6C422.278 912.302 422.683 907.708 422.724 901.818L424.342 901.849ZM464.317 923.751H441.792V922.133H447.392V914.916C445.982 914.314 444.893 913.505 444.125 912.489C443.379 911.452 443.005 910.239 443.005 908.849C443.005 907.418 443.42 906.173 444.25 905.116C445.08 904.058 446.251 903.239 447.765 902.658C449.28 902.077 451.043 901.787 453.054 901.787C455.066 901.787 456.829 902.077 458.343 902.658C459.857 903.239 461.029 904.058 461.859 905.116C462.688 906.173 463.103 907.418 463.103 908.849C463.103 910.239 462.72 911.452 461.952 912.489C461.205 913.505 460.137 914.314 458.748 914.916V922.133H464.317V923.751ZM453.054 903.404C451.395 903.404 449.943 903.633 448.699 904.089C447.454 904.524 446.49 905.157 445.805 905.987C445.121 906.816 444.779 907.77 444.779 908.849C444.779 909.948 445.121 910.913 445.805 911.742C446.49 912.572 447.454 913.215 448.699 913.671C449.943 914.107 451.395 914.324 453.054 914.324C454.714 914.324 456.165 914.107 457.41 913.671C458.654 913.215 459.619 912.572 460.303 911.742C460.988 910.913 461.33 909.948 461.33 908.849C461.33 907.77 460.988 906.816 460.303 905.987C459.619 905.157 458.654 904.524 457.41 904.089C456.165 903.633 454.714 903.404 453.054 903.404ZM457.068 922.133V915.476C455.885 915.787 454.548 915.942 453.054 915.942C451.582 915.942 450.254 915.787 449.072 915.476V922.133H457.068ZM470.349 902.16L470.038 917.747H468.638L468.327 902.16H470.349ZM469.322 924.156C468.928 924.156 468.596 924.031 468.327 923.782C468.057 923.513 467.922 923.191 467.922 922.818C467.922 922.444 468.057 922.123 468.327 921.853C468.596 921.584 468.928 921.449 469.322 921.449C469.716 921.449 470.048 921.584 470.318 921.853C470.587 922.123 470.722 922.444 470.722 922.818C470.722 923.191 470.587 923.513 470.318 923.782C470.048 924.031 469.716 924.156 469.322 924.156Z" fill="#989898"/>
</svg>
