<svg width="260" height="323" viewBox="0 0 260 323" fill="none" xmlns="http://www.w3.org/2000/svg">
<path d="M9.52605 68.3276L89.371 30.8507L141.331 71.9487L133.564 126.491L177.743 189.668L190.316 235.978L258.286 264.516" stroke="white"/>
<ellipse cx="8.22857" cy="68.7614" rx="4.1064" ry="4.10638" transform="rotate(-18.4601 8.22857 68.7614)" fill="white"/>
<ellipse cx="89.8034" cy="29.9853" rx="2.7376" ry="2.73759" transform="rotate(-18.4601 89.8034 29.9853)" fill="white"/>
<ellipse cx="140.682" cy="72.1659" rx="2.7376" ry="2.73759" transform="rotate(-18.4601 140.682 72.1659)" fill="white"/>
<ellipse cx="133.348" cy="125.842" rx="3.422" ry="3.42199" transform="rotate(-18.4601 133.348 125.842)" fill="white"/>
<ellipse cx="177.093" cy="187.72" rx="3.422" ry="3.42199" transform="rotate(-18.4601 177.093 187.72)" fill="white"/>
<ellipse cx="190.531" cy="234.463" rx="2.7376" ry="2.73759" transform="rotate(-18.4601 190.531 234.463)" fill="white"/>
<ellipse cx="256.403" cy="263.924" rx="2.54481" ry="2.54479" transform="rotate(-18.4601 256.403 263.924)" fill="white"/>
</svg>
