<svg width="136" height="19" viewBox="0 0 136 19" fill="none" xmlns="http://www.w3.org/2000/svg">
<path d="M0.000234369 2.17984V0.839844H10.8202V2.17984H6.14023V14.8398H4.68023V2.17984H0.000234369ZM17.8205 4.21984C19.0738 4.21984 20.0671 4.60651 20.8005 5.37984C21.5338 6.13984 21.9005 7.25318 21.9005 8.71984V14.8398H20.4605V8.89984C20.4605 7.80651 20.2005 6.97984 19.6805 6.41984C19.1738 5.84651 18.4471 5.55984 17.5005 5.55984C16.4471 5.55984 15.6071 5.89984 14.9805 6.57984C14.3671 7.24651 14.0605 8.15984 14.0605 9.31984V14.8398H12.6205V-0.00015676H14.0605V6.29984C14.4205 5.63318 14.9205 5.11984 15.5605 4.75984C16.2138 4.39984 16.9671 4.21984 17.8205 4.21984ZM33.8634 9.95984H25.5234C25.59 11.0665 25.9767 11.9598 26.6834 12.6398C27.4034 13.3065 28.31 13.6398 29.4034 13.6398C30.03 13.6398 30.6034 13.5265 31.1234 13.2998C31.6567 13.0732 32.0967 12.7332 32.4434 12.2798L33.2634 13.1998C32.7967 13.7732 32.23 14.2065 31.5634 14.4998C30.8967 14.7932 30.17 14.9398 29.3834 14.9398C28.3567 14.9398 27.4367 14.7132 26.6234 14.2598C25.8234 13.7932 25.1967 13.1532 24.7434 12.3398C24.3034 11.5265 24.0834 10.5998 24.0834 9.55984C24.0834 8.53318 24.2967 7.61984 24.7234 6.81984C25.15 6.00651 25.7367 5.37318 26.4834 4.91984C27.2434 4.45318 28.0834 4.21984 29.0034 4.21984C29.9234 4.21984 30.75 4.44651 31.4834 4.89984C32.23 5.33984 32.8167 5.95984 33.2434 6.75984C33.67 7.55984 33.8834 8.47984 33.8834 9.51984L33.8634 9.95984ZM29.0234 5.43984C28.0634 5.43984 27.2567 5.76651 26.6034 6.41984C25.9634 7.05984 25.6034 7.89984 25.5234 8.93984H32.5234C32.43 7.91318 32.0567 7.07318 31.4034 6.41984C30.7634 5.76651 29.97 5.43984 29.0234 5.43984ZM48.2927 7.59984C49.2127 7.81318 49.9127 8.21984 50.3927 8.81984C50.886 9.40651 51.1327 10.1665 51.1327 11.0998C51.1327 12.3132 50.706 13.2398 49.8527 13.8798C48.9993 14.5198 47.746 14.8398 46.0927 14.8398H39.9527V0.839844H45.7127C47.206 0.839844 48.366 1.15318 49.1927 1.77984C50.0193 2.40651 50.4327 3.29318 50.4327 4.43984C50.4327 5.21318 50.2393 5.87318 49.8527 6.41984C49.4793 6.95318 48.9593 7.34651 48.2927 7.59984ZM41.4327 7.11984H45.6127C46.6793 7.11984 47.4993 6.91318 48.0727 6.49984C48.646 6.07318 48.9327 5.44651 48.9327 4.61984C48.9327 3.79318 48.646 3.16651 48.0727 2.73984C47.4993 2.31318 46.6793 2.09984 45.6127 2.09984H41.4327V7.11984ZM46.0527 13.5798C47.2393 13.5798 48.1327 13.3732 48.7327 12.9598C49.3327 12.5332 49.6327 11.8732 49.6327 10.9798C49.6327 10.0865 49.3327 9.42651 48.7327 8.99984C48.1327 8.57318 47.2393 8.35984 46.0527 8.35984H41.4327V13.5798H46.0527ZM54.2272 2.05984C53.9339 2.05984 53.6805 1.95984 53.4672 1.75984C53.2672 1.55984 53.1672 1.31318 53.1672 1.01984C53.1672 0.72651 53.2672 0.48651 53.4672 0.299843C53.6672 0.0998431 53.9205 -0.00015676 54.2272 -0.00015676C54.5205 -0.00015676 54.7672 0.0998431 54.9672 0.299843C55.1672 0.48651 55.2672 0.719843 55.2672 0.999844C55.2672 1.30651 55.1672 1.55984 54.9672 1.75984C54.7672 1.95984 54.5205 2.05984 54.2272 2.05984ZM54.9472 4.31984V14.8398H53.5072V4.31984H54.9472ZM67.5933 13.5398C67.5933 15.3265 67.1733 16.6465 66.3333 17.4998C65.4933 18.3665 64.2399 18.7998 62.5733 18.7998C61.6266 18.7998 60.7399 18.6598 59.9133 18.3798C59.0999 18.0998 58.4333 17.6998 57.9133 17.1798L58.5733 16.0598C59.0533 16.5265 59.6333 16.8865 60.3133 17.1398C60.9933 17.3932 61.7133 17.5198 62.4733 17.5198C63.7399 17.5198 64.6666 17.2132 65.2533 16.5998C65.8533 15.9865 66.1533 15.0332 66.1533 13.7398V12.1998C65.7666 12.9065 65.2266 13.4532 64.5333 13.8398C63.8533 14.2265 63.0866 14.4198 62.2333 14.4198C61.2999 14.4198 60.4533 14.2065 59.6933 13.7798C58.9466 13.3398 58.3533 12.7332 57.9133 11.9598C57.4733 11.1732 57.2533 10.2865 57.2533 9.29984C57.2533 8.31318 57.4733 7.43318 57.9133 6.65984C58.3533 5.88651 58.9466 5.28651 59.6933 4.85984C60.4533 4.43318 61.2999 4.21984 62.2333 4.21984C63.0999 4.21984 63.8866 4.41984 64.5933 4.81984C65.2999 5.21984 65.8399 5.78651 66.2133 6.51984V4.31984H67.5933V13.5398ZM62.4533 13.1198C63.1599 13.1198 63.7933 12.9598 64.3533 12.6398C64.9266 12.3198 65.3733 11.8732 65.6933 11.2998C66.0133 10.7132 66.1733 10.0465 66.1733 9.29984C66.1733 8.56651 66.0133 7.91318 65.6933 7.33984C65.3733 6.76651 64.9333 6.31984 64.3733 5.99984C63.8133 5.67984 63.1733 5.51984 62.4533 5.51984C61.7333 5.51984 61.0866 5.67984 60.5133 5.99984C59.9533 6.31984 59.5133 6.76651 59.1933 7.33984C58.8733 7.91318 58.7133 8.56651 58.7133 9.29984C58.7133 10.0465 58.8733 10.7132 59.1933 11.2998C59.5133 11.8732 59.9533 12.3198 60.5133 12.6398C61.0866 12.9598 61.7333 13.1198 62.4533 13.1198ZM80.127 0.839844C81.527 0.839844 82.767 1.13318 83.847 1.71984C84.9404 2.30651 85.787 3.13318 86.387 4.19984C86.987 5.26651 87.287 6.47984 87.287 7.83984C87.287 9.19984 86.987 10.4132 86.387 11.4798C85.787 12.5332 84.9404 13.3598 83.847 13.9598C82.767 14.5465 81.527 14.8398 80.127 14.8398H74.687V0.839844H80.127ZM80.047 13.4798C81.1937 13.4798 82.2004 13.2465 83.067 12.7798C83.9337 12.2998 84.6004 11.6332 85.067 10.7798C85.547 9.92651 85.787 8.94651 85.787 7.83984C85.787 6.73318 85.547 5.75318 85.067 4.89984C84.6004 4.04651 83.9337 3.37984 83.067 2.89984C82.2004 2.41984 81.1937 2.17984 80.047 2.17984H76.167V13.4798H80.047ZM90.3151 2.05984C90.0217 2.05984 89.7684 1.95984 89.5551 1.75984C89.3551 1.55984 89.2551 1.31318 89.2551 1.01984C89.2551 0.72651 89.3551 0.48651 89.5551 0.299843C89.7551 0.0998431 90.0084 -0.00015676 90.3151 -0.00015676C90.6084 -0.00015676 90.8551 0.0998431 91.0551 0.299843C91.2551 0.48651 91.3551 0.719843 91.3551 0.999844C91.3551 1.30651 91.2551 1.55984 91.0551 1.75984C90.8551 1.95984 90.6084 2.05984 90.3151 2.05984ZM91.0351 4.31984V14.8398H89.5951V4.31984H91.0351ZM99.6212 4.21984C100.541 4.21984 101.375 4.44651 102.121 4.89984C102.868 5.35318 103.455 5.98651 103.881 6.79984C104.321 7.61318 104.541 8.53984 104.541 9.57984C104.541 10.6198 104.321 11.5465 103.881 12.3598C103.455 13.1732 102.868 13.8065 102.121 14.2598C101.375 14.7132 100.541 14.9398 99.6212 14.9398C98.7945 14.9398 98.0412 14.7398 97.3612 14.3398C96.6812 13.9398 96.1545 13.3798 95.7812 12.6598V18.6998H94.3412V4.31984H95.7212V6.57984C96.1078 5.83318 96.6412 5.25318 97.3212 4.83984C98.0012 4.42651 98.7678 4.21984 99.6212 4.21984ZM99.4412 13.6198C100.135 13.6198 100.761 13.4532 101.321 13.1198C101.881 12.7865 102.315 12.3132 102.621 11.6998C102.941 11.0865 103.101 10.3798 103.101 9.57984C103.101 8.77984 102.941 8.07318 102.621 7.45984C102.315 6.84651 101.881 6.37318 101.321 6.03984C100.761 5.69318 100.135 5.51984 99.4412 5.51984C98.7478 5.51984 98.1212 5.69318 97.5612 6.03984C97.0012 6.37318 96.5612 6.84651 96.2412 7.45984C95.9345 8.07318 95.7812 8.77984 95.7812 9.57984C95.7812 10.3798 95.9345 11.0865 96.2412 11.6998C96.5612 12.3132 97.0012 12.7865 97.5612 13.1198C98.1212 13.4532 98.7478 13.6198 99.4412 13.6198ZM112.119 4.21984C113.039 4.21984 113.873 4.44651 114.619 4.89984C115.366 5.35318 115.953 5.98651 116.379 6.79984C116.819 7.61318 117.039 8.53984 117.039 9.57984C117.039 10.6198 116.819 11.5465 116.379 12.3598C115.953 13.1732 115.366 13.8065 114.619 14.2598C113.873 14.7132 113.039 14.9398 112.119 14.9398C111.293 14.9398 110.539 14.7398 109.859 14.3398C109.179 13.9398 108.653 13.3798 108.279 12.6598V18.6998H106.839V4.31984H108.219V6.57984C108.606 5.83318 109.139 5.25318 109.819 4.83984C110.499 4.42651 111.266 4.21984 112.119 4.21984ZM111.939 13.6198C112.633 13.6198 113.259 13.4532 113.819 13.1198C114.379 12.7865 114.813 12.3132 115.119 11.6998C115.439 11.0865 115.599 10.3798 115.599 9.57984C115.599 8.77984 115.439 8.07318 115.119 7.45984C114.813 6.84651 114.379 6.37318 113.819 6.03984C113.259 5.69318 112.633 5.51984 111.939 5.51984C111.246 5.51984 110.619 5.69318 110.059 6.03984C109.499 6.37318 109.059 6.84651 108.739 7.45984C108.433 8.07318 108.279 8.77984 108.279 9.57984C108.279 10.3798 108.433 11.0865 108.739 11.6998C109.059 12.3132 109.499 12.7865 110.059 13.1198C110.619 13.4532 111.246 13.6198 111.939 13.6198ZM128.117 9.95984H119.777C119.844 11.0665 120.231 11.9598 120.937 12.6398C121.657 13.3065 122.564 13.6398 123.657 13.6398C124.284 13.6398 124.857 13.5265 125.377 13.2998C125.911 13.0732 126.351 12.7332 126.697 12.2798L127.517 13.1998C127.051 13.7732 126.484 14.2065 125.817 14.4998C125.151 14.7932 124.424 14.9398 123.637 14.9398C122.611 14.9398 121.691 14.7132 120.877 14.2598C120.077 13.7932 119.451 13.1532 118.997 12.3398C118.557 11.5265 118.337 10.5998 118.337 9.55984C118.337 8.53318 118.551 7.61984 118.977 6.81984C119.404 6.00651 119.991 5.37318 120.737 4.91984C121.497 4.45318 122.337 4.21984 123.257 4.21984C124.177 4.21984 125.004 4.44651 125.737 4.89984C126.484 5.33984 127.071 5.95984 127.497 6.75984C127.924 7.55984 128.137 8.47984 128.137 9.51984L128.117 9.95984ZM123.277 5.43984C122.317 5.43984 121.511 5.76651 120.857 6.41984C120.217 7.05984 119.857 7.89984 119.777 8.93984H126.777C126.684 7.91318 126.311 7.07318 125.657 6.41984C125.017 5.76651 124.224 5.43984 123.277 5.43984ZM131.791 6.39984C132.111 5.67984 132.591 5.13318 133.231 4.75984C133.871 4.38651 134.638 4.20651 135.531 4.21984V5.65984C135.451 5.64651 135.331 5.63984 135.171 5.63984C134.131 5.63984 133.318 5.97318 132.731 6.63984C132.145 7.30651 131.851 8.24651 131.851 9.45984V14.8398H130.411V4.31984H131.791V6.39984Z" fill="#989898"/>
</svg>
